# Blender 3.4.1
# www.blender.org
mtllib basicplatform.mtl
o Cylinder2
v 0.000000 0.080148 -0.898226
v 0.000000 0.384631 -0.850000
v 0.000000 0.440245 -0.884429
v 0.635142 0.080148 -0.635142
v 0.601041 0.384631 -0.601041
v 0.625386 0.440245 -0.625386
v 0.898226 0.080148 0.000000
v 0.850000 0.384631 0.000000
v 0.884429 0.440245 0.000000
v 0.635142 0.080148 0.635142
v 0.601041 0.384631 0.601041
v 0.625386 0.440245 0.625386
v 0.000000 0.080148 0.898226
v 0.000000 0.384631 0.850000
v 0.000000 0.440245 0.884429
v -0.635142 0.080148 0.635142
v -0.601041 0.384631 0.601041
v -0.625386 0.440245 0.625386
v -0.898226 0.080148 0.000000
v -0.850000 0.384631 0.000000
v -0.884429 0.440245 0.000000
v -0.635142 0.080148 -0.635142
v -0.601041 0.384631 -0.601041
v -0.625386 0.440245 -0.625386
v 0.707107 0.384631 -0.707107
v 0.000000 0.384631 -1.000000
v 1.000000 0.384631 0.000000
v 0.707107 0.384631 0.707107
v 0.000000 0.384631 1.000000
v -0.707107 0.384631 0.707107
v -1.000000 0.384631 0.000000
v -0.707107 0.384631 -0.707107
v 0.000000 0.171813 -1.000000
v 0.707107 0.171813 -0.707107
v 1.000000 0.171813 0.000000
v 0.707107 0.171813 0.707107
v 0.000000 0.171813 1.000000
v -0.707107 0.171813 0.707107
v -1.000000 0.171813 0.000000
v -0.707107 0.171813 -0.707107
v 0.000000 0.080148 -0.850000
v 0.850000 0.080148 0.000000
v 0.000000 0.080148 0.850000
v -0.850000 0.080148 0.000000
v 0.601041 0.080148 0.601041
v -0.601041 0.080148 -0.601041
v 0.601041 0.080148 -0.601041
v -0.601041 0.080148 0.601041
vn 0.3827 -0.0000 -0.9239
vn 0.9239 -0.0000 -0.3827
vn 0.9239 -0.0000 0.3827
vn 0.3827 -0.0000 0.9239
vn -0.3827 -0.0000 0.9239
vn -0.9239 -0.0000 0.3827
vn -0.0000 1.0000 -0.0000
vn -0.9239 -0.0000 -0.3827
vn -0.3827 -0.0000 -0.9239
vn -0.0000 -1.0000 -0.0000
vn 0.1768 0.8869 -0.4268
vn 0.4268 0.8869 -0.1768
vn 0.4268 0.8869 0.1768
vn 0.1768 0.8869 0.4268
vn -0.1768 0.8869 0.4268
vn -0.4268 0.8869 0.1768
vn -0.4268 0.8869 -0.1768
vn -0.1768 0.8869 -0.4268
vn 0.2671 -0.7160 -0.6449
vn 0.6449 -0.7160 -0.2671
vn 0.6449 -0.7160 0.2671
vn 0.2671 -0.7160 0.6449
vn -0.2671 -0.7160 0.6449
vn -0.6449 -0.7160 0.2671
vn -0.6449 -0.7160 -0.2671
vn -0.2671 -0.7160 -0.6449
vt 0.724279 0.126850
vt 0.719158 0.838740
vt 0.722814 0.902609
vt 0.696345 0.126850
vt 0.692724 0.838740
vt 0.695309 0.902609
vt 0.628906 0.126850
vt 0.628906 0.838740
vt 0.628906 0.902609
vt 0.561468 0.126850
vt 0.565089 0.838740
vt 0.562504 0.902609
vt 0.533534 0.126850
vt 0.538655 0.838740
vt 0.534999 0.902609
vt 0.561468 0.126850
vt 0.565089 0.838740
vt 0.562504 0.902609
vt 0.628906 0.126850
vt 0.628906 0.838740
vt 0.628906 0.902609
vt 0.696345 0.126850
vt 0.692724 0.838740
vt 0.695309 0.902609
vt 0.703986 0.838740
vt 0.735085 0.838740
vt 0.628906 0.838740
vt 0.553827 0.838740
vt 0.522728 0.838740
vt 0.553827 0.838740
vt 0.628906 0.838740
vt 0.703986 0.838740
vt 0.735085 0.523835
vt 0.703986 0.523835
vt 0.628906 0.523835
vt 0.553827 0.523835
vt 0.522728 0.523835
vt 0.553827 0.523835
vt 0.628906 0.523835
vt 0.703986 0.523835
vt 0.719158 0.126850
vt 0.628906 0.126850
vt 0.538655 0.126850
vt 0.628906 0.126850
vt 0.565089 0.126850
vt 0.692724 0.126850
vt 0.692724 0.126850
vt 0.565089 0.126850
s 0
usemtl Material.001
f 33/33/1 26/26/1 25/25/1 34/34/1
f 34/34/2 25/25/2 27/27/2 35/35/2
f 35/35/3 27/27/3 28/28/3 36/36/3
f 36/36/4 28/28/4 29/29/4 37/37/4
f 37/37/5 29/29/5 30/30/5 38/38/5
f 38/38/6 30/30/6 31/31/6 39/39/6
f 15/15/7 12/12/7 9/9/7 6/6/7 3/3/7 24/24/7 21/21/7 18/18/7
f 39/39/8 31/31/8 32/32/8 40/40/8
f 40/40/9 32/32/9 26/26/9 33/33/9
f 43/43/10 13/13/10 16/16/10 19/19/10 44/44/10 48/48/10
f 19/19/10 22/22/10 1/1/10 4/4/10 7/7/10 10/10/10 13/13/10 43/43/10 45/45/10 42/42/10 47/47/10 41/41/10 46/46/10 44/44/10
f 3/3/11 6/6/11 25/25/11 26/26/11
f 6/6/12 9/9/12 27/27/12 25/25/12
f 9/9/13 12/12/13 28/28/13 27/27/13
f 12/12/14 15/15/14 29/29/14 28/28/14
f 15/15/15 18/18/15 30/30/15 29/29/15
f 18/18/16 21/21/16 31/31/16 30/30/16
f 21/21/17 24/24/17 32/32/17 31/31/17
f 24/24/18 3/3/18 26/26/18 32/32/18
f 4/4/19 1/1/19 33/33/19 34/34/19
f 7/7/20 4/4/20 34/34/20 35/35/20
f 10/10/21 7/7/21 35/35/21 36/36/21
f 13/13/22 10/10/22 36/36/22 37/37/22
f 16/16/23 13/13/23 37/37/23 38/38/23
f 19/19/24 16/16/24 38/38/24 39/39/24
f 22/22/25 19/19/25 39/39/25 40/40/25
f 1/1/26 22/22/26 40/40/26 33/33/26
usemtl 
f 47/47/5 5/5/5 2/2/5 41/41/5
f 42/42/6 8/8/6 5/5/6 47/47/6
f 11/11/8 8/8/8 42/42/8 45/45/8
f 43/43/9 14/14/9 11/11/9 45/45/9
f 17/17/1 14/14/1 43/43/1 48/48/1
f 44/44/2 20/20/2 17/17/2 48/48/2
f 23/23/10 2/2/10 5/5/10 8/8/10 11/11/10 14/14/10 17/17/10 20/20/10
f 46/46/3 23/23/3 20/20/3 44/44/3
f 41/41/4 2/2/4 23/23/4 46/46/4
o Cylinder.001
v 0.000000 -0.347535 -0.505839
v 0.000000 0.384631 -0.850000
v 0.357682 -0.347535 -0.357682
v 0.601041 0.384631 -0.601041
v 0.505839 -0.347535 0.000000
v 0.850000 0.384631 0.000000
v 0.357682 -0.347535 0.357682
v 0.601041 0.384631 0.601041
v 0.000000 -0.347535 0.505839
v 0.000000 0.384631 0.850000
v -0.357682 -0.347535 0.357682
v -0.601041 0.384631 0.601041
v -0.505839 -0.347535 0.000000
v -0.850000 0.384631 0.000000
v -0.357682 -0.347535 -0.357682
v -0.601041 0.384631 -0.601041
v 0.000000 -0.247125 -0.712559
v 0.503855 -0.247125 -0.503855
v 0.712559 -0.247125 0.000000
v 0.503855 -0.247125 0.503855
v 0.000000 -0.247125 0.712559
v -0.503855 -0.247125 0.503855
v -0.712559 -0.247125 0.000000
v -0.503855 -0.247125 -0.503855
vn 0.3752 -0.1971 -0.9058
vn 0.9058 -0.1971 -0.3752
vn 0.9058 -0.1971 0.3752
vn 0.3752 -0.1971 0.9058
vn -0.3752 -0.1971 0.9058
vn -0.9058 -0.1971 0.3752
vn -0.0000 1.0000 -0.0000
vn -0.9058 -0.1971 -0.3752
vn -0.3752 -0.1971 -0.9058
vn -0.0000 -1.0000 -0.0000
vn -0.1781 -0.8851 -0.4299
vn -0.4299 -0.8851 -0.1781
vn -0.4299 -0.8851 0.1781
vn -0.1781 -0.8851 0.4299
vn 0.1781 -0.8851 0.4299
vn 0.4299 -0.8851 0.1781
vn 0.4299 -0.8851 -0.1781
vn 0.1781 -0.8851 -0.4299
vt 0.943707 0.121634
vt 0.987796 0.777181
vt 0.924727 0.121634
vt 0.955903 0.777181
vt 0.878906 0.121634
vt 0.878906 0.777181
vt 0.833085 0.121634
vt 0.801910 0.777181
vt 0.814106 0.121634
vt 0.770017 0.777181
vt 0.833085 0.121634
vt 0.801910 0.777181
vt 0.878906 0.121634
vt 0.878906 0.777181
vt 0.924727 0.121634
vt 0.955903 0.777181
vt 0.970189 0.233762
vt 0.943453 0.233762
vt 0.878906 0.233762
vt 0.814360 0.233762
vt 0.787624 0.233762
vt 0.814360 0.233762
vt 0.878906 0.233762
vt 0.943453 0.233762
s 0
usemtl Material.001
f 65/65/27 50/50/27 52/52/27 66/66/27
f 66/66/28 52/52/28 54/54/28 67/67/28
f 67/67/29 54/54/29 56/56/29 68/68/29
f 68/68/30 56/56/30 58/58/30 69/69/30
f 69/69/31 58/58/31 60/60/31 70/70/31
f 70/70/32 60/60/32 62/62/32 71/71/32
f 52/52/33 50/50/33 64/64/33 62/62/33 60/60/33 58/58/33 56/56/33 54/54/33
f 71/71/34 62/62/34 64/64/34 72/72/34
f 72/72/35 64/64/35 50/50/35 65/65/35
f 49/49/36 51/51/36 53/53/36 55/55/36 57/57/36 59/59/36 61/61/36 63/63/36
f 63/63/37 72/72/37 65/65/37 49/49/37
f 61/61/38 71/71/38 72/72/38 63/63/38
f 59/59/39 70/70/39 71/71/39 61/61/39
f 57/57/40 69/69/40 70/70/40 59/59/40
f 55/55/41 68/68/41 69/69/41 57/57/41
f 53/53/42 67/67/42 68/68/42 55/55/42
f 51/51/43 66/66/43 67/67/43 53/53/43
f 49/49/44 65/65/44 66/66/44 51/51/44
o Cylinder
v 0.000000 0.397750 -0.137021
v 0.001444 1.391438 -0.109567
v 0.096889 0.397750 -0.096889
v 0.099698 1.391438 -0.068982
v 0.137021 0.397750 0.000000
v 0.138466 1.391438 0.027454
v 0.096889 0.397750 0.096889
v 0.040924 1.319257 0.102032
v 0.000000 0.397750 0.137021
v 0.000389 1.319257 0.176306
v -0.096889 0.397750 0.096889
v -0.096500 1.319257 0.136173
v -0.137021 0.397750 0.000000
v -0.100134 1.391438 0.008946
v -0.096889 0.397750 -0.096889
v -0.095444 1.391438 -0.069434
v 0.011706 0.835753 -0.119672
v 0.098267 0.835753 -0.083817
v 0.134122 0.835753 0.002744
v 0.098267 0.835753 0.089306
v 0.011706 0.835753 0.125161
v -0.074856 0.835753 0.089306
v -0.110711 0.835753 0.002744
v -0.074856 0.835753 -0.083817
v 0.032686 1.158209 -0.080851
v 0.111182 1.158209 -0.048337
v 0.143696 1.158209 0.030159
v 0.111182 1.158209 0.108655
v 0.032686 1.158209 0.141170
v -0.045810 1.158209 0.108655
v -0.078324 1.158209 0.030159
v -0.045810 1.158209 -0.048337
v -0.002366 1.427942 0.013220
v -0.308296 1.783967 0.398384
v -0.224870 1.783967 0.358251
v -0.389964 1.783967 0.358251
v -0.408748 1.783967 0.275297
v -0.296885 1.783967 0.247128
v 0.488641 1.788876 0.039715
v 0.428709 1.788876 -0.022405
v 0.428709 1.788876 0.098867
v 0.328011 1.788876 0.025480
v -0.023226 1.860202 -0.480197
v -0.069730 1.860202 -0.520329
v -0.166619 1.860202 -0.480197
v -0.138654 1.860202 -0.399744
v -0.073540 1.860202 -0.397543
vn 0.3814 -0.0627 -0.9223
vn 0.9260 0.0143 -0.3773
vn 0.7163 0.1532 0.6808
vn 0.6607 0.1452 0.7365
vn -0.3687 -0.2681 0.8901
vn -0.9774 -0.1815 0.1081
vn 0.7000 -0.5658 -0.4357
vn -0.9593 -0.1676 -0.2275
vn -0.3776 -0.1628 -0.9116
vn -0.0000 -1.0000 -0.0000
vn -0.3823 0.0468 -0.9229
vn -0.9223 0.0578 -0.3820
vn -0.9226 0.0530 0.3821
vn -0.3824 0.0352 0.9233
vn 0.3826 0.0148 0.9238
vn 0.9239 0.0037 0.3827
vn 0.9238 0.0085 -0.3827
vn 0.3826 0.0264 -0.9236
vn -0.3792 0.1349 -0.9154
vn -0.9167 0.1244 -0.3797
vn -0.9222 0.0601 0.3820
vn -0.3826 -0.0210 0.9237
vn 0.3817 -0.0706 0.9216
vn 0.9222 -0.0599 0.3820
vn 0.9239 0.0051 -0.3827
vn 0.3813 0.0860 -0.9205
vn -0.0000 1.0000 -0.0000
vn 0.7844 0.6082 -0.1217
vn 0.6583 0.5798 0.4801
vn 0.6776 0.0410 0.7342
vn -0.3356 -0.5743 0.7467
vn -0.1774 0.4440 -0.8783
vn -0.8392 -0.5356 -0.0944
vn -0.4295 0.4348 -0.7915
vn 0.6671 -0.5728 0.4764
vn -0.5102 0.4330 0.7431
vn 0.4055 -0.5537 -0.7273
vn -0.2890 -0.6554 -0.6978
vn -0.1752 0.6507 0.7389
vn -0.9894 0.0110 0.1450
vt 0.121875 0.152895
vt 0.122221 0.733678
vt 0.145121 0.152895
vt 0.145468 0.733678
vt 0.154750 0.152895
vt 0.155097 0.733678
vt 0.145121 0.152895
vt 0.145468 0.733678
vt 0.121875 0.152895
vt 0.122221 0.733678
vt 0.098628 0.152895
vt 0.098975 0.733678
vt 0.088999 0.152895
vt 0.089346 0.733678
vt 0.098628 0.152895
vt 0.098975 0.733678
vt 0.124683 0.376771
vt 0.145452 0.376771
vt 0.154054 0.376771
vt 0.145452 0.376771
vt 0.124683 0.376771
vt 0.103915 0.376771
vt 0.095312 0.376771
vt 0.103915 0.376771
vt 0.129717 0.614468
vt 0.148550 0.614468
vt 0.156352 0.614468
vt 0.148550 0.614468
vt 0.129717 0.614468
vt 0.110884 0.614468
vt 0.103083 0.614468
vt 0.110884 0.614468
vt 0.121307 0.733678
vt 0.051558 0.861430
vt 0.074804 0.861430
vt 0.028311 0.861430
vt 0.018682 0.861430
vt 0.050644 0.861430
vt 0.234363 0.863939
vt 0.224734 0.863939
vt 0.224734 0.863939
vt 0.200574 0.863939
vt 0.109864 0.900396
vt 0.086618 0.900396
vt 0.063371 0.900396
vt 0.053742 0.900396
vt 0.085704 0.900396
s 0
usemtl Material.001
f 97/97/45 74/74/45 76/76/45 98/98/45
f 98/98/46 76/76/46 78/78/46 99/99/46
f 99/99/47 78/78/47 80/80/47 100/100/47
f 100/100/48 80/80/48 82/82/48 101/101/48
f 101/101/49 82/82/49 84/84/49 102/102/49
f 102/102/50 84/84/50 86/86/50 103/103/50
f 78/78/51 76/76/51 112/112/51 111/111/51
f 103/103/52 86/86/52 88/88/52 104/104/52
f 104/104/53 88/88/53 74/74/53 97/97/53
f 73/73/54 75/75/54 77/77/54 79/79/54 81/81/54 83/83/54 85/85/54 87/87/54
f 87/87/55 96/96/55 89/89/55 73/73/55
f 85/85/56 95/95/56 96/96/56 87/87/56
f 83/83/57 94/94/57 95/95/57 85/85/57
f 81/81/58 93/93/58 94/94/58 83/83/58
f 79/79/59 92/92/59 93/93/59 81/81/59
f 77/77/60 91/91/60 92/92/60 79/79/60
f 75/75/61 90/90/61 91/91/61 77/77/61
f 73/73/62 89/89/62 90/90/62 75/75/62
f 96/96/63 104/104/63 97/97/63 89/89/63
f 95/95/64 103/103/64 104/104/64 96/96/64
f 94/94/65 102/102/65 103/103/65 95/95/65
f 93/93/66 101/101/66 102/102/66 94/94/66
f 92/92/67 100/100/67 101/101/67 93/93/67
f 91/91/68 99/99/68 100/100/68 92/92/68
f 90/90/69 98/98/69 99/99/69 91/91/69
f 89/89/70 97/97/70 98/98/70 90/90/70
f 107/107/71 110/110/71 109/109/71 108/108/71 106/106/71
f 80/80/72 105/105/72 110/110/72 107/107/72
f 105/105/73 76/76/73 115/115/73 119/119/73
f 82/82/74 80/80/74 107/107/74 106/106/74
f 84/84/75 82/82/75 106/106/75 108/108/75
f 105/105/76 86/86/76 109/109/76 110/110/76
f 86/86/77 84/84/77 108/108/77 109/109/77
f 112/112/71 114/114/71 113/113/71 111/111/71
f 76/76/78 105/105/78 114/114/78 112/112/78
f 80/80/79 78/78/79 111/111/79 113/113/79
f 105/105/80 80/80/80 113/113/80 114/114/80
f 119/119/71 115/115/71 116/116/71 117/117/71 118/118/71
f 76/76/81 74/74/81 116/116/81 115/115/81
f 74/74/82 88/88/82 117/117/82 116/116/82
f 86/86/83 105/105/83 119/119/83 118/118/83
f 88/88/84 86/86/84 118/118/84 117/117/84
o Cube
v 0.333730 1.500299 0.258186
v 0.333730 1.626542 0.384430
v 0.207487 1.626542 0.258186
v 0.333730 2.024056 0.384430
v 0.333730 2.150299 0.258186
v 0.207487 2.024056 0.258186
v 0.333730 1.500299 -0.139327
v 0.207487 1.626542 -0.139327
v 0.333730 1.626542 -0.265570
v 0.333730 2.150299 -0.139327
v 0.333730 2.024056 -0.265570
v 0.207487 2.024056 -0.139327
v 0.731243 1.500299 0.258186
v 0.857487 1.626542 0.258186
v 0.731243 1.626542 0.384430
v 0.731243 2.150299 0.258186
v 0.731243 2.024056 0.384430
v 0.857487 2.024056 0.258186
v 0.731243 1.500299 -0.139327
v 0.731243 1.626542 -0.265570
v 0.857487 1.626542 -0.139327
v 0.731243 2.150299 -0.139327
v 0.857487 2.024056 -0.139327
v 0.731243 2.024056 -0.265570
vn -0.0000 -0.0000 1.0000
vn 1.0000 -0.0000 -0.0000
vn -0.0000 1.0000 -0.0000
vn -1.0000 -0.0000 -0.0000
vn -0.0000 -0.0000 -1.0000
vn -0.5774 -0.5774 0.5774
vn -0.5774 0.5774 0.5774
vn -0.5774 -0.5774 -0.5774
vn -0.5774 0.5774 -0.5774
vn 0.5774 -0.5773 0.5774
vn 0.5774 0.5773 0.5774
vn 0.5774 -0.5773 -0.5774
vn 0.5773 0.5773 -0.5774
vn -0.7071 -0.7071 -0.0000
vn -0.7071 -0.0000 0.7071
vn -0.7071 0.7071 -0.0000
vn -0.7071 -0.0000 -0.7071
vn -0.0000 -0.7071 -0.7071
vn -0.0000 0.7071 -0.7071
vn 0.7071 -0.0000 -0.7071
vn 0.7071 -0.7071 -0.0000
vn 0.7071 0.7071 -0.0000
vn 0.7071 -0.0000 0.7071
vn -0.0000 -0.7071 0.7071
vn -0.0000 0.7071 0.7071
vn -0.0000 -1.0000 -0.0000
vt 0.323648 0.043566
vt 0.323648 0.258558
vt 0.290466 0.258558
vt 0.323648 0.734708
vt 0.323648 0.949702
vt 0.290466 0.734708
vt 0.323648 0.043566
vt 0.290466 0.258558
vt 0.323648 0.258558
vt 0.323648 0.949702
vt 0.323648 0.734708
vt 0.290466 0.734708
vt 0.428132 0.043566
vt 0.461314 0.258558
vt 0.428132 0.258558
vt 0.428132 0.949702
vt 0.428132 0.734708
vt 0.461314 0.734708
vt 0.428132 0.043566
vt 0.428132 0.258558
vt 0.461314 0.258558
vt 0.428132 0.949702
vt 0.461314 0.734708
vt 0.428132 0.734708
s 0
usemtl Material.001
f 134/134/85 136/136/85 123/123/85 121/121/85
f 140/140/86 142/142/86 137/137/86 133/133/86
f 141/141/87 129/129/87 124/124/87 135/135/87
f 122/122/88 125/125/88 131/131/88 127/127/88
f 128/128/89 130/130/89 143/143/89 139/139/89
f 120/120/90 121/121/90 122/122/90
f 123/123/91 124/124/91 125/125/91
f 126/126/92 127/127/92 128/128/92
f 129/129/93 130/130/93 131/131/93
f 132/132/94 133/133/94 134/134/94
f 135/135/95 136/136/95 137/137/95
f 138/138/96 139/139/96 140/140/96
f 141/141/97 142/142/97 143/143/97
f 126/126/98 120/120/98 122/122/98 127/127/98
f 121/121/99 123/123/99 125/125/99 122/122/99
f 124/124/100 129/129/100 131/131/100 125/125/100
f 130/130/101 128/128/101 127/127/101 131/131/101
f 138/138/102 126/126/102 128/128/102 139/139/102
f 129/129/103 141/141/103 143/143/103 130/130/103
f 142/142/104 140/140/104 139/139/104 143/143/104
f 132/132/105 138/138/105 140/140/105 133/133/105
f 141/141/106 135/135/106 137/137/106 142/142/106
f 136/136/107 134/134/107 133/133/107 137/137/107
f 120/120/108 132/132/108 134/134/108 121/121/108
f 135/135/109 124/124/109 123/123/109 136/136/109
f 126/126/110 138/138/110 132/132/110 120/120/110
o Cube.001
v -0.291998 1.632895 -0.321532
v -0.291998 1.759138 -0.195288
v -0.418241 1.759138 -0.321532
v -0.291998 2.156651 -0.195288
v -0.291998 2.282895 -0.321532
v -0.418241 2.156651 -0.321532
v -0.291998 1.632895 -0.719045
v -0.418241 1.759138 -0.719045
v -0.291998 1.759138 -0.845288
v -0.291998 2.282895 -0.719045
v -0.291998 2.156651 -0.845288
v -0.418241 2.156651 -0.719045
v 0.105516 1.632895 -0.321532
v 0.231759 1.759138 -0.321532
v 0.105516 1.759138 -0.195288
v 0.105516 2.282895 -0.321532
v 0.105516 2.156651 -0.195288
v 0.231759 2.156651 -0.321532
v 0.105516 1.632895 -0.719045
v 0.105516 1.759138 -0.845288
v 0.231759 1.759138 -0.719045
v 0.105516 2.282895 -0.719045
v 0.231759 2.156651 -0.719045
v 0.105516 2.156651 -0.845288
vn -0.0000 -0.0000 1.0000
vn 1.0000 -0.0000 -0.0000
vn -0.0000 1.0000 -0.0000
vn -1.0000 -0.0000 -0.0000
vn -0.0000 -0.0000 -1.0000
vn -0.5774 -0.5774 0.5774
vn -0.5774 0.5774 0.5774
vn -0.5774 -0.5774 -0.5774
vn -0.5774 0.5774 -0.5774
vn 0.5774 -0.5773 0.5774
vn 0.5774 0.5773 0.5774
vn 0.5774 -0.5773 -0.5774
vn 0.5773 0.5773 -0.5774
vn -0.7071 -0.7071 -0.0000
vn -0.7071 -0.0000 0.7071
vn -0.7071 0.7071 -0.0000
vn -0.7071 -0.0000 -0.7071
vn -0.0000 -0.7071 -0.7071
vn -0.0000 0.7071 -0.7071
vn 0.7071 -0.0000 -0.7071
vn 0.7071 -0.7071 -0.0000
vn 0.7071 0.7071 -0.0000
vn 0.7071 -0.0000 0.7071
vn -0.0000 -0.7071 0.7071
vn -0.0000 0.7071 0.7071
vn -0.0000 -1.0000 -0.0000
vt 0.323648 0.043566
vt 0.323648 0.258558
vt 0.290466 0.258558
vt 0.323648 0.734708
vt 0.323648 0.949702
vt 0.290466 0.734708
vt 0.323648 0.043566
vt 0.290466 0.258558
vt 0.323648 0.258558
vt 0.323648 0.949702
vt 0.323648 0.734708
vt 0.290466 0.734708
vt 0.428132 0.043566
vt 0.461314 0.258558
vt 0.428132 0.258558
vt 0.428132 0.949702
vt 0.428132 0.734708
vt 0.461314 0.734708
vt 0.428132 0.043566
vt 0.428132 0.258558
vt 0.461314 0.258558
vt 0.428132 0.949702
vt 0.461314 0.734708
vt 0.428132 0.734708
s 0
usemtl Material.002
f 158/158/111 160/160/111 147/147/111 145/145/111
f 164/164/112 166/166/112 161/161/112 157/157/112
f 165/165/113 153/153/113 148/148/113 159/159/113
f 146/146/114 149/149/114 155/155/114 151/151/114
f 152/152/115 154/154/115 167/167/115 163/163/115
f 144/144/116 145/145/116 146/146/116
f 147/147/117 148/148/117 149/149/117
f 150/150/118 151/151/118 152/152/118
f 153/153/119 154/154/119 155/155/119
f 156/156/120 157/157/120 158/158/120
f 159/159/121 160/160/121 161/161/121
f 162/162/122 163/163/122 164/164/122
f 165/165/123 166/166/123 167/167/123
f 150/150/124 144/144/124 146/146/124 151/151/124
f 145/145/125 147/147/125 149/149/125 146/146/125
f 148/148/126 153/153/126 155/155/126 149/149/126
f 154/154/127 152/152/127 151/151/127 155/155/127
f 162/162/128 150/150/128 152/152/128 163/163/128
f 153/153/129 165/165/129 167/167/129 154/154/129
f 166/166/130 164/164/130 163/163/130 167/167/130
f 156/156/131 162/162/131 164/164/131 157/157/131
f 165/165/132 159/159/132 161/161/132 166/166/132
f 160/160/133 158/158/133 157/157/133 161/161/133
f 144/144/134 156/156/134 158/158/134 145/145/134
f 159/159/135 148/148/135 147/147/135 160/160/135
f 150/150/136 162/162/136 156/156/136 144/144/136
o Cube.002
v -0.543862 1.355519 0.566456
v -0.543862 1.481762 0.692700
v -0.670105 1.481762 0.566456
v -0.543862 1.879275 0.692700
v -0.543862 2.005519 0.566456
v -0.670105 1.879275 0.566456
v -0.543862 1.355519 0.168943
v -0.670105 1.481762 0.168943
v -0.543862 1.481762 0.042700
v -0.543862 2.005519 0.168943
v -0.543862 1.879275 0.042700
v -0.670105 1.879275 0.168943
v -0.146348 1.355519 0.566456
v -0.020105 1.481762 0.566456
v -0.146348 1.481762 0.692700
v -0.146348 2.005519 0.566456
v -0.146348 1.879275 0.692700
v -0.020105 1.879275 0.566456
v -0.146348 1.355519 0.168943
v -0.146348 1.481762 0.042700
v -0.020105 1.481762 0.168943
v -0.146348 2.005519 0.168943
v -0.020105 1.879275 0.168943
v -0.146348 1.879275 0.042700
vn -0.0000 -0.0000 1.0000
vn 1.0000 -0.0000 -0.0000
vn -0.0000 1.0000 -0.0000
vn -1.0000 -0.0000 -0.0000
vn -0.0000 -0.0000 -1.0000
vn -0.5774 -0.5774 0.5774
vn -0.5774 0.5774 0.5774
vn -0.5774 -0.5774 -0.5774
vn -0.5774 0.5774 -0.5774
vn 0.5774 -0.5773 0.5774
vn 0.5774 0.5773 0.5774
vn 0.5774 -0.5773 -0.5774
vn 0.5773 0.5773 -0.5774
vn -0.7071 -0.7071 -0.0000
vn -0.7071 -0.0000 0.7071
vn -0.7071 0.7071 -0.0000
vn -0.7071 -0.0000 -0.7071
vn -0.0000 -0.7071 -0.7071
vn -0.0000 0.7071 -0.7071
vn 0.7071 -0.0000 -0.7071
vn 0.7071 -0.7071 -0.0000
vn 0.7071 0.7071 -0.0000
vn 0.7071 -0.0000 0.7071
vn -0.0000 -0.7071 0.7071
vn -0.0000 0.7071 0.7071
vn -0.0000 -1.0000 -0.0000
vt 0.323648 0.043566
vt 0.323648 0.258558
vt 0.290466 0.258558
vt 0.323648 0.734708
vt 0.323648 0.949702
vt 0.290466 0.734708
vt 0.323648 0.043566
vt 0.290466 0.258558
vt 0.323648 0.258558
vt 0.323648 0.949702
vt 0.323648 0.734708
vt 0.290466 0.734708
vt 0.428132 0.043566
vt 0.461314 0.258558
vt 0.428132 0.258558
vt 0.428132 0.949702
vt 0.428132 0.734708
vt 0.461314 0.734708
vt 0.428132 0.043566
vt 0.428132 0.258558
vt 0.461314 0.258558
vt 0.428132 0.949702
vt 0.461314 0.734708
vt 0.428132 0.734708
s 0
usemtl Material.003
f 182/182/137 184/184/137 171/171/137 169/169/137
f 188/188/138 190/190/138 185/185/138 181/181/138
f 189/189/139 177/177/139 172/172/139 183/183/139
f 170/170/140 173/173/140 179/179/140 175/175/140
f 176/176/141 178/178/141 191/191/141 187/187/141
f 168/168/142 169/169/142 170/170/142
f 171/171/143 172/172/143 173/173/143
f 174/174/144 175/175/144 176/176/144
f 177/177/145 178/178/145 179/179/145
f 180/180/146 181/181/146 182/182/146
f 183/183/147 184/184/147 185/185/147
f 186/186/148 187/187/148 188/188/148
f 189/189/149 190/190/149 191/191/149
f 174/174/150 168/168/150 170/170/150 175/175/150
f 169/169/151 171/171/151 173/173/151 170/170/151
f 172/172/152 177/177/152 179/179/152 173/173/152
f 178/178/153 176/176/153 175/175/153 179/179/153
f 186/186/154 174/174/154 176/176/154 187/187/154
f 177/177/155 189/189/155 191/191/155 178/178/155
f 190/190/156 188/188/156 187/187/156 191/191/156
f 180/180/157 186/186/157 188/188/157 181/181/157
f 189/189/158 183/183/158 185/185/158 190/190/158
f 184/184/159 182/182/159 181/181/159 185/185/159
f 168/168/160 180/180/160 182/182/160 169/169/160
f 183/183/161 172/172/161 171/171/161 184/184/161
f 174/174/162 186/186/162 180/180/162 168/168/162
