# Blender 4.2.1 LTS
# www.blender.org
o bed_gemstone_islands
v -0.600000 -0.000000 0.000000
v -0.237653 0.354062 0.000000
v -0.519615 -0.000000 -0.300000
v -0.205814 0.354062 -0.118827
v -0.300000 -0.000000 -0.519615
v -0.118827 0.354062 -0.205814
v 0.000000 -0.000000 -0.600000
v -0.000000 0.354062 -0.237653
v 0.300000 -0.000000 -0.519615
v 0.118827 0.354062 -0.205814
v 0.519615 -0.000000 -0.300000
v 0.205814 0.354062 -0.118827
v 0.600000 -0.000000 0.000000
v 0.237653 0.354062 -0.000000
v 0.519615 -0.000000 0.300000
v 0.205814 0.354062 0.118827
v 0.300000 -0.000000 0.519615
v 0.118827 0.354062 0.205814
v 0.000000 -0.000000 0.600000
v 0.000000 0.354062 0.237653
v -0.300000 -0.000000 0.519615
v -0.118827 0.354062 0.205814
v -0.519615 -0.000000 0.300000
v -0.205814 0.354062 0.118827
v -0.519615 0.278750 -0.300000
v -0.600000 0.278750 0.000000
v -0.300000 0.278750 -0.519615
v 0.000000 0.278750 -0.600000
v 0.300000 0.278750 -0.519615
v 0.519615 0.278750 -0.300000
v 0.600000 0.278750 0.000000
v 0.519615 0.278750 0.300000
v 0.300000 0.278750 0.519615
v 0.000000 0.278750 0.600000
v -0.300000 0.278750 0.519615
v -0.519615 0.278750 0.300000
v -0.447889 0.325938 -0.258589
v -0.517178 0.325938 0.000000
v -0.258589 0.325938 -0.447889
v 0.000000 0.325938 -0.517178
v 0.258589 0.325938 -0.447889
v 0.447889 0.325938 -0.258589
v 0.517178 0.325938 0.000000
v 0.447889 0.325938 0.258589
v 0.258589 0.325938 0.447889
v 0.000000 0.325938 0.517178
v -0.258589 0.325938 0.447889
v -0.447889 0.325938 0.258589
v -0.340300 0.345312 -0.196472
v -0.392945 0.345312 0.000000
v -0.196472 0.345312 -0.340300
v 0.000000 0.345312 -0.392945
v 0.196472 0.345312 -0.340300
v 0.340300 0.345312 -0.196472
v 0.392945 0.345312 0.000000
v 0.340300 0.345312 0.196472
v 0.196472 0.345312 0.340300
v 0.000000 0.345312 0.392945
v -0.196472 0.345312 0.340300
v -0.340300 0.345312 0.196472
v 0.262500 0.295000 0.490000
v 0.111563 0.425000 0.403750
v -0.262500 0.295000 0.490000
v -0.111562 0.425000 0.403750
v 0.262500 0.295000 0.190000
v 0.111563 0.425000 0.276250
v -0.262500 0.295000 0.190000
v -0.111562 0.425000 0.276250
v 0.262500 0.345000 0.490000
v 0.223125 0.395000 0.467500
v -0.223125 0.395000 0.467500
v -0.262500 0.345000 0.490000
v -0.223125 0.395000 0.212500
v -0.262500 0.345000 0.190000
v 0.223125 0.395000 0.212500
v 0.262500 0.345000 0.190000
vn -1.0000 -0.0000 -0.0000
vn -0.8660 -0.0000 -0.5000
vn -0.5000 -0.0000 -0.8660
vn -0.0000 -0.0000 -1.0000
vn 0.5000 -0.0000 -0.8660
vn 0.8660 -0.0000 -0.5000
vn 1.0000 -0.0000 -0.0000
vn 0.8660 -0.0000 0.5000
vn 0.5000 -0.0000 0.8660
vn -0.0000 -0.0000 1.0000
vn -0.5000 -0.0000 0.8660
vn -0.0284 0.9995 -0.0164
vn -0.0328 0.9995 -0.0000
vn -0.0284 0.9995 0.0164
vn -0.0164 0.9995 0.0284
vn -0.0000 0.9995 0.0328
vn 0.0164 0.9995 0.0284
vn 0.0284 0.9995 0.0164
vn 0.0328 0.9995 -0.0000
vn 0.0284 0.9995 -0.0164
vn 0.0164 0.9995 -0.0284
vn -0.0000 0.9995 -0.0328
vn -0.0164 0.9995 -0.0284
vn -0.8660 -0.0000 0.5000
vn -0.0000 -1.0000 -0.0000
vn -0.3562 0.9344 -0.0000
vn -0.3085 0.9344 -0.1781
vn -0.4287 0.8689 -0.2475
vn -0.4950 0.8689 -0.0000
vn -0.1781 0.9344 -0.3085
vn -0.2475 0.8689 -0.4287
vn -0.0000 0.9344 -0.3562
vn -0.0000 0.8689 -0.4950
vn 0.1781 0.9344 -0.3085
vn 0.2475 0.8689 -0.4287
vn 0.3085 0.9344 -0.1781
vn 0.4287 0.8689 -0.2475
vn 0.3562 0.9344 -0.0000
vn 0.4950 0.8689 -0.0000
vn 0.3085 0.9344 0.1781
vn 0.4287 0.8689 0.2475
vn 0.1781 0.9344 0.3085
vn 0.2475 0.8689 0.4287
vn -0.0000 0.9344 0.3562
vn -0.0000 0.8689 0.4950
vn -0.1781 0.9344 0.3085
vn -0.2475 0.8689 0.4287
vn -0.3085 0.9344 0.1781
vn -0.4287 0.8689 0.2475
vn -0.1134 0.9935 -0.0000
vn -0.0982 0.9935 -0.0567
vn -0.0567 0.9935 -0.0982
vn -0.0000 0.9935 -0.1134
vn 0.0567 0.9935 -0.0982
vn 0.0982 0.9935 -0.0567
vn 0.1134 0.9935 -0.0000
vn 0.0982 0.9935 0.0567
vn 0.0567 0.9935 0.0982
vn -0.0000 0.9935 0.1134
vn -0.0567 0.9935 0.0982
vn -0.0982 0.9935 0.0567
vn 0.3853 0.7848 0.4854
vn 0.0893 0.9792 0.1820
vn -0.0893 0.9792 0.1820
vn -0.3853 0.7848 0.4854
vn -0.0893 0.9792 -0.1820
vn -0.3853 0.7848 -0.4854
vn 0.0893 0.9792 -0.1820
vn 0.3853 0.7848 -0.4854
vn 0.9578 0.2874 -0.0000
vn -0.0000 0.1577 -0.9875
vn -0.9578 0.2874 -0.0000
vn -0.0000 0.1577 0.9875
vt 0.476776 0.038252
vt 0.476776 0.444059
vt 0.462973 0.444059
vt 0.462973 0.038252
vt 0.425263 0.444059
vt 0.425263 0.038252
vt 0.373751 0.444059
vt 0.373751 0.038252
vt 0.322238 0.444059
vt 0.322238 0.038252
vt 0.284528 0.444059
vt 0.284528 0.038252
vt 0.270726 0.444059
vt 0.270726 0.038252
vt 0.409091 0.553699
vt 0.414558 0.553699
vt 0.409091 0.553699
vt 0.394154 0.553699
vt 0.373751 0.553699
vt 0.353347 0.553699
vt 0.338411 0.553699
vt 0.332944 0.553699
vt 0.462554 0.512754
vt 0.450657 0.512754
vt 0.418153 0.512754
vt 0.373751 0.512754
vt 0.329349 0.512754
vt 0.296844 0.512754
vt 0.284947 0.512754
vt 0.441223 0.540961
vt 0.432183 0.540961
vt 0.407487 0.540961
vt 0.373751 0.540961
vt 0.340015 0.540961
vt 0.315318 0.540961
vt 0.306279 0.540961
vt 0.315318 0.540961
vt 0.335438 0.919016
vt 0.354594 0.962690
vt 0.392907 0.962690
vt 0.412063 0.919016
vt 0.412063 0.919016
vt 0.418824 0.773435
vt 0.328677 0.773435
vt 0.328677 0.846225
vt 0.418824 0.846225
s 1
f 1/1/1 26/2/1 25/3/2 3/4/2
f 3/4/2 25/3/2 27/5/3 5/6/3
f 5/6/3 27/5/3 28/7/4 7/8/4
f 7/8/4 28/7/4 29/9/5 9/10/5
f 9/10/5 29/9/5 30/11/6 11/12/6
f 11/12/6 30/11/6 31/13/7 13/14/7
f 13/14/7 31/13/7 32/11/8 15/12/8
f 15/12/8 32/11/8 33/9/9 17/10/9
f 17/10/9 33/9/9 34/7/10 19/8/10
f 19/8/10 34/7/10 35/5/11 21/6/11
f 4/15/12 2/16/13 24/17/14 22/18/15 20/19/16 18/20/17 16/21/18 14/22/19 12/21/20 10/20/21 8/19/22 6/18/23
f 21/6/11 35/5/11 36/3/24 23/4/24
f 23/4/24 36/3/24 26/2/1 1/1/1
f 1/1/25 3/4/25 5/6/25 7/8/25 9/10/25 11/12/25 13/14/25 15/12/25 17/10/25 19/8/25 21/6/25 23/4/25
f 38/23/26 37/24/27 25/3/28 26/2/29
f 37/24/27 39/25/30 27/5/31 25/3/28
f 39/25/30 40/26/32 28/7/33 27/5/31
f 40/26/32 41/27/34 29/9/35 28/7/33
f 41/27/34 42/28/36 30/11/37 29/9/35
f 42/28/36 43/29/38 31/13/39 30/11/37
f 43/29/38 44/28/40 32/11/41 31/13/39
f 44/28/40 45/27/42 33/9/43 32/11/41
f 45/27/42 46/26/44 34/7/45 33/9/43
f 46/26/44 47/25/46 35/5/47 34/7/45
f 47/25/46 48/24/48 36/3/49 35/5/47
f 48/24/48 38/23/26 26/2/29 36/3/49
f 50/30/50 49/31/51 37/24/27 38/23/26
f 49/31/51 51/32/52 39/25/30 37/24/27
f 51/32/52 52/33/53 40/26/32 39/25/30
f 52/33/53 53/34/54 41/27/34 40/26/32
f 53/34/54 54/35/55 42/28/36 41/27/34
f 54/35/55 55/36/56 43/29/38 42/28/36
f 55/36/56 56/37/57 44/28/40 43/29/38
f 56/37/57 57/34/58 45/27/42 44/28/40
f 57/34/58 58/33/59 46/26/44 45/27/42
f 58/33/59 59/32/60 47/25/46 46/26/44
f 59/32/60 60/31/61 48/24/48 47/25/46
f 60/31/61 50/30/50 38/23/26 48/24/48
f 2/16/13 4/15/12 49/31/51 50/30/50
f 4/15/12 6/18/23 51/32/52 49/31/51
f 6/18/23 8/19/22 52/33/53 51/32/52
f 8/19/22 10/20/21 53/34/54 52/33/53
f 10/20/21 12/21/20 54/35/55 53/34/54
f 12/21/20 14/22/19 55/36/56 54/35/55
f 14/22/19 16/21/18 56/37/57 55/36/56
f 16/21/18 18/20/17 57/34/58 56/37/57
f 18/20/17 20/19/16 58/33/59 57/34/58
f 20/19/16 22/18/15 59/32/60 58/33/59
f 22/18/15 24/17/14 60/31/61 59/32/60
f 24/17/14 2/16/13 50/30/50 60/31/61
f 70/38/62 62/39/63 64/40/64 71/41/65
f 71/41/65 64/40/64 68/40/66 73/42/67
f 73/42/67 68/40/66 66/39/68 75/38/69
f 75/38/69 66/39/68 62/39/63 70/38/62
f 63/43/25 67/43/25 65/44/25 61/44/25
f 68/40/66 64/40/64 62/39/63 66/39/68
f 65/44/7 76/45/70 69/45/70 61/44/7
f 76/45/70 75/38/69 70/38/62 69/45/70
f 67/43/4 74/46/71 76/45/71 65/44/4
f 74/46/71 73/42/67 75/38/69 76/45/71
f 63/43/1 72/46/72 74/46/72 67/43/1
f 72/46/72 71/41/65 73/42/67 74/46/72
f 61/44/10 69/45/73 72/46/73 63/43/10
f 69/45/73 70/38/62 71/41/65 72/46/73
