# Blender 4.2.1 LTS
# www.blender.org
o bed_aether_trench_double
v 0.622500 0.290000 0.738125
v 0.622500 0.405000 0.738125
v -0.622500 0.290000 0.738125
v -0.622500 0.405000 0.738125
v 0.622500 0.290000 -0.737500
v 0.622500 0.405000 -0.737500
v -0.622500 0.290000 -0.737500
v -0.622500 0.405000 -0.737500
v 0.000000 0.290000 0.738125
v 0.000000 0.405000 0.738125
v 0.000000 0.290000 -0.737500
v 0.000000 0.405000 -0.737500
v -0.622500 0.290000 0.000000
v -0.622500 0.405000 0.000000
v 0.622500 0.290000 0.000000
v 0.622500 0.405000 0.000000
v 0.000000 0.405000 0.000000
v 0.000000 0.290000 0.000000
v -0.487500 0.405000 0.738125
v -0.487500 0.290000 -0.737500
v -0.487500 0.290000 0.738125
v -0.487500 0.405000 -0.737500
v -0.487500 0.290000 0.000000
v -0.487500 0.405000 0.000000
v 0.487500 0.290000 0.738125
v 0.487500 0.405000 -0.737500
v 0.487500 0.405000 0.738125
v 0.487500 0.290000 -0.737500
v 0.487500 0.405000 0.000000
v 0.487500 0.290000 0.000000
v -0.622500 0.405000 -0.602500
v 0.622500 0.290000 -0.602500
v 0.000000 0.405000 -0.602500
v -0.622500 0.290000 -0.602500
v 0.622500 0.405000 -0.602500
v 0.000000 0.290000 -0.602500
v -0.487500 0.405000 -0.602500
v -0.487500 0.290000 -0.602500
v 0.487500 0.405000 -0.602500
v 0.487500 0.290000 -0.602500
v -0.622500 0.290000 0.601875
v 0.622500 0.405000 0.601875
v 0.000000 0.290000 0.601875
v -0.622500 0.405000 0.601875
v 0.622500 0.290000 0.601875
v 0.000000 0.405000 0.601875
v -0.487500 0.290000 0.601875
v -0.487500 0.405000 0.601875
v 0.487500 0.290000 0.601875
v 0.487500 0.405000 0.601875
v 0.487500 0.000000 0.738125
v 0.622500 0.000000 0.738125
v -0.622500 0.000000 0.601875
v -0.622500 0.000000 0.738125
v -0.487500 0.000000 -0.737500
v -0.622500 0.000000 -0.737500
v 0.622500 0.000000 -0.602500
v 0.622500 0.000000 -0.737500
v -0.487500 0.000000 0.738125
v -0.487500 0.000000 0.601875
v 0.487500 0.000000 -0.737500
v 0.487500 0.000000 0.601875
v -0.622500 0.000000 -0.602500
v -0.487500 0.000000 -0.602500
v 0.487500 0.000000 -0.602500
v 0.622500 0.000000 0.601875
v -0.487500 0.799500 0.738125
v -0.622500 0.799500 0.738125
v 0.622500 0.799500 0.601875
v 0.622500 0.799500 0.738125
v 0.487500 0.799500 0.738125
v -0.622500 0.799500 0.601875
v -0.487500 0.799500 0.601875
v 0.487500 0.799500 0.601875
v 0.622500 0.700000 0.738125
v 0.487500 0.700000 0.738125
v 0.622500 0.700000 0.601875
v 0.487500 0.700000 0.601875
v -0.487500 0.700000 0.738125
v -0.622500 0.700000 0.738125
v -0.622500 0.700000 0.601875
v -0.487500 0.700000 0.601875
v 0.000000 0.799500 0.601875
v 0.000000 0.799500 0.738125
v 0.000000 0.700000 0.738125
v 0.000000 0.700000 0.601875
v -0.487500 0.405000 0.626875
v 0.000000 0.560500 0.629125
v 0.000000 0.560500 0.710875
v 0.000000 0.659500 0.710875
v 0.000000 0.659500 0.629125
v -0.487500 0.560500 0.629125
v -0.487500 0.560500 0.710875
v 0.487500 0.560500 0.629125
v 0.487500 0.560500 0.710875
v 0.487500 0.659500 0.629125
v -0.487500 0.659500 0.629125
v 0.487500 0.659500 0.710875
v -0.487500 0.659500 0.710875
v -0.037500 0.400000 0.550000
v -0.188437 0.530000 0.463750
v -0.562500 0.400000 0.550000
v -0.411563 0.530000 0.463750
v -0.037500 0.400000 0.250000
v -0.188437 0.530000 0.336250
v -0.562500 0.400000 0.250000
v -0.411562 0.530000 0.336250
v -0.037500 0.450000 0.550000
v -0.076875 0.500000 0.527500
v -0.523125 0.500000 0.527500
v -0.562500 0.450000 0.550000
v -0.523125 0.500000 0.272500
v -0.562500 0.450000 0.250000
v -0.076875 0.500000 0.272500
v -0.037500 0.450000 0.250000
v 0.625000 0.200000 0.200000
v 0.565000 0.450000 0.200000
v -0.625000 0.200000 0.200000
v -0.565000 0.450000 0.200000
v 0.625000 0.200000 -0.750000
v 0.565000 0.450000 -0.690000
v -0.625000 0.200000 -0.750000
v -0.565000 0.450000 -0.690000
v 0.623000 0.410000 0.200000
v -0.623000 0.410000 0.200000
v -0.623000 0.410000 -0.738000
v 0.623000 0.410000 -0.738000
v 0.625000 0.347000 0.200000
v -0.625000 0.347000 0.200000
v -0.625000 0.347000 -0.750000
v 0.625000 0.347000 -0.750000
v 0.000000 0.132500 -0.710500
v 0.000000 0.247500 -0.710500
v -0.595500 0.132500 0.000000
v -0.595500 0.247500 0.000000
v 0.595500 0.132500 0.000000
v 0.595500 0.247500 0.000000
v -0.487500 0.132500 -0.710500
v -0.487500 0.247500 -0.710500
v -0.514500 0.132500 0.000000
v -0.514500 0.247500 0.000000
v 0.487500 0.247500 -0.710500
v 0.487500 0.132500 -0.710500
v 0.514500 0.247500 0.000000
v 0.514500 0.132500 0.000000
v -0.595500 0.247500 -0.602500
v 0.595500 0.132500 -0.602500
v 0.000000 0.247500 -0.629500
v -0.595500 0.132500 -0.602500
v 0.595500 0.247500 -0.602500
v 0.000000 0.132500 -0.629500
v -0.514500 0.247500 -0.629500
v -0.514500 0.132500 -0.629500
v 0.514500 0.247500 -0.629500
v 0.514500 0.132500 -0.629500
v -0.595500 0.132500 0.601875
v 0.595500 0.247500 0.601875
v -0.595500 0.247500 0.601875
v 0.595500 0.132500 0.601875
v -0.514500 0.132500 0.601875
v -0.514500 0.247500 0.601875
v 0.514500 0.132500 0.601875
v 0.514500 0.247500 0.601875
v 0.000000 0.132500 0.629125
v 0.000000 0.132500 0.710875
v 0.000000 0.247500 0.710875
v 0.000000 0.247500 0.629125
v -0.487500 0.132500 0.629125
v -0.487500 0.132500 0.710875
v 0.487500 0.132500 0.629125
v 0.487500 0.132500 0.710875
v 0.487500 0.247500 0.629125
v -0.487500 0.247500 0.629125
v 0.487500 0.247500 0.710875
v -0.487500 0.247500 0.710875
v 0.562500 0.400000 0.550000
v 0.411563 0.530000 0.463750
v 0.037500 0.400000 0.550000
v 0.188438 0.530000 0.463750
v 0.562500 0.400000 0.250000
v 0.411563 0.530000 0.336250
v 0.037500 0.400000 0.250000
v 0.188438 0.530000 0.336250
v 0.562500 0.450000 0.550000
v 0.523125 0.500000 0.527500
v 0.076875 0.500000 0.527500
v 0.037500 0.450000 0.550000
v 0.076875 0.500000 0.272500
v 0.037500 0.450000 0.250000
v 0.523125 0.500000 0.272500
v 0.562500 0.450000 0.250000
vn -0.0000 -0.0000 1.0000
vn -1.0000 -0.0000 -0.0000
vn -0.0000 -0.0000 -1.0000
vn 1.0000 -0.0000 -0.0000
vn -0.0000 1.0000 -0.0000
vn -0.0000 -1.0000 -0.0000
vn 0.3853 0.7848 0.4854
vn 0.0893 0.9792 0.1820
vn -0.0893 0.9792 0.1820
vn -0.3853 0.7848 0.4854
vn -0.0893 0.9792 -0.1820
vn -0.3853 0.7848 -0.4854
vn 0.0893 0.9792 -0.1820
vn 0.3853 0.7848 -0.4854
vn 0.9578 0.2874 -0.0000
vn -0.0000 0.1577 -0.9875
vn -0.9578 0.2874 -0.0000
vn -0.0000 0.1577 0.9875
vn -0.9999 0.0159 -0.0000
vn -0.9995 0.0317 -0.0000
vn -0.9999 0.0149 -0.0000
vn -0.0000 0.0930 -0.9957
vn -0.0000 0.4055 -0.9141
vn 0.9999 0.0149 -0.0000
vn 0.9995 0.0317 -0.0000
vn 0.9999 0.0159 -0.0000
vn -0.2244 0.9362 -0.2705
vn -0.2973 0.9548 -0.0000
vn 0.2973 0.9548 -0.0000
vn 0.2244 0.9362 -0.2705
vn -0.5677 0.8232 -0.0000
vn 0.5677 0.8232 -0.0000
vt 0.191577 0.421700
vt 0.191577 0.500508
vt 0.221712 0.500508
vt 0.221712 0.421700
vt 0.050945 0.421700
vt 0.050945 0.500508
vt 0.020809 0.500508
vt 0.020809 0.421700
vt 0.020809 0.027661
vt 0.050945 0.894547
vt 0.020809 0.894547
vt 0.020809 0.973355
vt 0.050945 0.973355
vt 0.121261 0.500508
vt 0.121261 0.421700
vt 0.050945 0.027661
vt 0.221712 0.894547
vt 0.191577 0.894547
vt 0.191577 0.973355
vt 0.221712 0.973355
vt 0.191577 0.027661
vt 0.221712 0.027661
vt 0.121261 0.973355
vt 0.121261 0.894547
vt 0.276204 0.856395
vt 0.276204 0.977424
vt 0.471259 0.977424
vt 0.471259 0.856395
vt 0.471258 0.856395
vt 0.276204 0.856395
vt 0.471259 0.614338
vt 0.276204 0.614338
vt 0.276204 0.735367
vt 0.276204 0.735367
vt 0.471259 0.735367
vt 0.471259 0.735367
vt 0.271082 0.581327
vt 0.271082 0.703014
vt 0.469623 0.703014
vt 0.469623 0.581327
vt 0.469623 0.297390
vt 0.271082 0.297390
vt 0.454733 0.703014
vt 0.454733 0.703014
vt 0.285972 0.703014
vt 0.215227 0.381422
vt 0.206868 0.381422
vt 0.125595 0.381422
vt 0.206868 0.417028
vt 0.125595 0.417028
vt 0.035963 0.417028
vt 0.010884 0.417028
vt 0.035963 0.381422
vt 0.010884 0.381422
vt 0.240306 0.381422
vt 0.240306 0.417028
vt 0.215227 0.417028
vt 0.044322 0.381422
vt 0.044322 0.417028
vt 0.044322 0.417028
vt 0.125595 0.417028
vt 0.206868 0.417028
s 1
f 21/1/1 19/2/1 4/3/1 3/4/1
f 34/4/2 31/3/2 8/3/2 7/4/2
f 28/5/3 26/6/3 6/7/3 5/8/3
f 45/8/4 42/7/4 2/7/4 1/8/4
f 5/8/4 32/8/4 57/9/4 58/9/4
f 76/10/1 75/11/1 70/12/1 71/13/1
f 48/2/5 19/2/5 10/14/5 46/14/5
f 38/1/6 20/1/6 11/15/6 36/15/6
f 20/1/3 22/2/3 12/14/3 11/15/3
f 25/5/1 27/6/1 10/14/1 9/15/1
f 47/1/6 23/1/6 18/15/6 43/15/6
f 37/2/5 24/2/5 17/14/5 33/14/5
f 39/6/5 29/6/5 16/7/5 35/7/5
f 49/5/6 30/5/6 15/8/6 45/8/6
f 32/8/4 35/7/4 16/7/4 15/8/4
f 41/4/2 44/3/2 14/3/2 13/4/2
f 31/3/5 14/3/5 24/2/5 37/2/5
f 41/4/6 13/4/6 23/1/6 47/1/6
f 7/4/3 8/3/3 22/2/3 20/1/3
f 49/5/3 45/8/3 66/9/3 62/16/3
f 80/17/1 79/18/1 67/19/1 68/20/1
f 9/15/1 10/14/1 19/2/1 21/1/1
f 43/15/6 18/15/6 30/5/6 49/5/6
f 33/14/5 17/14/5 29/6/5 39/6/5
f 1/8/1 2/7/1 27/6/1 25/5/1
f 46/14/5 10/14/5 27/6/5 50/6/5
f 36/15/6 11/15/6 28/5/6 40/5/6
f 11/15/3 12/14/3 26/6/3 28/5/3
f 18/15/6 36/15/6 40/5/6 30/5/6
f 12/14/5 33/14/5 39/6/5 26/6/5
f 13/4/6 34/4/6 38/1/6 23/1/6
f 8/3/5 31/3/5 37/2/5 22/2/5
f 5/8/4 6/7/4 35/7/4 32/8/4
f 26/6/5 39/6/5 35/7/5 6/7/5
f 22/2/5 37/2/5 33/14/5 12/14/5
f 23/1/6 38/1/6 36/15/6 18/15/6
f 30/5/6 40/5/6 32/8/6 15/8/6
f 13/4/2 14/3/2 31/3/2 34/4/2
f 17/14/5 46/14/5 50/6/5 29/6/5
f 9/15/6 43/15/6 49/5/6 25/5/6
f 14/3/5 44/3/5 48/2/5 24/2/5
f 47/1/4 21/1/4 59/21/4 60/21/4
f 3/4/2 4/3/2 44/3/2 41/4/2
f 38/1/1 34/4/1 63/22/1 64/21/1
f 21/1/6 47/1/6 43/15/6 9/15/6
f 24/2/5 48/2/5 46/14/5 17/14/5
f 29/6/5 50/6/5 42/7/5 16/7/5
f 15/8/4 16/7/4 42/7/4 45/8/4
f 65/16/6 61/16/6 58/9/6 57/9/6
f 63/22/6 56/22/6 55/21/6 64/21/6
f 54/22/6 53/22/6 60/21/6 59/21/6
f 51/16/6 62/16/6 66/9/6 52/9/6
f 28/5/3 5/8/3 58/9/3 61/16/3
f 20/1/4 38/1/4 64/21/4 55/21/4
f 3/4/2 41/4/2 53/22/2 54/22/2
f 21/1/1 3/4/1 54/22/1 59/21/1
f 25/5/2 49/5/2 62/16/2 51/16/2
f 40/5/2 28/5/2 61/16/2 65/16/2
f 45/8/4 1/8/4 52/9/4 66/9/4
f 7/4/3 20/1/3 55/21/3 56/22/3
f 34/4/2 7/4/2 56/22/2 63/22/2
f 1/8/1 25/5/1 51/16/1 52/9/1
f 32/8/1 40/5/1 65/16/1 57/9/1
f 41/4/3 47/1/3 60/21/3 53/22/3
f 74/13/5 71/13/5 70/12/5 69/12/5
f 72/20/5 68/20/5 67/19/5 73/19/5
f 81/17/2 80/17/2 68/20/2 72/20/2
f 82/18/3 81/17/3 72/20/3 73/19/3
f 75/11/4 77/11/4 69/12/4 70/12/4
f 71/13/5 74/13/5 83/23/5 84/23/5
f 77/11/3 78/10/3 74/13/3 69/12/3
f 82/18/3 73/19/3 83/23/3 86/24/3
f 42/7/3 50/6/3 78/10/3 77/11/3
f 50/6/2 27/6/2 76/10/2 78/10/2
f 2/7/4 42/7/4 77/11/4 75/11/4
f 27/6/1 2/7/1 75/11/1 76/10/1
f 19/2/4 48/2/4 82/18/4 79/18/4
f 48/2/3 44/3/3 81/17/3 82/18/3
f 44/3/2 4/3/2 80/17/2 81/17/2
f 4/3/1 19/2/1 79/18/1 80/17/1
f 78/10/6 76/10/6 85/24/6 86/24/6
f 74/13/3 78/10/3 86/24/3 83/23/3
f 67/19/1 79/18/1 85/24/1 84/23/1
f 79/18/6 82/18/6 86/24/6 85/24/6
f 76/10/1 71/13/1 84/23/1 85/24/1
f 73/19/5 67/19/5 84/23/5 83/23/5
f 95/10/1 98/13/1 90/23/1 89/24/1
f 94/10/6 95/10/6 89/24/6 88/24/6
f 93/18/6 92/18/6 88/24/6 89/24/6
f 96/13/3 94/10/3 88/24/3 91/23/3
f 92/18/3 97/19/3 91/23/3 88/24/3
f 98/13/5 96/13/5 91/23/5 90/23/5
f 97/19/5 99/19/5 90/23/5 91/23/5
f 99/19/1 93/18/1 89/24/1 90/23/1
f 109/25/7 101/26/8 103/27/9 110/28/10
f 110/28/10 103/27/9 107/27/11 112/29/12
f 112/29/12 107/27/11 105/26/13 114/30/14
f 114/30/14 105/26/13 101/26/8 109/25/7
f 102/31/6 106/31/6 104/32/6 100/32/6
f 107/27/11 103/27/9 101/26/8 105/26/13
f 104/32/4 115/33/15 108/34/15 100/32/4
f 115/33/15 114/30/14 109/25/7 108/34/15
f 106/31/3 113/35/16 115/33/16 104/32/3
f 113/35/16 112/29/12 114/30/14 115/33/16
f 102/31/2 111/36/17 113/35/17 106/31/2
f 111/36/17 110/28/10 112/29/12 113/35/17
f 100/32/1 108/34/18 111/36/18 102/31/1
f 108/34/18 109/25/7 110/28/10 111/36/18
f 128/37/1 124/38/1 125/39/1 129/40/1
f 129/40/19 125/39/20 126/39/20 130/40/21
f 130/40/22 126/39/23 127/38/23 131/37/22
f 131/37/24 127/38/25 124/38/25 128/37/26
f 118/41/6 122/41/6 120/42/6 116/42/6
f 123/43/27 119/44/28 117/45/29 121/45/30
f 117/45/1 119/44/1 125/39/1 124/38/1
f 119/44/28 123/43/27 126/39/31 125/39/31
f 123/43/27 121/45/30 127/38/23 126/39/23
f 121/45/30 117/45/29 124/38/32 127/38/32
f 120/42/4 131/37/24 128/37/26 116/42/4
f 122/41/3 130/40/22 131/37/22 120/42/3
f 118/41/2 129/40/19 130/40/21 122/41/2
f 116/42/1 128/37/1 129/40/1 118/41/1
f 153/46/6 138/47/6 132/48/6 151/48/6
f 138/47/3 139/49/3 133/50/3 132/48/3
f 154/51/5 144/51/5 137/52/5 150/52/5
f 162/53/6 145/53/6 136/54/6 159/54/6
f 147/54/4 150/52/4 137/52/4 136/54/4
f 156/55/2 158/56/2 135/56/2 134/55/2
f 146/56/5 135/56/5 141/57/5 152/57/5
f 156/55/6 134/55/6 140/46/6 160/46/6
f 151/48/6 132/48/6 143/58/6 155/53/6
f 132/48/3 133/50/3 142/59/3 143/58/3
f 133/50/5 148/50/5 154/51/5 142/59/5
f 134/55/6 149/55/6 153/46/6 140/46/6
f 139/49/5 152/57/5 148/50/5 133/50/5
f 145/53/6 155/53/6 147/54/6 136/54/6
f 134/55/2 135/56/2 146/56/2 149/55/2
f 135/56/5 158/56/5 161/57/5 141/57/5
f 144/51/5 163/51/5 157/52/5 137/52/5
f 136/54/4 137/52/4 157/52/4 159/54/4
f 171/58/1 174/60/1 166/61/1 165/48/1
f 170/58/6 171/58/6 165/48/6 164/48/6
f 169/47/6 168/47/6 164/48/6 165/48/6
f 172/60/3 170/58/3 164/48/3 167/61/3
f 168/47/3 173/62/3 167/61/3 164/48/3
f 174/60/5 172/60/5 167/61/5 166/61/5
f 173/62/5 175/62/5 166/61/5 167/61/5
f 175/62/1 169/47/1 165/48/1 166/61/1
f 185/25/7 177/26/8 179/27/9 186/28/10
f 186/28/10 179/27/9 183/27/11 188/29/12
f 188/29/12 183/27/11 181/26/13 190/30/14
f 190/30/14 181/26/13 177/26/8 185/25/7
f 178/31/6 182/31/6 180/32/6 176/32/6
f 183/27/11 179/27/9 177/26/8 181/26/13
f 180/32/4 191/33/15 184/34/15 176/32/4
f 191/33/15 190/30/14 185/25/7 184/34/15
f 182/31/3 189/35/16 191/33/16 180/32/3
f 189/35/16 188/29/12 190/30/14 191/33/16
f 178/31/2 187/36/17 189/35/17 182/31/2
f 187/36/17 186/28/10 188/29/12 189/35/17
f 176/32/1 184/34/18 187/36/18 178/31/1
f 184/34/18 185/25/7 186/28/10 187/36/18
