# Blender 4.2.1 LTS
# www.blender.org
o bed_radiant_plateau_4poster
v 0.622500 0.290000 0.738125
v 0.622500 0.405000 0.738125
v -0.622500 0.290000 0.738125
v -0.622500 0.405000 0.738125
v 0.622500 0.290000 -0.885000
v 0.622500 0.405000 -0.885000
v -0.622500 0.290000 -0.885000
v -0.622500 0.405000 -0.885000
v 0.000000 0.290000 0.738125
v 0.000000 0.405000 0.738125
v 0.000000 0.290000 -0.885000
v 0.000000 0.405000 -0.885000
v -0.622500 0.290000 0.000000
v -0.622500 0.405000 0.000000
v 0.622500 0.290000 0.000000
v 0.622500 0.405000 0.000000
v 0.000000 0.405000 0.000000
v 0.000000 0.290000 0.000000
v -0.487500 0.405000 0.738125
v -0.487500 0.290000 -0.885000
v -0.487500 0.290000 0.738125
v -0.487500 0.405000 -0.885000
v -0.487500 0.290000 0.000000
v -0.487500 0.405000 0.000000
v 0.487500 0.290000 0.738125
v 0.487500 0.405000 -0.885000
v 0.487500 0.405000 0.738125
v 0.487500 0.290000 -0.885000
v 0.487500 0.405000 0.000000
v 0.487500 0.290000 0.000000
v -0.622500 0.405000 -0.750000
v 0.622500 0.290000 -0.750000
v 0.000000 0.405000 -0.750000
v -0.622500 0.290000 -0.750000
v 0.622500 0.405000 -0.750000
v 0.000000 0.290000 -0.750000
v -0.487500 0.405000 -0.750000
v -0.487500 0.290000 -0.750000
v 0.487500 0.405000 -0.750000
v 0.487500 0.290000 -0.750000
v -0.622500 0.290000 0.601875
v 0.622500 0.405000 0.601875
v 0.000000 0.290000 0.601875
v -0.622500 0.405000 0.601875
v 0.622500 0.290000 0.601875
v 0.000000 0.455000 0.601875
v -0.487500 0.290000 0.601875
v -0.437500 0.455000 0.601875
v 0.487500 0.290000 0.601875
v 0.437500 0.455000 0.601875
v 0.622500 0.000000 0.738125
v -0.622500 0.000000 0.601875
v -0.622500 0.000000 0.738125
v -0.487500 0.000000 -0.885000
v -0.622500 0.000000 -0.885000
v 0.622500 0.000000 -0.750000
v 0.622500 0.000000 -0.885000
v -0.487500 0.000000 0.738125
v 0.487500 0.000000 -0.885000
v 0.487500 0.000000 0.601875
v -0.622500 0.000000 -0.750000
v -0.487500 0.000000 -0.750000
v 0.487500 0.000000 -0.750000
v 0.622500 0.000000 0.601875
v -0.487500 1.499750 0.738125
v -0.622500 1.499750 0.738125
v 0.622500 1.499750 0.601875
v 0.622500 1.499750 0.738125
v 0.487500 1.499750 0.738125
v -0.622500 1.499750 0.601875
v -0.487500 1.499750 0.601875
v 0.487500 1.499750 0.601875
v 0.622500 0.700000 0.738125
v 0.622500 0.700000 0.601875
v -0.622500 0.700000 0.738125
v -0.622500 0.700000 0.601875
v 0.000000 1.499750 0.601875
v 0.000000 1.499750 0.738125
v -0.487500 0.405000 0.626875
v -0.037500 0.400000 0.550000
v -0.188437 0.530000 0.463750
v -0.562500 0.400000 0.550000
v -0.411563 0.530000 0.463750
v -0.037500 0.400000 0.250000
v -0.188437 0.530000 0.336250
v -0.562500 0.400000 0.250000
v -0.411562 0.530000 0.336250
v -0.037500 0.450000 0.550000
v -0.076875 0.500000 0.527500
v -0.523125 0.500000 0.527500
v -0.562500 0.450000 0.550000
v -0.523125 0.500000 0.272500
v -0.562500 0.450000 0.250000
v -0.076875 0.500000 0.272500
v -0.037500 0.450000 0.250000
v 0.625000 0.200000 0.200000
v 0.565000 0.450000 0.200000
v -0.625000 0.200000 0.200000
v -0.565000 0.450000 0.200000
v 0.625000 0.200000 -0.750000
v 0.565000 0.450000 -0.690000
v -0.625000 0.200000 -0.750000
v -0.565000 0.450000 -0.690000
v 0.623000 0.410000 0.200000
v -0.623000 0.410000 0.200000
v -0.623000 0.410000 -0.738000
v 0.623000 0.410000 -0.738000
v 0.625000 0.347000 0.200000
v -0.625000 0.347000 0.200000
v -0.625000 0.347000 -0.750000
v 0.625000 0.347000 -0.750000
v 0.000000 0.132500 -0.858000
v 0.000000 0.247500 -0.858000
v -0.595500 0.132500 0.000000
v -0.595500 0.247500 0.000000
v 0.595500 0.132500 0.000000
v 0.595500 0.247500 0.000000
v -0.487500 0.132500 -0.858000
v -0.487500 0.247500 -0.858000
v -0.514500 0.132500 0.000000
v -0.514500 0.247500 0.000000
v 0.487500 0.247500 -0.858000
v 0.487500 0.132500 -0.858000
v 0.514500 0.247500 0.000000
v 0.514500 0.132500 0.000000
v -0.595500 0.247500 -0.752500
v 0.595500 0.132500 -0.752500
v 0.000000 0.247500 -0.777000
v -0.595500 0.132500 -0.752500
v 0.595500 0.247500 -0.752500
v 0.000000 0.132500 -0.777000
v -0.514500 0.247500 -0.777000
v -0.514500 0.132500 -0.777000
v 0.514500 0.247500 -0.777000
v 0.514500 0.132500 -0.777000
v -0.595500 0.132500 0.601875
v 0.595500 0.247500 0.601875
v -0.595500 0.247500 0.601875
v 0.595500 0.132500 0.601875
v -0.514500 0.132500 0.601875
v -0.514500 0.247500 0.601875
v 0.514500 0.132500 0.601875
v 0.514500 0.247500 0.601875
v 0.562500 0.400000 0.550000
v 0.411563 0.530000 0.463750
v 0.037500 0.400000 0.550000
v 0.188438 0.530000 0.463750
v 0.562500 0.400000 0.250000
v 0.411563 0.530000 0.336250
v 0.037500 0.400000 0.250000
v 0.188438 0.530000 0.336250
v 0.562500 0.450000 0.550000
v 0.523125 0.500000 0.527500
v 0.076875 0.500000 0.527500
v 0.037500 0.450000 0.550000
v 0.076875 0.500000 0.272500
v 0.037500 0.450000 0.250000
v 0.523125 0.500000 0.272500
v 0.562500 0.450000 0.250000
v 0.000000 0.000000 0.738125
v 0.000000 0.000000 0.601875
v -0.487500 0.000000 0.601875
v 0.487500 0.000000 0.738125
v -0.622500 0.290000 -0.700000
v 0.622500 0.405000 -0.700000
v 0.000000 0.290000 -0.700000
v -0.487500 0.290000 -0.700000
v 0.487500 0.290000 -0.700000
v -0.622500 0.405000 -0.700000
v 0.622500 0.290000 -0.700000
v 0.000000 0.405000 -0.700000
v -0.487500 0.405000 -0.700000
v 0.487500 0.405000 -0.700000
v -0.622500 1.500250 -0.750000
v -0.622500 1.500250 -0.885000
v 0.487500 1.500250 -0.885000
v 0.622500 1.500250 -0.885000
v -0.487500 1.500250 -0.885000
v -0.487500 1.500250 -0.750000
v 0.487500 1.500250 -0.750000
v 0.622500 1.500250 -0.750000
v 0.622500 1.360000 0.738125
v 0.622500 1.360000 0.601875
v -0.622500 1.360000 0.738125
v -0.622500 1.360000 0.601875
v 0.000000 1.360000 0.601875
v 0.000000 1.360000 0.738125
v -0.487500 1.360000 0.738125
v -0.437500 1.310000 0.601875
v 0.487500 1.360000 0.738125
v 0.437500 1.310000 0.601875
v 0.622500 1.360000 -0.885000
v -0.622500 1.360000 -0.885000
v -0.487500 1.360000 -0.885000
v -0.487500 1.360000 -0.750000
v 0.487500 1.360000 -0.885000
v -0.622500 1.499750 -0.750000
v -0.487500 1.499750 -0.750000
v 0.487500 1.499750 -0.750000
v 0.622500 1.499750 -0.750000
v 0.622500 1.360000 -0.750000
v 0.000000 1.499750 -0.750000
v -0.622500 1.360000 -0.750000
v 0.487500 1.360000 -0.750000
v 0.000000 1.500250 -0.750000
v 0.000000 1.500250 -0.885000
v 0.000000 1.360000 -0.750000
v 0.000000 1.360000 -0.885000
v 0.000000 0.405000 0.601875
v 0.487500 0.405000 0.601875
v -0.487500 0.405000 0.601875
v -0.487500 1.360000 0.601875
v 0.487500 1.360000 0.601875
v 0.000000 1.310000 0.601875
v 0.560000 1.360000 0.601875
v -0.560000 1.360000 0.601875
v -0.487500 1.360000 -0.820000
v -0.487500 1.360000 -0.750000
v 0.487500 1.360000 -0.820000
v 0.560000 1.360000 -0.750000
v -0.560000 1.360000 -0.750000
v 0.487500 1.360000 -0.750000
v 0.000000 1.360000 -0.750000
v 0.000000 1.360000 -0.820000
v -0.487500 1.360000 0.601875
v 0.487500 1.360000 0.601875
v 0.560000 1.360000 -0.412031
v 0.560000 1.360000 -0.074062
v 0.560000 1.360000 0.263906
v 0.487500 1.360000 0.263906
v 0.487500 1.360000 -0.074062
v 0.487500 1.360000 -0.412031
v -0.560000 1.360000 0.263906
v -0.560000 1.360000 -0.074062
v -0.560000 1.360000 -0.412031
v -0.487500 1.360000 -0.412031
v -0.487500 1.360000 -0.074062
v -0.487500 1.360000 0.263906
v 0.243750 1.360000 -0.820000
v 0.243750 1.360000 -0.750000
v -0.243750 1.360000 -0.750000
v -0.243750 1.360000 -0.820000
v 0.560000 0.800000 0.601875
v -0.560000 0.800000 0.601875
v -0.487500 0.800000 -0.820000
v -0.487500 0.800000 -0.750000
v 0.487500 0.800000 -0.820000
v 0.560000 0.800000 -0.750000
v -0.560000 0.800000 -0.750000
v 0.487500 0.800000 -0.750000
v 0.000000 1.250000 -0.750000
v 0.000000 1.250000 -0.820000
v -0.487500 0.800000 0.601875
v 0.487500 0.800000 0.601875
v 0.560000 1.070000 -0.496523
v 0.560000 1.250000 -0.074062
v 0.560000 1.070000 0.348399
v 0.487500 1.070000 0.348399
v 0.487500 1.250000 -0.074062
v 0.487500 1.070000 -0.496523
v -0.560000 1.070000 0.348399
v -0.560000 1.250000 -0.074062
v -0.560000 1.070000 -0.496523
v -0.487500 1.070000 -0.496523
v -0.487500 1.250000 -0.074062
v -0.487500 1.070000 0.348398
v 0.304688 1.070000 -0.820000
v 0.304688 1.070000 -0.750000
v -0.304688 1.070000 -0.750000
v -0.304688 1.070000 -0.820000
vn -0.0000 -0.0000 1.0000
vn -1.0000 -0.0000 -0.0000
vn -0.0000 -0.0000 -1.0000
vn 1.0000 -0.0000 -0.0000
vn -0.0000 1.0000 -0.0000
vn -0.0000 -1.0000 -0.0000
vn 0.3853 0.7848 0.4854
vn 0.0893 0.9792 0.1820
vn -0.0893 0.9792 0.1820
vn -0.3853 0.7848 0.4854
vn -0.0893 0.9792 -0.1820
vn -0.3853 0.7848 -0.4854
vn 0.0893 0.9792 -0.1820
vn 0.3853 0.7848 -0.4854
vn 0.9578 0.2874 -0.0000
vn -0.0000 0.1577 -0.9875
vn -0.9578 0.2874 -0.0000
vn -0.0000 0.1577 0.9875
vn -0.9999 0.0159 -0.0000
vn -0.9995 0.0317 -0.0000
vn -0.9999 0.0149 -0.0000
vn -0.0000 0.0930 -0.9957
vn -0.0000 0.4055 -0.9141
vn 0.9999 0.0149 -0.0000
vn 0.9995 0.0317 -0.0000
vn 0.9999 0.0159 -0.0000
vn -0.2244 0.9362 -0.2705
vn -0.2973 0.9548 -0.0000
vn 0.2973 0.9548 -0.0000
vn 0.2244 0.9362 -0.2705
vn -0.5677 0.8232 -0.0000
vn 0.5677 0.8232 -0.0000
vn -0.0000 -0.8197 0.5728
vn -0.0000 -0.6844 0.7291
vn -0.6850 -0.7285 -0.0000
vn -0.5086 -0.8610 -0.0000
vn 0.6850 -0.7285 -0.0000
vn 0.5086 -0.8610 -0.0000
vn -0.0000 -0.6844 -0.7291
vn -0.0000 -0.8197 -0.5728
vn -0.8280 -0.5607 -0.0000
vn 0.8280 -0.5607 -0.0000
vt 0.195776 0.262931
vt 0.195776 0.353875
vt 0.215957 0.353875
vt 0.215957 0.262931
vt 0.050023 0.262931
vt 0.050023 0.353875
vt 0.029841 0.353875
vt 0.029841 0.262931
vt 0.029841 0.033593
vt 0.050023 0.871862
vt 0.029841 0.871862
vt 0.029841 0.982379
vt 0.050023 0.982379
vt 0.122899 0.353875
vt 0.122899 0.262931
vt 0.050023 0.033593
vt 0.215957 0.871862
vt 0.195776 0.871862
vt 0.195776 0.982379
vt 0.215957 0.982379
vt 0.215957 0.982775
vt 0.195776 0.982775
vt 0.029841 0.982775
vt 0.195776 0.033593
vt 0.122899 0.033593
vt 0.215957 0.033593
vt 0.122899 0.982379
vt 0.029841 0.587167
vt 0.215957 0.587167
vt 0.774655 0.959894
vt 0.774655 0.817059
vt 0.875899 0.817059
vt 0.875899 0.959894
vt 0.122899 0.871862
vt 0.276204 0.856395
vt 0.276204 0.977424
vt 0.471259 0.977424
vt 0.471259 0.856395
vt 0.471258 0.856395
vt 0.276204 0.856395
vt 0.471259 0.614338
vt 0.276204 0.614338
vt 0.276204 0.735367
vt 0.276204 0.735367
vt 0.471259 0.735367
vt 0.471259 0.735367
vt 0.271082 0.581327
vt 0.271082 0.703014
vt 0.469623 0.703014
vt 0.469623 0.581327
vt 0.469623 0.297390
vt 0.271082 0.297390
vt 0.454733 0.703014
vt 0.454733 0.703014
vt 0.285972 0.703014
vt 0.183795 0.154972
vt 0.180026 0.154972
vt 0.111970 0.154972
vt 0.180026 0.257531
vt 0.111970 0.257531
vt 0.040145 0.257531
vt 0.028837 0.257531
vt 0.040145 0.154972
vt 0.028837 0.154972
vt 0.195103 0.154972
vt 0.195103 0.257531
vt 0.183795 0.257531
vt 0.043914 0.154972
vt 0.043914 0.257531
vt 0.050023 0.982775
vt 0.122899 0.982775
vt 0.977143 0.817059
vt 0.977143 0.959894
vt 0.122899 0.393416
vt 0.057497 0.393416
vt 0.188301 0.393416
vt 0.188301 0.832321
vt 0.057497 0.832321
vt 0.122899 0.832321
vt 0.455238 0.959474
vt 0.467335 0.959474
vt 0.333230 0.959474
vt 0.373899 0.959474
vt 0.280464 0.959474
vt 0.292560 0.959474
vt 0.414569 0.959474
vt 0.455238 0.897122
vt 0.467335 0.897122
vt 0.467335 0.839070
vt 0.455238 0.839070
vt 0.333230 0.897122
vt 0.373899 0.925073
vt 0.280464 0.897122
vt 0.292560 0.897122
vt 0.292560 0.839070
vt 0.280464 0.839070
vt 0.414569 0.897122
vt 0.292560 0.925073
vt 0.280464 0.925073
vt 0.467335 0.925073
vt 0.455238 0.925073
s 1
f 21/1/1 19/2/1 4/3/1 3/4/1
f 34/4/2 31/3/2 8/3/2 7/4/2
f 28/5/3 26/6/3 6/7/3 5/8/3
f 45/8/4 42/7/4 2/7/4 1/8/4
f 5/8/4 32/8/4 56/9/4 57/9/4
f 190/10/1 182/11/1 68/12/1 69/13/1
f 211/2/5 19/2/5 10/14/5 209/14/5
f 38/1/6 20/1/6 11/15/6 36/15/6
f 20/1/3 22/2/3 12/14/3 11/15/3
f 25/5/1 27/6/1 10/14/1 9/15/1
f 47/1/6 23/1/6 18/15/6 43/15/6
f 172/2/5 24/2/5 17/14/5 171/14/5
f 173/6/5 29/6/5 16/7/5 165/7/5
f 49/5/6 30/5/6 15/8/6 45/8/6
f 170/8/4 165/7/4 16/7/4 15/8/4
f 41/4/2 44/3/2 14/3/2 13/4/2
f 169/3/5 14/3/5 24/2/5 172/2/5
f 41/4/6 13/4/6 23/1/6 47/1/6
f 7/4/3 8/3/3 22/2/3 20/1/3
f 49/5/3 45/8/3 64/9/3 60/16/3
f 184/17/1 188/18/1 65/19/1 66/20/1
f 9/15/1 10/14/1 19/2/1 21/1/1
f 43/15/6 18/15/6 30/5/6 49/5/6
f 171/14/5 17/14/5 29/6/5 173/6/5
f 1/8/1 2/7/1 27/6/1 25/5/1
f 209/14/5 10/14/5 27/6/5 210/6/5
f 36/15/6 11/15/6 28/5/6 40/5/6
f 11/15/3 12/14/3 26/6/3 28/5/3
f 12/14/5 33/14/5 39/6/5 26/6/5
f 194/18/3 193/17/3 175/21/3 178/22/3
f 5/8/4 6/7/4 35/7/4 32/8/4
f 201/11/4 192/11/4 177/23/4 181/23/4
f 22/2/5 37/2/5 33/14/5 12/14/5
f 17/14/5 209/14/5 210/6/5 29/6/5
f 9/15/1 21/1/1 58/24/1 160/25/1
f 14/3/5 44/3/5 211/2/5 24/2/5
f 47/1/4 21/1/4 58/24/4 162/24/4
f 3/4/2 4/3/2 44/3/2 41/4/2
f 38/1/1 34/4/1 61/26/1 62/24/1
f 25/5/1 9/15/1 160/25/1 163/16/1
f 24/2/5 211/2/5 209/14/5 17/14/5
f 29/6/5 210/6/5 42/7/5 16/7/5
f 15/8/4 16/7/4 42/7/4 45/8/4
f 63/16/6 59/16/6 57/9/6 56/9/6
f 61/26/6 55/26/6 54/24/6 62/24/6
f 53/26/6 52/26/6 162/24/6 58/24/6
f 163/16/6 60/16/6 64/9/6 51/9/6
f 28/5/3 5/8/3 57/9/3 59/16/3
f 20/1/4 38/1/4 62/24/4 54/24/4
f 3/4/2 41/4/2 52/26/2 53/26/2
f 21/1/1 3/4/1 53/26/1 58/24/1
f 25/5/2 49/5/2 60/16/2 163/16/2
f 40/5/2 28/5/2 59/16/2 63/16/2
f 45/8/4 1/8/4 51/9/4 64/9/4
f 7/4/3 20/1/3 54/24/3 55/26/3
f 34/4/2 7/4/2 55/26/2 61/26/2
f 1/8/1 25/5/1 163/16/1 51/9/1
f 32/8/1 40/5/1 63/16/1 56/9/1
f 41/4/3 47/1/3 162/24/3 52/26/3
f 72/13/5 69/13/5 68/12/5 67/12/5
f 70/20/5 66/20/5 65/19/5 71/19/5
f 185/17/2 184/17/2 66/20/2 70/20/2
f 185/17/2 70/20/2 197/20/2 203/17/2
f 182/11/4 183/11/4 67/12/4 68/12/4
f 69/13/5 72/13/5 77/27/5 78/27/5
f 212/18/6 185/17/6 203/17/6 195/18/6
f 70/20/5 71/19/5 198/19/5 197/20/5
f 42/7/3 210/6/3 74/28/3
f 2/7/4 42/7/4 74/28/4 73/28/4
f 27/6/1 2/7/1 73/28/1
f 211/2/3 44/3/3 76/29/3
f 44/3/2 4/3/2 75/29/2 76/29/2
f 4/3/1 19/2/1 75/29/1
f 191/30/3 50/31/3 46/32/3 214/33/3
f 188/18/1 19/2/1 10/14/1 187/34/1
f 190/10/1 69/13/1 78/27/1 187/34/1
f 71/19/5 65/19/5 78/27/5 77/27/5
f 89/35/7 81/36/8 83/37/9 90/38/10
f 90/38/10 83/37/9 87/37/11 92/39/12
f 92/39/12 87/37/11 85/36/13 94/40/14
f 94/40/14 85/36/13 81/36/8 89/35/7
f 82/41/6 86/41/6 84/42/6 80/42/6
f 87/37/11 83/37/9 81/36/8 85/36/13
f 84/42/4 95/43/15 88/44/15 80/42/4
f 95/43/15 94/40/14 89/35/7 88/44/15
f 86/41/3 93/45/16 95/43/16 84/42/3
f 93/45/16 92/39/12 94/40/14 95/43/16
f 82/41/2 91/46/17 93/45/17 86/41/2
f 91/46/17 90/38/10 92/39/12 93/45/17
f 80/42/1 88/44/18 91/46/18 82/41/1
f 88/44/18 89/35/7 90/38/10 91/46/18
f 108/47/1 104/48/1 105/49/1 109/50/1
f 109/50/19 105/49/20 106/49/20 110/50/21
f 110/50/22 106/49/23 107/48/23 111/47/22
f 111/47/24 107/48/25 104/48/25 108/47/26
f 98/51/6 102/51/6 100/52/6 96/52/6
f 103/53/27 99/54/28 97/55/29 101/55/30
f 97/55/1 99/54/1 105/49/1 104/48/1
f 99/54/28 103/53/27 106/49/31 105/49/31
f 103/53/27 101/55/30 107/48/23 106/49/23
f 101/55/30 97/55/29 104/48/32 107/48/32
f 100/52/4 111/47/24 108/47/26 96/52/4
f 102/51/3 110/50/22 111/47/22 100/52/3
f 98/51/2 109/50/19 110/50/21 102/51/2
f 96/52/1 108/47/1 109/50/1 98/51/1
f 133/56/6 118/57/6 112/58/6 131/58/6
f 118/57/3 119/59/3 113/60/3 112/58/3
f 134/61/5 124/61/5 117/62/5 130/62/5
f 142/63/6 125/63/6 116/64/6 139/64/6
f 127/64/4 130/62/4 117/62/4 116/64/4
f 136/65/2 138/66/2 115/66/2 114/65/2
f 126/66/5 115/66/5 121/67/5 132/67/5
f 136/65/6 114/65/6 120/56/6 140/56/6
f 131/58/6 112/58/6 123/68/6 135/63/6
f 112/58/3 113/60/3 122/69/3 123/68/3
f 113/60/5 128/60/5 134/61/5 122/69/5
f 114/65/6 129/65/6 133/56/6 120/56/6
f 119/59/5 132/67/5 128/60/5 113/60/5
f 125/63/6 135/63/6 127/64/6 116/64/6
f 114/65/2 115/66/2 126/66/2 129/65/2
f 115/66/5 138/66/5 141/67/5 121/67/5
f 124/61/5 143/61/5 137/62/5 117/62/5
f 116/64/4 117/62/4 137/62/4 139/64/4
f 153/35/7 145/36/8 147/37/9 154/38/10
f 154/38/10 147/37/9 151/37/11 156/39/12
f 156/39/12 151/37/11 149/36/13 158/40/14
f 158/40/14 149/36/13 145/36/8 153/35/7
f 146/41/6 150/41/6 148/42/6 144/42/6
f 151/37/11 147/37/9 145/36/8 149/36/13
f 148/42/4 159/43/15 152/44/15 144/42/4
f 159/43/15 158/40/14 153/35/7 152/44/15
f 150/41/3 157/45/16 159/43/16 148/42/3
f 157/45/16 156/39/12 158/40/14 159/43/16
f 146/41/2 155/46/17 157/45/17 150/41/2
f 155/46/17 154/38/10 156/39/12 157/45/17
f 144/42/1 152/44/18 155/46/18 146/41/1
f 152/44/18 153/35/7 154/38/10 155/46/18
f 160/25/6 161/25/6 60/16/6 163/16/6
f 58/24/6 162/24/6 161/25/6 160/25/6
f 43/15/3 49/5/3 60/16/3 161/25/3
f 47/1/3 43/15/3 161/25/3 162/24/3
f 30/5/6 168/5/6 170/8/6 15/8/6
f 18/15/6 166/15/6 168/5/6 30/5/6
f 23/1/6 167/1/6 166/15/6 18/15/6
f 13/4/6 164/4/6 167/1/6 23/1/6
f 13/4/2 14/3/2 169/3/2 164/4/2
f 175/21/5 174/21/5 179/22/5 178/22/5
f 176/70/5 180/70/5 181/23/5 177/23/5
f 204/10/1 201/11/1 181/23/1 180/70/1
f 203/17/1 195/18/1 179/22/1 174/21/1
f 196/10/6 204/10/6 207/34/6 208/34/6
f 193/17/2 203/17/2 174/21/2 175/21/2
f 180/70/5 176/70/5 206/71/5 205/71/5
f 192/11/3 196/10/3 176/70/3 177/23/3
f 31/3/1 37/2/1 195/18/1 203/17/1
f 26/6/2 39/6/2 204/10/2 196/10/2
f 37/2/4 22/2/4 194/18/4 195/18/4
f 22/2/3 8/3/3 193/17/3 194/18/3
f 8/3/2 31/3/2 203/17/2 193/17/2
f 39/6/1 35/7/1 201/11/1 204/10/1
f 35/7/4 6/7/4 192/11/4 201/11/4
f 6/7/3 26/6/3 196/10/3 192/11/3
f 65/19/1 188/18/1 187/34/1 78/27/1
f 27/6/1 190/10/1 187/34/1 10/14/1
f 48/72/3 189/73/3 214/33/3 46/32/3
f 183/11/6 213/10/6 204/10/6 201/11/6
f 211/2/3 76/29/3 185/17/3 212/18/3
f 75/29/1 19/2/1 188/18/1 184/17/1
f 76/29/2 75/29/2 184/17/2 185/17/2
f 74/28/3 210/6/3 213/10/3 183/11/3
f 27/6/1 73/28/1 182/11/1 190/10/1
f 73/28/4 74/28/4 183/11/4 182/11/4
f 195/18/3 203/17/3 197/20/3 198/19/3
f 201/11/3 204/10/3 199/13/3 200/12/3
f 195/18/3 198/19/3 202/27/3 207/34/3
f 199/13/3 204/10/3 207/34/3 202/27/3
f 72/13/5 67/12/5 200/12/5 199/13/5
f 71/19/5 77/27/5 202/27/5 198/19/5
f 67/12/4 183/11/4 201/11/4 200/12/4
f 186/34/6 212/18/6 195/18/6 207/34/6
f 213/10/6 186/34/6 207/34/6 204/10/6
f 77/27/5 72/13/5 199/13/5 202/27/5
f 208/34/2 207/34/2 205/71/2 206/71/2
f 179/22/1 195/18/1 207/34/1 205/71/1
f 176/70/3 196/10/3 208/34/3 206/71/3
f 194/18/3 178/22/3 206/71/3 208/34/3
f 195/18/6 194/18/6 208/34/6 207/34/6
f 178/22/5 179/22/5 205/71/5 206/71/5
f 204/10/1 180/70/1 205/71/1 207/34/1
f 46/74/3 50/75/3 210/6/3 209/14/3
f 48/76/3 46/74/3 209/14/3 211/2/3
f 189/77/3 48/76/3 211/2/3 212/18/3
f 50/75/3 191/78/3 213/10/3 210/6/3
f 214/79/3 189/77/3 212/18/3 186/34/3
f 191/78/3 214/79/3 186/34/3 213/10/3
f 236/80/5 218/80/5 221/81/5 235/81/5
f 239/82/5 224/83/5 223/83/5 240/82/5
f 227/84/5 220/84/5 222/85/5 232/85/5
f 241/86/5 223/83/5 224/83/5 242/86/5
f 215/84/5 229/84/5 230/85/5 226/85/5
f 229/84/5 228/84/5 231/85/5 230/85/5
f 228/84/5 227/84/5 232/85/5 231/85/5
f 225/80/5 238/80/5 233/81/5 216/81/5
f 238/80/5 237/80/5 234/81/5 233/81/5
f 237/80/5 236/80/5 235/81/5 234/81/5
f 219/85/5 239/82/5 240/82/5 222/85/5
f 218/80/5 241/86/5 242/86/5 217/80/5
f 264/87/33 263/88/33 249/89/34 246/90/34
f 267/91/35 268/91/35 251/92/36 252/92/36
f 255/93/33 260/94/33 250/95/34 248/96/34
f 269/97/37 270/97/37 252/92/38 251/92/38
f 243/96/39 254/95/39 258/94/40 257/93/40
f 257/93/40 258/94/40 259/98/6 256/99/6
f 256/99/6 259/98/6 260/94/33 255/93/33
f 253/90/39 244/89/39 261/88/40 266/87/40
f 266/87/40 261/88/40 262/100/6 265/101/6
f 265/101/6 262/100/6 263/88/33 264/87/33
f 247/95/41 250/95/41 268/91/35 267/91/35
f 246/90/42 245/90/42 270/97/37 269/97/37
f 240/82/1 223/83/1 251/92/1 268/91/1
f 234/81/2 235/81/2 263/88/2 262/100/2
f 238/80/4 225/80/4 253/90/4 266/87/4
f 229/84/4 215/84/4 243/96/4 257/93/4
f 218/80/4 236/80/4 264/87/4 246/90/4
f 217/80/3 242/86/3 270/97/3 245/90/3
f 232/85/2 222/85/2 250/95/2 260/94/2
f 236/80/4 237/80/4 265/101/4 264/87/4
f 220/84/4 227/84/4 255/93/4 248/96/4
f 218/80/2 217/80/2 245/90/2 246/90/2
f 237/80/4 238/80/4 266/87/4 265/101/4
f 227/84/4 228/84/4 256/99/4 255/93/4
f 225/80/1 216/81/1 244/89/1 253/90/1
f 228/84/4 229/84/4 257/93/4 256/99/4
f 215/84/1 226/85/1 254/95/1 243/96/1
f 226/85/2 230/85/2 258/94/2 254/95/2
f 222/85/3 220/84/3 248/96/3 250/95/3
f 230/85/2 231/85/2 259/98/2 258/94/2
f 235/81/2 221/81/2 249/89/2 263/88/2
f 224/83/3 239/82/3 267/91/3 252/92/3
f 231/85/2 232/85/2 260/94/2 259/98/2
f 222/85/1 240/82/1 268/91/1 250/95/1
f 239/82/3 219/85/3 247/95/3 267/91/3
f 221/81/3 218/80/3 246/90/3 249/89/3
f 241/86/1 218/80/1 246/90/1 269/97/1
f 219/85/4 222/85/4 250/95/4 247/95/4
f 242/86/3 224/83/3 252/92/3 270/97/3
f 216/81/2 233/81/2 261/88/2 244/89/2
f 223/83/1 241/86/1 269/97/1 251/92/1
f 233/81/2 234/81/2 262/100/2 261/88/2
