# Blender 4.2.1 LTS
# www.blender.org
o bed_shrouded_valley_double
v 0.652500 0.000000 0.702500
v 0.570000 0.291250 0.562500
v -0.652500 0.000000 0.702500
v -0.570000 0.291250 0.562500
v 0.652500 0.000000 -0.697500
v 0.570000 0.291250 -0.557500
v -0.652500 0.000000 -0.697500
v -0.570000 0.291250 -0.557500
v -0.037500 0.291250 0.562500
v -0.188437 0.421250 0.476250
v -0.562500 0.291250 0.562500
v -0.411563 0.421250 0.476250
v -0.037500 0.291250 0.262500
v -0.188437 0.421250 0.348750
v -0.562500 0.291250 0.262500
v -0.411562 0.421250 0.348750
v -0.037500 0.341250 0.562500
v -0.076875 0.391250 0.540000
v -0.523125 0.391250 0.540000
v -0.562500 0.341250 0.562500
v -0.523125 0.391250 0.285000
v -0.562500 0.341250 0.262500
v -0.076875 0.391250 0.285000
v -0.037500 0.341250 0.262500
v 0.650438 0.191250 0.699000
v -0.650438 0.191250 0.699000
v -0.650438 0.191250 -0.694000
v 0.650438 0.191250 -0.694000
v -0.652500 0.138750 0.702500
v -0.652500 0.138750 -0.697500
v 0.652500 0.138750 -0.697500
v 0.652500 0.138750 0.702500
v 0.631875 0.241250 0.667500
v -0.631875 0.241250 0.667500
v -0.631875 0.241250 -0.662500
v 0.631875 0.241250 -0.662500
v 0.652500 0.090000 -0.702500
v 0.570000 0.295625 -0.562500
v -0.652500 0.090000 -0.702500
v -0.570000 0.295625 -0.562500
v -0.650438 0.195625 -0.699000
v 0.650438 0.195625 -0.699000
v -0.652500 0.143125 -0.702500
v 0.652500 0.143125 -0.702500
v -0.631875 0.245625 -0.667500
v 0.631875 0.245625 -0.667500
v -0.652500 0.090000 0.147500
v -0.570000 0.295625 0.147500
v 0.652500 0.090000 0.147500
v 0.570000 0.295625 0.147500
v 0.650438 0.195625 0.147500
v -0.650438 0.195625 0.147500
v -0.652500 0.143125 0.147500
v 0.652500 0.143125 0.147500
v 0.631875 0.245625 0.147500
v -0.631875 0.245625 0.147500
v 0.562500 0.291250 0.562500
v 0.411563 0.421250 0.476250
v 0.037500 0.291250 0.562500
v 0.188438 0.421250 0.476250
v 0.562500 0.291250 0.262500
v 0.411563 0.421250 0.348750
v 0.037500 0.291250 0.262500
v 0.188438 0.421250 0.348750
v 0.562500 0.341250 0.562500
v 0.523125 0.391250 0.540000
v 0.076875 0.391250 0.540000
v 0.037500 0.341250 0.562500
v 0.076875 0.391250 0.285000
v 0.037500 0.341250 0.262500
v 0.523125 0.391250 0.285000
v 0.562500 0.341250 0.262500
vn 0.5296 0.7149 0.4565
vn 0.2767 0.9481 0.1564
vn -0.2767 0.9481 0.1564
vn -0.5296 0.7149 0.4565
vn -0.2767 0.9481 -0.1564
vn -0.5296 0.7149 -0.4565
vn 0.2767 0.9481 -0.1564
vn 0.5296 0.7149 -0.4565
vn -0.0000 -1.0000 -0.0000
vn 0.3853 0.7848 0.4854
vn 0.0893 0.9792 0.1820
vn -0.0893 0.9792 0.1820
vn -0.3853 0.7848 0.4854
vn -0.0893 0.9792 -0.1820
vn -0.3853 0.7848 -0.4854
vn 0.0893 0.9792 -0.1820
vn 0.3853 0.7848 -0.4854
vn 1.0000 -0.0000 -0.0000
vn 0.9578 0.2874 -0.0000
vn -0.0000 -0.0000 -1.0000
vn -0.0000 0.1577 -0.9875
vn -1.0000 -0.0000 -0.0000
vn -0.9578 0.2874 -0.0000
vn -0.0000 -0.0000 1.0000
vn -0.0000 0.1577 0.9875
vn 0.9998 0.0192 -0.0000
vn 0.9870 0.1609 -0.0000
vn -0.0000 0.0329 -0.9995
vn -0.0000 0.2804 -0.9599
vn -0.9998 0.0192 -0.0000
vn -0.9870 0.1609 -0.0000
vn -0.0000 0.0329 0.9995
vn -0.0000 0.2804 0.9599
vn -0.8119 0.5837 -0.0000
vn -0.3333 0.9428 -0.0000
vn -0.9998 0.0196 -0.0000
vn -0.9806 0.1961 -0.0000
vn 0.9806 0.1961 -0.0000
vn 0.9998 0.0196 -0.0000
vn 0.8119 0.5837 -0.0000
vn 0.3333 0.9428 -0.0000
vt 0.012113 0.404027
vt 0.012113 0.456010
vt 0.214274 0.456010
vt 0.214274 0.404027
vt 0.214274 0.040143
vt 0.012113 0.040143
vt 0.276204 0.856395
vt 0.276204 0.977424
vt 0.471259 0.977424
vt 0.471259 0.856395
vt 0.471258 0.856395
vt 0.276204 0.856395
vt 0.471259 0.614338
vt 0.276204 0.614338
vt 0.276204 0.735367
vt 0.276204 0.735367
vt 0.471259 0.735367
vt 0.471259 0.735367
vt 0.012113 0.248077
vt 0.012113 0.352043
vt 0.214274 0.248077
vt 0.214274 0.352043
vt 0.474707 0.404027
vt 0.474707 0.456010
vt 0.474707 0.456010
vt 0.272546 0.456010
vt 0.272546 0.404027
vt 0.474707 0.040143
vt 0.272546 0.040143
vt 0.474707 0.248077
vt 0.474707 0.352043
vt 0.272546 0.352043
vt 0.272546 0.248077
s 1
f 33/1/1 2/2/2 4/3/3 34/4/4
f 34/4/4 4/3/3 8/3/5 35/4/6
f 35/4/6 8/3/5 6/2/7 36/1/8
f 36/1/8 6/2/7 2/2/2 33/1/1
f 3/5/9 7/5/9 5/6/9 1/6/9
f 8/3/5 4/3/3 2/2/2 6/2/7
f 18/7/10 10/8/11 12/9/12 19/10/13
f 19/10/13 12/9/12 16/9/14 21/11/15
f 21/11/15 16/9/14 14/8/16 23/12/17
f 23/12/17 14/8/16 10/8/11 18/7/10
f 11/13/9 15/13/9 13/14/9 9/14/9
f 16/9/14 12/9/12 10/8/11 14/8/16
f 13/14/18 24/15/19 17/16/19 9/14/18
f 24/15/19 23/12/17 18/7/10 17/16/19
f 15/13/20 22/17/21 24/15/21 13/14/20
f 22/17/21 21/11/15 23/12/17 24/15/21
f 11/13/22 20/18/23 22/17/23 15/13/22
f 20/18/23 19/10/13 21/11/15 22/17/23
f 9/14/24 17/16/25 20/18/25 11/13/24
f 17/16/25 18/7/10 19/10/13 20/18/25
f 31/19/26 28/20/27 25/20/27 32/19/26
f 30/21/28 27/22/29 28/20/29 31/19/28
f 29/21/30 26/22/31 27/22/31 30/21/30
f 32/19/32 25/20/33 26/22/33 29/21/32
f 1/6/24 32/19/32 29/21/32 3/5/24
f 3/5/22 29/21/30 30/21/30 7/5/22
f 7/5/20 30/21/28 31/19/28 5/6/20
f 5/6/18 31/19/26 32/19/26 1/6/18
f 28/20/27 36/1/8 33/1/1 25/20/27
f 27/22/29 35/4/6 36/1/8 28/20/29
f 26/22/31 34/4/4 35/4/6 27/22/31
f 25/20/33 33/1/1 34/4/4 26/22/33
f 56/23/34 48/24/35 40/25/5 45/23/6
f 45/23/6 40/25/5 38/26/7 46/27/8
f 47/28/9 39/28/9 37/29/9 49/29/9
f 43/30/28 41/31/29 42/32/29 44/33/28
f 53/30/36 52/31/37 41/31/31 43/30/30
f 47/28/22 53/30/36 43/30/30 39/28/22
f 39/28/20 43/30/28 44/33/28 37/29/20
f 41/31/29 45/23/6 46/27/8 42/32/29
f 52/31/37 56/23/34 45/23/6 41/31/31
f 44/33/26 42/32/27 51/32/38 54/33/39
f 42/32/27 46/27/8 55/27/40 51/32/38
f 46/27/8 38/26/7 50/26/41 55/27/40
f 37/29/18 44/33/26 54/33/39 49/29/18
f 40/25/5 48/24/35 50/26/41 38/26/7
f 66/7/10 58/8/11 60/9/12 67/10/13
f 67/10/13 60/9/12 64/9/14 69/11/15
f 69/11/15 64/9/14 62/8/16 71/12/17
f 71/12/17 62/8/16 58/8/11 66/7/10
f 59/13/9 63/13/9 61/14/9 57/14/9
f 64/9/14 60/9/12 58/8/11 62/8/16
f 61/14/18 72/15/19 65/16/19 57/14/18
f 72/15/19 71/12/17 66/7/10 65/16/19
f 63/13/20 70/17/21 72/15/21 61/14/20
f 70/17/21 69/11/15 71/12/17 72/15/21
f 59/13/22 68/18/23 70/17/23 63/13/22
f 68/18/23 67/10/13 69/11/15 70/17/23
f 57/14/24 65/16/25 68/18/25 59/13/24
f 65/16/25 66/7/10 67/10/13 68/18/25
