# Blender 4.2.1 LTS
# www.blender.org
o bed_verdant_forest_double
v 0.600000 0.200000 0.700000
v 0.600000 0.400000 0.700000
v -0.600000 0.200000 0.700000
v -0.600000 0.400000 0.700000
v 0.600000 0.200000 -0.700000
v 0.600000 0.400000 -0.700000
v -0.600000 0.200000 -0.700000
v -0.600000 0.400000 -0.700000
v 0.700000 0.000000 -0.600000
v 0.700000 0.500000 -0.600000
v 0.500000 0.000000 -0.600000
v 0.500000 0.500000 -0.600000
v 0.700000 0.000000 -0.800000
v 0.700000 0.500000 -0.800000
v 0.500000 0.000000 -0.800000
v 0.500000 0.500000 -0.800000
v -0.500000 0.000000 -0.600000
v -0.500000 0.500000 -0.600000
v -0.700000 0.000000 -0.600000
v -0.700000 0.500000 -0.600000
v -0.500000 0.000000 -0.800000
v -0.500000 0.500000 -0.800000
v -0.700000 0.000000 -0.800000
v -0.700000 0.500000 -0.800000
v 0.700000 0.000000 0.800000
v 0.700000 0.800000 0.800000
v 0.500000 0.000000 0.800000
v 0.500000 0.800000 0.800000
v 0.700000 0.000000 0.600000
v 0.700000 0.800000 0.600000
v 0.500000 0.000000 0.600000
v 0.500000 0.800000 0.600000
v -0.500000 0.000000 0.800000
v -0.500000 0.800000 0.800000
v -0.700000 0.000000 0.800000
v -0.700000 0.800000 0.800000
v -0.500000 0.000000 0.600000
v -0.500000 0.800000 0.600000
v -0.700000 0.000000 0.600000
v -0.700000 0.800000 0.600000
v 0.630000 0.425000 0.760000
v 0.630000 0.575000 0.760000
v -0.630000 0.425000 0.760000
v -0.630000 0.575000 0.760000
v 0.450000 0.425000 0.640000
v 0.450000 0.575000 0.640000
v -0.450000 0.425000 0.640000
v -0.450000 0.575000 0.640000
v 0.630000 0.600000 0.760000
v 0.630000 0.750000 0.760000
v -0.630000 0.600000 0.760000
v -0.630000 0.750000 0.760000
v 0.630000 0.600000 0.640000
v 0.630000 0.750000 0.640000
v -0.630000 0.600000 0.640000
v -0.630000 0.750000 0.640000
v 0.612000 0.230000 0.200000
v 0.612000 0.410000 0.200000
v -0.612000 0.230000 0.200000
v -0.612000 0.410000 0.200000
v 0.612000 0.230000 -0.710000
v 0.612000 0.410000 -0.710000
v -0.612000 0.230000 -0.710000
v -0.612000 0.410000 -0.710000
v -0.306000 0.290000 0.200000
v 0.000000 0.290000 0.100000
v 0.306000 0.290000 0.200000
v 0.306000 0.410000 0.200000
v 0.000000 0.410000 0.100000
v -0.306000 0.410000 0.200000
v 0.306000 0.230000 -0.710000
v 0.000000 0.290000 -0.710000
v -0.306000 0.230000 -0.710000
v -0.306000 0.410000 -0.710000
v 0.000000 0.410000 -0.710000
v 0.306000 0.410000 -0.710000
v -0.612000 0.230000 -0.482500
v -0.612000 0.290000 -0.255000
v -0.612000 0.230000 -0.027500
v -0.612000 0.410000 -0.027500
v -0.612000 0.410000 -0.255000
v -0.612000 0.410000 -0.482500
v 0.612000 0.230000 -0.027500
v 0.612000 0.290000 -0.255000
v 0.612000 0.230000 -0.482500
v 0.612000 0.410000 -0.482500
v 0.612000 0.410000 -0.255000
v 0.612000 0.410000 -0.027500
v -0.306000 0.410000 -0.027500
v -0.306000 0.410000 -0.255000
v -0.306000 0.410000 -0.482500
v 0.000000 0.410000 -0.027500
v 0.000000 0.410000 -0.255000
v 0.000000 0.410000 -0.482500
v 0.306000 0.410000 -0.027500
v 0.306000 0.410000 -0.255000
v 0.306000 0.410000 -0.482500
v -0.306000 0.290000 -0.482500
v -0.306000 0.290000 -0.255000
v -0.306000 0.290000 -0.027500
v 0.000000 0.290000 -0.482500
v 0.000000 0.290000 -0.255000
v 0.000000 0.290000 -0.027500
v 0.306000 0.290000 -0.482500
v 0.306000 0.290000 -0.255000
v 0.306000 0.290000 -0.027500
v 0.076500 0.290000 0.125000
v 0.076500 0.410000 0.125000
v 0.076500 0.275000 -0.710000
v 0.076500 0.410000 -0.710000
v 0.076500 0.290000 -0.027500
v 0.076500 0.290000 -0.255000
v 0.076500 0.290000 -0.482500
v 0.076500 0.410000 -0.482500
v 0.076500 0.410000 -0.255000
v 0.076500 0.410000 -0.027500
v -0.076500 0.290000 0.125000
v -0.076500 0.410000 0.125000
v -0.076500 0.275000 -0.710000
v -0.076500 0.410000 -0.710000
v -0.076500 0.290000 -0.027500
v -0.076500 0.290000 -0.255000
v -0.076500 0.290000 -0.482500
v -0.076500 0.410000 -0.482500
v -0.076500 0.410000 -0.255000
v -0.076500 0.410000 -0.027500
v -0.612000 0.281000 -0.289125
v -0.612000 0.410000 -0.289125
v 0.612000 0.281000 -0.289125
v 0.612000 0.410000 -0.289125
v -0.306000 0.410000 -0.289125
v 0.000000 0.410000 -0.289125
v 0.306000 0.410000 -0.289125
v -0.306000 0.290000 -0.289125
v 0.000000 0.290000 -0.289125
v 0.306000 0.290000 -0.289125
v 0.076500 0.410000 -0.289125
v 0.076500 0.290000 -0.289125
v -0.076500 0.410000 -0.289125
v -0.076500 0.290000 -0.289125
v -0.612000 0.281000 -0.220875
v -0.612000 0.410000 -0.220875
v 0.612000 0.281000 -0.220875
v 0.612000 0.410000 -0.220875
v -0.306000 0.410000 -0.220875
v 0.000000 0.410000 -0.220875
v 0.306000 0.410000 -0.220875
v -0.306000 0.290000 -0.220875
v 0.000000 0.290000 -0.220875
v 0.306000 0.290000 -0.220875
v 0.076500 0.410000 -0.220875
v 0.076500 0.290000 -0.220875
v -0.076500 0.410000 -0.220875
v -0.076500 0.290000 -0.220875
v -0.037500 0.400000 0.550000
v -0.188437 0.530000 0.463750
v -0.562500 0.400000 0.550000
v -0.411563 0.530000 0.463750
v -0.037500 0.400000 0.250000
v -0.188437 0.530000 0.336250
v -0.562500 0.400000 0.250000
v -0.411562 0.530000 0.336250
v -0.037500 0.450000 0.550000
v -0.076875 0.500000 0.527500
v -0.523125 0.500000 0.527500
v -0.562500 0.450000 0.550000
v -0.523125 0.500000 0.272500
v -0.562500 0.450000 0.250000
v -0.076875 0.500000 0.272500
v -0.037500 0.450000 0.250000
v 0.562500 0.400000 0.550000
v 0.411563 0.530000 0.463750
v 0.037500 0.400000 0.550000
v 0.188438 0.530000 0.463750
v 0.562500 0.400000 0.250000
v 0.411563 0.530000 0.336250
v 0.037500 0.400000 0.250000
v 0.188438 0.530000 0.336250
v 0.562500 0.450000 0.550000
v 0.523125 0.500000 0.527500
v 0.076875 0.500000 0.527500
v 0.037500 0.450000 0.550000
v 0.076875 0.500000 0.272500
v 0.037500 0.450000 0.250000
v 0.523125 0.500000 0.272500
v 0.562500 0.450000 0.250000
vn -0.0000 -0.0000 1.0000
vn -1.0000 -0.0000 -0.0000
vn -0.0000 -0.0000 -1.0000
vn 1.0000 -0.0000 -0.0000
vn -0.0000 -1.0000 -0.0000
vn -0.0000 1.0000 -0.0000
vn -0.5547 -0.0000 -0.8321
vn 0.5547 -0.0000 -0.8321
vn -0.0967 -0.9868 0.1301
vn 0.0967 -0.9868 0.1301
vn 0.0975 -0.9947 0.0328
vn -0.0963 -0.9821 0.1619
vn -0.3106 -0.0000 0.9505
vn 0.3106 -0.0000 0.9505
vn 0.1924 -0.9813 -0.0000
vn 0.0146 -0.9913 -0.1307
vn 0.1111 -0.9853 0.1299
vn -0.1924 -0.9813 -0.0000
vn -0.0146 -0.9913 -0.1307
vn -0.1111 -0.9853 0.1299
vn -0.0975 -0.9947 0.0328
vn 0.0963 -0.9821 0.1619
vn -0.0146 -0.9913 0.1307
vn 0.0146 -0.9913 0.1307
vn -0.1111 -0.9853 -0.1299
vn 0.1111 -0.9853 -0.1299
vn 0.3853 0.7848 0.4854
vn 0.0893 0.9792 0.1820
vn -0.0893 0.9792 0.1820
vn -0.3853 0.7848 0.4854
vn -0.0893 0.9792 -0.1820
vn -0.3853 0.7848 -0.4854
vn 0.0893 0.9792 -0.1820
vn 0.3853 0.7848 -0.4854
vn -0.5773 -0.5774 0.5773
vn -0.5773 -0.5774 -0.5774
vn 0.5774 -0.5774 -0.5774
vn 0.5774 -0.5774 0.5773
vn 0.6858 0.3109 -0.6581
vn 0.6858 0.3109 0.6581
vn -0.6858 0.3109 -0.6581
vn -0.6858 0.3109 0.6581
vn -0.5774 -0.5774 0.5773
vn -0.5774 -0.5774 -0.5774
vn 0.5774 -0.5774 -0.5773
vt 0.774695 0.136727
vt 0.774695 0.759635
vt 0.980579 0.759635
vt 0.980579 0.136727
vt 0.026666 0.491091
vt 0.026666 0.985305
vt 0.224351 0.985305
vt 0.224351 0.491091
vt 0.429108 0.136727
vt 0.429108 0.759635
vt 0.480579 0.759635
vt 0.480579 0.136727
vt 0.326166 0.136727
vt 0.326166 0.759635
vt 0.274696 0.759635
vt 0.274696 0.136727
vt 0.326166 0.759635
vt 0.634646 0.759635
vt 0.621778 0.759635
vt 0.621778 0.759635
vt 0.364770 0.759635
vt 0.364770 0.759635
vt 0.429108 0.136727
vt 0.634646 0.136727
vt 0.621778 0.136727
vt 0.621778 0.136727
vt 0.364770 0.136727
vt 0.364770 0.136727
vt 0.429108 0.759635
vt 0.326166 0.136727
vt 0.608910 0.136727
vt 0.608910 0.759635
vt 0.390505 0.136727
vt 0.390505 0.759635
vt 0.364770 0.136727
vt 0.362816 0.136727
vt 0.324213 0.136727
vt 0.634646 0.136727
vt 0.634646 0.136727
vt 0.478626 0.136727
vt 0.427155 0.136727
vt 0.362816 0.759635
vt 0.324213 0.759635
vt 0.364770 0.759635
vt 0.634646 0.759635
vt 0.634646 0.759635
vt 0.478626 0.759635
vt 0.478626 0.759635
vt 0.427155 0.759635
vt 0.272742 0.759635
vt 0.272742 0.759635
vt 0.272742 0.136727
vt 0.480579 0.759635
vt 0.390505 0.759635
vt 0.388552 0.759635
vt 0.390505 0.136727
vt 0.388552 0.136727
vt 0.388552 0.136727
vt 0.390505 0.759635
vt 0.274696 0.759635
vt 0.390505 0.136727
vt 0.388552 0.759635
vt 0.276204 0.856395
vt 0.276204 0.977424
vt 0.471259 0.977424
vt 0.471259 0.856395
vt 0.471258 0.856395
vt 0.276204 0.856395
vt 0.471259 0.614338
vt 0.276204 0.614338
vt 0.276204 0.735367
vt 0.276204 0.735367
vt 0.471259 0.735367
vt 0.471259 0.735367
s 0
f 1/1/1 2/2/1 4/3/1 3/4/1
f 3/4/2 4/3/2 8/3/2 7/4/2
f 7/4/3 8/3/3 6/2/3 5/1/3
f 5/1/4 6/2/4 2/2/4 1/1/4
f 3/4/5 7/4/5 5/1/5 1/1/5
f 8/3/6 4/3/6 2/2/6 6/2/6
f 9/5/1 10/6/1 12/7/1 11/8/1
f 11/8/2 12/7/2 16/7/2 15/8/2
f 15/8/3 16/7/3 14/6/3 13/5/3
f 13/5/4 14/6/4 10/6/4 9/5/4
f 11/8/5 15/8/5 13/5/5 9/5/5
f 16/7/6 12/7/6 10/6/6 14/6/6
f 17/5/1 18/6/1 20/7/1 19/8/1
f 19/8/2 20/7/2 24/7/2 23/8/2
f 23/8/3 24/7/3 22/6/3 21/5/3
f 21/5/4 22/6/4 18/6/4 17/5/4
f 19/8/5 23/8/5 21/5/5 17/5/5
f 24/7/6 20/7/6 18/6/6 22/6/6
f 25/5/1 26/6/1 28/7/1 27/8/1
f 27/8/2 28/7/2 32/7/2 31/8/2
f 31/8/3 32/7/3 30/6/3 29/5/3
f 29/5/4 30/6/4 26/6/4 25/5/4
f 27/8/5 31/8/5 29/5/5 25/5/5
f 32/7/6 28/7/6 26/6/6 30/6/6
f 33/5/1 34/6/1 36/7/1 35/8/1
f 35/8/2 36/7/2 40/7/2 39/8/2
f 39/8/3 40/7/3 38/6/3 37/5/3
f 37/5/4 38/6/4 34/6/4 33/5/4
f 35/8/5 39/8/5 37/5/5 33/5/5
f 40/7/6 36/7/6 34/6/6 38/6/6
f 41/5/1 42/6/1 44/7/1 43/8/1
f 43/8/7 44/7/7 48/7/7 47/8/7
f 47/8/3 48/7/3 46/6/3 45/5/3
f 45/5/8 46/6/8 42/6/8 41/5/8
f 43/8/5 47/8/5 45/5/5 41/5/5
f 48/7/6 44/7/6 42/6/6 46/6/6
f 49/5/1 50/6/1 52/7/1 51/8/1
f 51/8/2 52/7/2 56/7/2 55/8/2
f 55/8/3 56/7/3 54/6/3 53/5/3
f 53/5/4 54/6/4 50/6/4 49/5/4
f 51/8/5 55/8/5 53/5/5 49/5/5
f 56/7/6 52/7/6 50/6/6 54/6/6
f 65/9/1 70/10/1 60/11/1 59/12/1
f 77/12/2 82/11/2 64/11/2 63/12/2
f 71/13/3 76/14/3 62/15/3 61/16/3
f 83/16/4 88/15/4 58/15/4 57/16/4
f 104/13/9 71/13/9 61/16/9 85/16/9
f 95/17/6 68/17/6 58/15/6 88/15/6
f 80/11/6 60/11/6 70/10/6 89/10/6
f 126/18/6 118/18/6 69/19/6 92/20/6
f 116/21/6 108/22/6 68/17/6 95/17/6
f 77/12/10 63/12/10 73/23/10 98/23/10
f 123/24/11 119/24/11 72/25/11 101/26/11
f 113/27/12 109/28/12 71/13/12 104/13/12
f 63/12/3 64/11/3 74/29/3 73/23/3
f 119/24/3 120/18/3 75/20/3 72/25/3
f 109/28/3 110/21/3 76/14/3 71/13/3
f 57/16/1 58/15/1 68/17/1 67/30/1
f 107/31/13 108/32/13 69/19/13 66/26/13
f 117/33/14 118/34/14 70/10/14 65/9/14
f 107/35/5 111/35/5 106/30/5 67/30/5
f 152/36/5 112/36/5 105/37/5 150/37/5
f 138/27/5 113/27/5 104/13/5 136/30/5
f 117/24/5 121/24/5 103/26/5 66/26/5
f 154/38/5 122/39/5 102/26/5 149/26/5
f 140/39/5 123/24/5 101/26/5 135/26/5
f 59/12/15 79/12/15 100/23/15 65/9/15
f 141/40/16 78/40/16 99/41/16 148/41/16
f 127/12/17 77/12/17 98/23/17 134/23/17
f 110/21/6 114/21/6 97/14/6 76/14/6
f 137/42/6 115/42/6 96/43/6 133/43/6
f 151/44/6 116/21/6 95/17/6 147/14/6
f 120/18/6 124/18/6 94/20/6 75/20/6
f 139/45/6 125/45/6 93/20/6 132/20/6
f 153/46/6 126/18/6 92/20/6 146/20/6
f 64/11/6 82/11/6 91/10/6 74/29/6
f 128/47/6 81/48/6 90/49/6 131/49/6
f 142/11/6 80/11/6 89/10/6 145/10/6
f 76/14/6 97/14/6 86/15/6 62/15/6
f 133/43/6 96/43/6 87/50/6 130/51/6
f 147/14/6 95/17/6 88/15/6 144/15/6
f 67/30/18 106/30/18 83/16/18 57/16/18
f 150/37/19 105/37/19 84/52/19 143/52/19
f 136/30/20 104/13/20 85/16/20 129/16/20
f 61/16/4 62/15/4 86/15/4 85/16/4
f 129/52/4 130/51/4 87/50/4 84/52/4
f 143/16/4 144/15/4 88/15/4 83/16/4
f 59/12/2 60/11/2 80/11/2 79/12/2
f 141/40/2 142/48/2 81/48/2 78/40/2
f 127/12/2 128/53/2 82/11/2 77/12/2
f 146/20/6 92/20/6 116/32/6 151/32/6
f 132/20/6 93/20/6 115/32/6 137/32/6
f 75/20/6 94/20/6 114/32/6 110/32/6
f 135/26/5 101/26/5 113/31/5 138/31/5
f 149/26/5 102/26/5 112/31/5 152/31/5
f 66/26/5 103/26/5 111/31/5 107/31/5
f 67/30/13 68/17/13 108/22/13 107/35/13
f 72/25/3 75/20/3 110/32/3 109/31/3
f 101/26/21 72/25/21 109/31/21 113/31/21
f 92/20/6 69/19/6 108/32/6 116/32/6
f 145/10/6 89/10/6 126/34/6 153/54/6
f 131/49/6 90/49/6 125/55/6 139/55/6
f 74/29/6 91/10/6 124/34/6 120/34/6
f 134/23/5 98/23/5 123/33/5 140/56/5
f 148/41/5 99/41/5 122/57/5 154/58/5
f 65/9/5 100/23/5 121/33/5 117/33/5
f 66/26/14 69/19/14 118/18/14 117/24/14
f 73/23/3 74/29/3 120/34/3 119/33/3
f 98/23/22 73/23/22 119/33/22 123/33/22
f 89/10/6 70/10/6 118/34/6 126/34/6
f 99/41/5 134/41/5 140/57/5 122/57/5
f 91/10/6 131/10/6 139/59/6 124/34/6
f 102/26/5 135/26/5 138/31/5 112/31/5
f 94/20/6 132/20/6 137/32/6 114/32/6
f 78/40/2 81/48/2 128/47/2 127/40/2
f 85/16/4 86/15/4 130/60/4 129/16/4
f 105/37/23 136/37/23 129/52/23 84/52/23
f 97/14/6 133/14/6 130/60/6 86/15/6
f 82/11/6 128/53/6 131/10/6 91/10/6
f 124/18/6 139/45/6 132/20/6 94/20/6
f 114/21/6 137/44/6 133/14/6 97/14/6
f 78/40/24 127/40/24 134/41/24 99/41/24
f 122/39/5 140/39/5 135/26/5 102/26/5
f 112/36/5 138/36/5 136/37/5 105/37/5
f 100/23/5 148/23/5 154/61/5 121/33/5
f 90/49/6 145/49/6 153/62/6 125/55/6
f 103/26/5 149/26/5 152/31/5 111/31/5
f 93/20/6 146/20/6 151/32/6 115/32/6
f 79/12/2 80/11/2 142/11/2 141/12/2
f 84/52/4 87/50/4 144/50/4 143/52/4
f 106/30/25 150/30/25 143/16/25 83/16/25
f 96/43/6 147/43/6 144/50/6 87/50/6
f 81/48/6 142/48/6 145/49/6 90/49/6
f 125/45/6 153/46/6 146/20/6 93/20/6
f 115/42/6 151/42/6 147/43/6 96/43/6
f 79/12/26 141/12/26 148/23/26 100/23/26
f 121/24/5 154/38/5 149/26/5 103/26/5
f 111/35/5 152/27/5 150/30/5 106/30/5
s 1
f 164/63/27 156/64/28 158/65/29 165/66/30
f 165/66/30 158/65/29 162/65/31 167/67/32
f 167/67/32 162/65/31 160/64/33 169/68/34
f 169/68/34 160/64/33 156/64/28 164/63/27
f 157/69/35 161/69/36 159/70/37 155/70/38
f 162/65/31 158/65/29 156/64/28 160/64/33
f 159/70/37 170/71/39 163/72/40 155/70/38
f 170/71/39 169/68/34 164/63/27 163/72/40
f 161/69/36 168/73/41 170/71/39 159/70/37
f 168/73/41 167/67/32 169/68/34 170/71/39
f 157/69/35 166/74/42 168/73/41 161/69/36
f 166/74/42 165/66/30 167/67/32 168/73/41
f 155/70/38 163/72/40 166/74/42 157/69/35
f 163/72/40 164/63/27 165/66/30 166/74/42
f 180/63/27 172/64/28 174/65/29 181/66/30
f 181/66/30 174/65/29 178/65/31 183/67/32
f 183/67/32 178/65/31 176/64/33 185/68/34
f 185/68/34 176/64/33 172/64/28 180/63/27
f 173/69/43 177/69/44 175/70/45 171/70/38
f 178/65/31 174/65/29 172/64/28 176/64/33
f 175/70/45 186/71/39 179/72/40 171/70/38
f 186/71/39 185/68/34 180/63/27 179/72/40
f 177/69/44 184/73/41 186/71/39 175/70/45
f 184/73/41 183/67/32 185/68/34 186/71/39
f 173/69/43 182/74/42 184/73/41 177/69/44
f 182/74/42 181/66/30 183/67/32 184/73/41
f 171/70/38 179/72/40 182/74/42 173/69/43
f 179/72/40 180/63/27 181/66/30 182/74/42
