# Blender 4.2.1 LTS
# www.blender.org
o bed_verdant_forest
v 0.400000 0.200000 0.700000
v 0.400000 0.400000 0.700000
v -0.400000 0.200000 0.700000
v -0.400000 0.400000 0.700000
v 0.400000 0.200000 -0.700000
v 0.400000 0.400000 -0.700000
v -0.400000 0.200000 -0.700000
v -0.400000 0.400000 -0.700000
v 0.500000 0.000000 -0.600000
v 0.500000 0.500000 -0.600000
v 0.300000 0.000000 -0.600000
v 0.300000 0.500000 -0.600000
v 0.500000 0.000000 -0.800000
v 0.500000 0.500000 -0.800000
v 0.300000 0.000000 -0.800000
v 0.300000 0.500000 -0.800000
v -0.300000 0.000000 -0.600000
v -0.300000 0.500000 -0.600000
v -0.500000 0.000000 -0.600000
v -0.500000 0.500000 -0.600000
v -0.300000 0.000000 -0.800000
v -0.300000 0.500000 -0.800000
v -0.500000 0.000000 -0.800000
v -0.500000 0.500000 -0.800000
v 0.500000 0.000000 0.800000
v 0.500000 0.800000 0.800000
v 0.300000 0.000000 0.800000
v 0.300000 0.800000 0.800000
v 0.500000 0.000000 0.600000
v 0.500000 0.800000 0.600000
v 0.300000 0.000000 0.600000
v 0.300000 0.800000 0.600000
v -0.300000 0.000000 0.800000
v -0.300000 0.800000 0.800000
v -0.500000 0.000000 0.800000
v -0.500000 0.800000 0.800000
v -0.300000 0.000000 0.600000
v -0.300000 0.800000 0.600000
v -0.500000 0.000000 0.600000
v -0.500000 0.800000 0.600000
v 0.300000 0.425000 0.760000
v 0.300000 0.575000 0.760000
v -0.300000 0.425000 0.760000
v -0.300000 0.575000 0.760000
v 0.300000 0.425000 0.640000
v 0.300000 0.575000 0.640000
v -0.300000 0.425000 0.640000
v -0.300000 0.575000 0.640000
v 0.300000 0.600000 0.760000
v 0.300000 0.750000 0.760000
v -0.300000 0.600000 0.760000
v -0.300000 0.750000 0.760000
v 0.300000 0.600000 0.640000
v 0.300000 0.750000 0.640000
v -0.300000 0.600000 0.640000
v -0.300000 0.750000 0.640000
v 0.408000 0.230000 0.200000
v 0.408000 0.410000 0.200000
v -0.408000 0.230000 0.200000
v -0.408000 0.410000 0.200000
v 0.408000 0.230000 -0.710000
v 0.408000 0.410000 -0.710000
v -0.408000 0.230000 -0.710000
v -0.408000 0.410000 -0.710000
v -0.204000 0.290000 0.200000
v 0.000000 0.290000 0.100000
v 0.204000 0.290000 0.200000
v 0.204000 0.410000 0.200000
v 0.000000 0.410000 0.100000
v -0.204000 0.410000 0.200000
v 0.204000 0.230000 -0.710000
v 0.000000 0.290000 -0.710000
v -0.204000 0.230000 -0.710000
v -0.204000 0.410000 -0.710000
v 0.000000 0.410000 -0.710000
v 0.204000 0.410000 -0.710000
v -0.408000 0.230000 -0.482500
v -0.408000 0.290000 -0.255000
v -0.408000 0.230000 -0.027500
v -0.408000 0.410000 -0.027500
v -0.408000 0.410000 -0.255000
v -0.408000 0.410000 -0.482500
v 0.408000 0.230000 -0.027500
v 0.408000 0.290000 -0.255000
v 0.408000 0.230000 -0.482500
v 0.408000 0.410000 -0.482500
v 0.408000 0.410000 -0.255000
v 0.408000 0.410000 -0.027500
v -0.204000 0.410000 -0.027500
v -0.204000 0.410000 -0.255000
v -0.204000 0.410000 -0.482500
v 0.000000 0.410000 -0.027500
v 0.000000 0.410000 -0.255000
v 0.000000 0.410000 -0.482500
v 0.204000 0.410000 -0.027500
v 0.204000 0.410000 -0.255000
v 0.204000 0.410000 -0.482500
v -0.204000 0.290000 -0.482500
v -0.204000 0.290000 -0.255000
v -0.204000 0.290000 -0.027500
v 0.000000 0.290000 -0.482500
v 0.000000 0.290000 -0.255000
v 0.000000 0.290000 -0.027500
v 0.204000 0.290000 -0.482500
v 0.204000 0.290000 -0.255000
v 0.204000 0.290000 -0.027500
v 0.051000 0.290000 0.125000
v 0.051000 0.410000 0.125000
v 0.051000 0.275000 -0.710000
v 0.051000 0.410000 -0.710000
v 0.051000 0.290000 -0.027500
v 0.051000 0.290000 -0.255000
v 0.051000 0.290000 -0.482500
v 0.051000 0.410000 -0.482500
v 0.051000 0.410000 -0.255000
v 0.051000 0.410000 -0.027500
v -0.051000 0.290000 0.125000
v -0.051000 0.410000 0.125000
v -0.051000 0.275000 -0.710000
v -0.051000 0.410000 -0.710000
v -0.051000 0.290000 -0.027500
v -0.051000 0.290000 -0.255000
v -0.051000 0.290000 -0.482500
v -0.051000 0.410000 -0.482500
v -0.051000 0.410000 -0.255000
v -0.051000 0.410000 -0.027500
v -0.408000 0.281000 -0.289125
v -0.408000 0.410000 -0.289125
v 0.408000 0.281000 -0.289125
v 0.408000 0.410000 -0.289125
v -0.204000 0.410000 -0.289125
v 0.000000 0.410000 -0.289125
v 0.204000 0.410000 -0.289125
v -0.204000 0.290000 -0.289125
v 0.000000 0.290000 -0.289125
v 0.204000 0.290000 -0.289125
v 0.051000 0.410000 -0.289125
v 0.051000 0.290000 -0.289125
v -0.051000 0.410000 -0.289125
v -0.051000 0.290000 -0.289125
v -0.408000 0.281000 -0.220875
v -0.408000 0.410000 -0.220875
v 0.408000 0.281000 -0.220875
v 0.408000 0.410000 -0.220875
v -0.204000 0.410000 -0.220875
v 0.000000 0.410000 -0.220875
v 0.204000 0.410000 -0.220875
v -0.204000 0.290000 -0.220875
v 0.000000 0.290000 -0.220875
v 0.204000 0.290000 -0.220875
v 0.051000 0.410000 -0.220875
v 0.051000 0.290000 -0.220875
v -0.051000 0.410000 -0.220875
v -0.051000 0.290000 -0.220875
v 0.262500 0.400000 0.550000
v 0.111563 0.530000 0.463750
v -0.262500 0.400000 0.550000
v -0.111562 0.530000 0.463750
v 0.262500 0.400000 0.250000
v 0.111563 0.530000 0.336250
v -0.262500 0.400000 0.250000
v -0.111562 0.530000 0.336250
v 0.262500 0.450000 0.550000
v 0.223125 0.500000 0.527500
v -0.223125 0.500000 0.527500
v -0.262500 0.450000 0.550000
v -0.223125 0.500000 0.272500
v -0.262500 0.450000 0.250000
v 0.223125 0.500000 0.272500
v 0.262500 0.450000 0.250000
vn -0.0000 -0.0000 1.0000
vn -1.0000 -0.0000 -0.0000
vn -0.0000 -0.0000 -1.0000
vn 1.0000 -0.0000 -0.0000
vn -0.0000 -1.0000 -0.0000
vn -0.0000 1.0000 -0.0000
vn -0.1443 -0.9810 0.1294
vn 0.1443 -0.9810 0.1294
vn 0.1454 -0.9888 0.0326
vn -0.1436 -0.9765 0.1610
vn -0.4402 -0.0000 0.8979
vn 0.4402 -0.0000 0.8979
vn 0.2822 -0.9594 -0.0000
vn 0.0219 -0.9912 -0.1307
vn 0.1654 -0.9778 0.1289
vn -0.2822 -0.9594 -0.0000
vn -0.0219 -0.9912 -0.1307
vn -0.1654 -0.9778 0.1289
vn -0.1454 -0.9888 0.0326
vn 0.1436 -0.9765 0.1610
vn -0.0219 -0.9912 0.1307
vn 0.0219 -0.9912 0.1307
vn -0.1654 -0.9778 -0.1289
vn 0.1654 -0.9778 -0.1289
vn 0.3853 0.7848 0.4854
vn 0.0893 0.9792 0.1820
vn -0.0893 0.9792 0.1820
vn -0.3853 0.7848 0.4854
vn -0.0893 0.9792 -0.1820
vn -0.3853 0.7848 -0.4854
vn 0.0893 0.9792 -0.1820
vn 0.3853 0.7848 -0.4854
vn -0.5774 -0.5774 0.5773
vn -0.5774 -0.5774 -0.5774
vn 0.5774 -0.5774 -0.5773
vn 0.5774 -0.5774 0.5773
vn 0.6858 0.3109 -0.6581
vn 0.6858 0.3109 0.6581
vn -0.6858 0.3109 -0.6581
vn -0.6858 0.3109 0.6581
vt 0.774695 0.136727
vt 0.774695 0.759635
vt 0.980579 0.759635
vt 0.980579 0.136727
vt 0.026666 0.491091
vt 0.026666 0.985305
vt 0.224351 0.985305
vt 0.224351 0.491091
vt 0.429108 0.136727
vt 0.429108 0.759635
vt 0.480579 0.759635
vt 0.480579 0.136727
vt 0.326166 0.136727
vt 0.326166 0.759635
vt 0.274696 0.759635
vt 0.274696 0.136727
vt 0.326166 0.759635
vt 0.634646 0.759635
vt 0.621778 0.759635
vt 0.621778 0.759635
vt 0.364770 0.759635
vt 0.364770 0.759635
vt 0.429108 0.136727
vt 0.634646 0.136727
vt 0.621778 0.136727
vt 0.621778 0.136727
vt 0.364770 0.136727
vt 0.364770 0.136727
vt 0.429108 0.759635
vt 0.326166 0.136727
vt 0.608910 0.136727
vt 0.608910 0.759635
vt 0.390505 0.136727
vt 0.390505 0.759635
vt 0.364770 0.136727
vt 0.362816 0.136727
vt 0.324213 0.136727
vt 0.634646 0.136727
vt 0.634646 0.136727
vt 0.478626 0.136727
vt 0.427155 0.136727
vt 0.362816 0.759635
vt 0.324213 0.759635
vt 0.364770 0.759635
vt 0.634646 0.759635
vt 0.634646 0.759635
vt 0.478626 0.759635
vt 0.478626 0.759635
vt 0.427155 0.759635
vt 0.272742 0.759635
vt 0.272742 0.759635
vt 0.272742 0.136727
vt 0.480579 0.759635
vt 0.390505 0.759635
vt 0.388552 0.759635
vt 0.390505 0.136727
vt 0.388552 0.136727
vt 0.388552 0.136727
vt 0.390505 0.759635
vt 0.274696 0.759635
vt 0.390505 0.136727
vt 0.388552 0.759635
vt 0.276204 0.856395
vt 0.276204 0.977424
vt 0.471259 0.977424
vt 0.471259 0.856395
vt 0.471258 0.856395
vt 0.276204 0.856395
vt 0.471259 0.614338
vt 0.276204 0.614338
vt 0.276204 0.735367
vt 0.276204 0.735367
vt 0.471259 0.735367
vt 0.471259 0.735367
s 0
f 1/1/1 2/2/1 4/3/1 3/4/1
f 3/4/2 4/3/2 8/3/2 7/4/2
f 7/4/3 8/3/3 6/2/3 5/1/3
f 5/1/4 6/2/4 2/2/4 1/1/4
f 3/4/5 7/4/5 5/1/5 1/1/5
f 8/3/6 4/3/6 2/2/6 6/2/6
f 9/5/1 10/6/1 12/7/1 11/8/1
f 11/8/2 12/7/2 16/7/2 15/8/2
f 15/8/3 16/7/3 14/6/3 13/5/3
f 13/5/4 14/6/4 10/6/4 9/5/4
f 11/8/5 15/8/5 13/5/5 9/5/5
f 16/7/6 12/7/6 10/6/6 14/6/6
f 17/5/1 18/6/1 20/7/1 19/8/1
f 19/8/2 20/7/2 24/7/2 23/8/2
f 23/8/3 24/7/3 22/6/3 21/5/3
f 21/5/4 22/6/4 18/6/4 17/5/4
f 19/8/5 23/8/5 21/5/5 17/5/5
f 24/7/6 20/7/6 18/6/6 22/6/6
f 25/5/1 26/6/1 28/7/1 27/8/1
f 27/8/2 28/7/2 32/7/2 31/8/2
f 31/8/3 32/7/3 30/6/3 29/5/3
f 29/5/4 30/6/4 26/6/4 25/5/4
f 27/8/5 31/8/5 29/5/5 25/5/5
f 32/7/6 28/7/6 26/6/6 30/6/6
f 33/5/1 34/6/1 36/7/1 35/8/1
f 35/8/2 36/7/2 40/7/2 39/8/2
f 39/8/3 40/7/3 38/6/3 37/5/3
f 37/5/4 38/6/4 34/6/4 33/5/4
f 35/8/5 39/8/5 37/5/5 33/5/5
f 40/7/6 36/7/6 34/6/6 38/6/6
f 41/5/1 42/6/1 44/7/1 43/8/1
f 43/8/2 44/7/2 48/7/2 47/8/2
f 47/8/3 48/7/3 46/6/3 45/5/3
f 45/5/4 46/6/4 42/6/4 41/5/4
f 43/8/5 47/8/5 45/5/5 41/5/5
f 48/7/6 44/7/6 42/6/6 46/6/6
f 49/5/1 50/6/1 52/7/1 51/8/1
f 51/8/2 52/7/2 56/7/2 55/8/2
f 55/8/3 56/7/3 54/6/3 53/5/3
f 53/5/4 54/6/4 50/6/4 49/5/4
f 51/8/5 55/8/5 53/5/5 49/5/5
f 56/7/6 52/7/6 50/6/6 54/6/6
f 65/9/1 70/10/1 60/11/1 59/12/1
f 77/12/2 82/11/2 64/11/2 63/12/2
f 71/13/3 76/14/3 62/15/3 61/16/3
f 83/16/4 88/15/4 58/15/4 57/16/4
f 104/13/7 71/13/7 61/16/7 85/16/7
f 95/17/6 68/17/6 58/15/6 88/15/6
f 80/11/6 60/11/6 70/10/6 89/10/6
f 126/18/6 118/18/6 69/19/6 92/20/6
f 116/21/6 108/22/6 68/17/6 95/17/6
f 77/12/8 63/12/8 73/23/8 98/23/8
f 123/24/9 119/24/9 72/25/9 101/26/9
f 113/27/10 109/28/10 71/13/10 104/13/10
f 63/12/3 64/11/3 74/29/3 73/23/3
f 119/24/3 120/18/3 75/20/3 72/25/3
f 109/28/3 110/21/3 76/14/3 71/13/3
f 57/16/1 58/15/1 68/17/1 67/30/1
f 107/31/11 108/32/11 69/19/11 66/26/11
f 117/33/12 118/34/12 70/10/12 65/9/12
f 107/35/5 111/35/5 106/30/5 67/30/5
f 152/36/5 112/36/5 105/37/5 150/37/5
f 138/27/5 113/27/5 104/13/5 136/30/5
f 117/24/5 121/24/5 103/26/5 66/26/5
f 154/38/5 122/39/5 102/26/5 149/26/5
f 140/39/5 123/24/5 101/26/5 135/26/5
f 59/12/13 79/12/13 100/23/13 65/9/13
f 141/40/14 78/40/14 99/41/14 148/41/14
f 127/12/15 77/12/15 98/23/15 134/23/15
f 110/21/6 114/21/6 97/14/6 76/14/6
f 137/42/6 115/42/6 96/43/6 133/43/6
f 151/44/6 116/21/6 95/17/6 147/14/6
f 120/18/6 124/18/6 94/20/6 75/20/6
f 139/45/6 125/45/6 93/20/6 132/20/6
f 153/46/6 126/18/6 92/20/6 146/20/6
f 64/11/6 82/11/6 91/10/6 74/29/6
f 128/47/6 81/48/6 90/49/6 131/49/6
f 142/11/6 80/11/6 89/10/6 145/10/6
f 76/14/6 97/14/6 86/15/6 62/15/6
f 133/43/6 96/43/6 87/50/6 130/51/6
f 147/14/6 95/17/6 88/15/6 144/15/6
f 67/30/16 106/30/16 83/16/16 57/16/16
f 150/37/17 105/37/17 84/52/17 143/52/17
f 136/30/18 104/13/18 85/16/18 129/16/18
f 61/16/4 62/15/4 86/15/4 85/16/4
f 129/52/4 130/51/4 87/50/4 84/52/4
f 143/16/4 144/15/4 88/15/4 83/16/4
f 59/12/2 60/11/2 80/11/2 79/12/2
f 141/40/2 142/48/2 81/48/2 78/40/2
f 127/12/2 128/53/2 82/11/2 77/12/2
f 146/20/6 92/20/6 116/32/6 151/32/6
f 132/20/6 93/20/6 115/32/6 137/32/6
f 75/20/6 94/20/6 114/32/6 110/32/6
f 135/26/5 101/26/5 113/31/5 138/31/5
f 149/26/5 102/26/5 112/31/5 152/31/5
f 66/26/5 103/26/5 111/31/5 107/31/5
f 67/30/11 68/17/11 108/22/11 107/35/11
f 72/25/3 75/20/3 110/32/3 109/31/3
f 101/26/19 72/25/19 109/31/19 113/31/19
f 92/20/6 69/19/6 108/32/6 116/32/6
f 145/10/6 89/10/6 126/34/6 153/54/6
f 131/49/6 90/49/6 125/55/6 139/55/6
f 74/29/6 91/10/6 124/34/6 120/34/6
f 134/23/5 98/23/5 123/33/5 140/56/5
f 148/41/5 99/41/5 122/57/5 154/58/5
f 65/9/5 100/23/5 121/33/5 117/33/5
f 66/26/12 69/19/12 118/18/12 117/24/12
f 73/23/3 74/29/3 120/34/3 119/33/3
f 98/23/20 73/23/20 119/33/20 123/33/20
f 89/10/6 70/10/6 118/34/6 126/34/6
f 99/41/5 134/41/5 140/57/5 122/57/5
f 91/10/6 131/10/6 139/59/6 124/34/6
f 102/26/5 135/26/5 138/31/5 112/31/5
f 94/20/6 132/20/6 137/32/6 114/32/6
f 78/40/2 81/48/2 128/47/2 127/40/2
f 85/16/4 86/15/4 130/60/4 129/16/4
f 105/37/21 136/37/21 129/52/21 84/52/21
f 97/14/6 133/14/6 130/60/6 86/15/6
f 82/11/6 128/53/6 131/10/6 91/10/6
f 124/18/6 139/45/6 132/20/6 94/20/6
f 114/21/6 137/44/6 133/14/6 97/14/6
f 78/40/22 127/40/22 134/41/22 99/41/22
f 122/39/5 140/39/5 135/26/5 102/26/5
f 112/36/5 138/36/5 136/37/5 105/37/5
f 100/23/5 148/23/5 154/61/5 121/33/5
f 90/49/6 145/49/6 153/62/6 125/55/6
f 103/26/5 149/26/5 152/31/5 111/31/5
f 93/20/6 146/20/6 151/32/6 115/32/6
f 79/12/2 80/11/2 142/11/2 141/12/2
f 84/52/4 87/50/4 144/50/4 143/52/4
f 106/30/23 150/30/23 143/16/23 83/16/23
f 96/43/6 147/43/6 144/50/6 87/50/6
f 81/48/6 142/48/6 145/49/6 90/49/6
f 125/45/6 153/46/6 146/20/6 93/20/6
f 115/42/6 151/42/6 147/43/6 96/43/6
f 79/12/24 141/12/24 148/23/24 100/23/24
f 121/24/5 154/38/5 149/26/5 103/26/5
f 111/35/5 152/27/5 150/30/5 106/30/5
s 1
f 164/63/25 156/64/26 158/65/27 165/66/28
f 165/66/28 158/65/27 162/65/29 167/67/30
f 167/67/30 162/65/29 160/64/31 169/68/32
f 169/68/32 160/64/31 156/64/26 164/63/25
f 157/69/33 161/69/34 159/70/35 155/70/36
f 162/65/29 158/65/27 156/64/26 160/64/31
f 159/70/35 170/71/37 163/72/38 155/70/36
f 170/71/37 169/68/32 164/63/25 163/72/38
f 161/69/34 168/73/39 170/71/37 159/70/35
f 168/73/39 167/67/30 169/68/32 170/71/37
f 157/69/33 166/74/40 168/73/39 161/69/34
f 166/74/40 165/66/28 167/67/30 168/73/39
f 155/70/36 163/72/38 166/74/40 157/69/33
f 163/72/38 164/63/25 165/66/28 166/74/40
