# Blender 4.2.1 LTS
# www.blender.org
o bed_solar_grove_double
v -0.600000 8.400000 10.720000
v -0.600000 8.400000 9.280000
v -0.519615 8.200000 10.720000
v -0.519615 8.200000 9.280000
v -0.300000 8.053590 10.720000
v -0.300000 8.053590 9.280000
v 0.000000 8.000000 10.720000
v -0.000000 8.000000 9.280000
v 0.300000 8.053590 10.720000
v 0.300000 8.053590 9.280000
v 0.519615 8.200000 10.720000
v 0.519615 8.200000 9.280000
v 0.600000 8.400000 10.720000
v 0.600000 8.400000 9.280000
v -0.700000 8.500000 9.280000
v -0.700000 8.000000 9.280000
v 0.500000 8.000000 9.280000
v 0.500000 8.500000 9.280000
v 0.513398 8.000000 9.230000
v 0.513398 8.500000 9.230000
v 0.550000 8.000000 9.193398
v 0.550000 8.500000 9.193398
v 0.600000 8.000000 9.180000
v 0.600000 8.500000 9.180000
v 0.650000 8.000000 9.193398
v 0.650000 8.500000 9.193398
v 0.686603 8.000000 9.230000
v 0.686603 8.500000 9.230000
v 0.700000 8.000000 9.280000
v 0.700000 8.500000 9.280000
v 0.686603 8.000000 9.330000
v 0.686603 8.500000 9.330000
v 0.650000 8.000000 9.366603
v 0.650000 8.500000 9.366603
v 0.600000 8.000000 9.380000
v 0.600000 8.500000 9.380000
v 0.550000 8.000000 9.366603
v 0.550000 8.500000 9.366603
v 0.513398 8.000000 9.330000
v 0.513398 8.500000 9.330000
v -0.686602 8.000000 9.230000
v -0.686602 8.500000 9.230000
v -0.650000 8.000000 9.193398
v -0.650000 8.500000 9.193398
v -0.600000 8.000000 9.180000
v -0.600000 8.500000 9.180000
v -0.550000 8.000000 9.193398
v -0.550000 8.500000 9.193398
v -0.513397 8.000000 9.230000
v -0.513397 8.500000 9.230000
v -0.500000 8.000000 9.280000
v -0.500000 8.500000 9.280000
v -0.513397 8.000000 9.330000
v -0.513397 8.500000 9.330000
v -0.550000 8.000000 9.366603
v -0.550000 8.500000 9.366603
v -0.600000 8.000000 9.380000
v -0.600000 8.500000 9.380000
v -0.650000 8.000000 9.366602
v -0.650000 8.500000 9.366603
v -0.686602 8.000000 9.330000
v -0.686602 8.500000 9.330000
v -0.700000 8.760000 10.720000
v -0.700000 8.000000 10.720000
v -0.686603 8.000000 10.670000
v -0.686603 8.760000 10.670000
v -0.650000 8.000000 10.633397
v -0.650000 8.760000 10.633397
v -0.600000 8.000000 10.620000
v -0.600000 8.760000 10.620000
v -0.550000 8.000000 10.633397
v -0.550000 8.760000 10.633397
v -0.513398 8.000000 10.670000
v -0.513398 8.760000 10.670000
v -0.500000 8.000000 10.720000
v -0.500000 8.760000 10.720000
v -0.513398 8.000000 10.770000
v -0.513398 8.760000 10.770000
v -0.550000 8.000000 10.806602
v -0.550000 8.760000 10.806602
v -0.600000 8.000000 10.820000
v -0.600000 8.760000 10.820000
v -0.650000 8.000000 10.806602
v -0.650000 8.760000 10.806602
v -0.686603 8.000000 10.770000
v -0.686603 8.760000 10.770000
v 0.500000 8.760000 10.720000
v 0.500000 8.000000 10.720000
v 0.513397 8.000000 10.670000
v 0.513397 8.760000 10.670000
v 0.550000 8.000000 10.633397
v 0.550000 8.760000 10.633397
v 0.600000 8.000000 10.620000
v 0.600000 8.760000 10.620000
v 0.650000 8.000000 10.633397
v 0.650000 8.760000 10.633397
v 0.686602 8.000000 10.670000
v 0.686602 8.760000 10.670000
v 0.700000 8.000000 10.720000
v 0.700000 8.760000 10.720000
v 0.686602 8.000000 10.770000
v 0.686602 8.760000 10.770000
v 0.650000 8.000000 10.806602
v 0.650000 8.760000 10.806602
v 0.600000 8.000000 10.820000
v 0.600000 8.760000 10.820000
v 0.550000 8.000000 10.806602
v 0.550000 8.760000 10.806602
v 0.513397 8.000000 10.770000
v 0.513397 8.760000 10.770000
v -0.577500 8.710000 10.620000
v 0.577500 8.710000 10.620000
v -0.577500 8.510000 10.620000
v 0.577500 8.510000 10.620000
v -0.577500 8.523397 10.670000
v 0.577500 8.523397 10.670000
v -0.577500 8.560000 10.706602
v 0.577500 8.559999 10.706602
v -0.577500 8.610000 10.720000
v 0.577500 8.610000 10.720000
v -0.577500 8.660000 10.706602
v 0.577500 8.660000 10.706602
v -0.577500 8.696603 10.670000
v 0.577500 8.696603 10.670000
v -0.600000 8.420000 10.284000
v -0.600000 8.420000 9.276000
v 0.600000 8.420000 10.284000
v 0.600000 8.420000 9.276000
v -0.630000 8.220000 10.284000
v -0.630000 8.220000 9.259200
v 0.630000 8.220000 10.284000
v 0.630000 8.220000 9.259200
v -0.600000 8.420000 10.027800
v -0.600000 8.420000 9.771600
v -0.600000 8.420000 9.515400
v 0.600000 8.420000 9.515400
v 0.600000 8.420000 9.771600
v 0.600000 8.420000 10.027800
v -0.630000 8.320000 10.027800
v -0.630000 8.220000 9.771600
v -0.630000 8.320000 9.515400
v 0.630000 8.320000 9.515400
v 0.630000 8.220000 9.771600
v 0.630000 8.320000 10.027800
v -0.315000 8.420000 9.276000
v -0.000000 8.420000 9.276000
v 0.315000 8.420000 9.276000
v -0.315000 8.420000 10.284000
v 0.000000 8.420000 10.284000
v 0.315000 8.420000 10.284000
v -0.315000 8.320000 9.259200
v -0.000000 8.220000 9.259200
v 0.315000 8.320000 9.259200
v -0.315000 8.320000 10.284000
v 0.000000 8.220000 10.284000
v 0.315000 8.320000 10.284000
v 0.315000 8.220000 10.027800
v 0.000000 8.220000 10.027800
v -0.315000 8.220000 10.027800
v 0.315000 8.220000 9.771600
v 0.000000 8.220000 9.771600
v -0.315000 8.220000 9.771600
v 0.315000 8.220000 9.515400
v 0.000000 8.220000 9.515400
v -0.315000 8.220000 9.515400
v -0.315000 8.420000 10.027800
v 0.000000 8.420000 10.027800
v 0.315000 8.420000 10.027800
v -0.315000 8.420000 9.771600
v 0.000000 8.420000 9.771600
v 0.315000 8.420000 9.771600
v -0.315000 8.420000 9.515400
v 0.000000 8.420000 9.515400
v 0.315000 8.420000 9.515400
v 0.562500 8.400000 10.640000
v 0.411562 8.530000 10.553750
v 0.037500 8.400000 10.640000
v 0.188437 8.530000 10.553750
v 0.562500 8.400000 10.340000
v 0.411563 8.530000 10.426250
v 0.037500 8.400000 10.340000
v 0.188437 8.530000 10.426250
v 0.562500 8.450000 10.640000
v 0.523125 8.500000 10.617500
v 0.076875 8.500000 10.617500
v 0.037500 8.450000 10.640000
v 0.076875 8.500000 10.362500
v 0.037500 8.450000 10.340000
v 0.523125 8.500000 10.362500
v 0.562500 8.450000 10.340000
v -0.037500 8.400000 10.640000
v -0.188438 8.530000 10.553750
v -0.562500 8.400000 10.640000
v -0.411563 8.530000 10.553750
v -0.037500 8.400000 10.340000
v -0.188438 8.530000 10.426250
v -0.562500 8.400000 10.340000
v -0.411563 8.530000 10.426250
v -0.037500 8.450000 10.640000
v -0.076875 8.500000 10.617500
v -0.523125 8.500000 10.617500
v -0.562500 8.450000 10.640000
v -0.523125 8.500000 10.362500
v -0.562500 8.450000 10.340000
v -0.076875 8.500000 10.362500
v -0.037500 8.450000 10.340000
vn -0.9279 -0.3729 -0.0000
vn -0.7760 -0.6307 -0.0000
vn -0.3731 -0.9278 -0.0000
vn -0.0000 -1.0000 -0.0000
vn 0.3731 -0.9278 -0.0000
vn 0.7760 -0.6307 -0.0000
vn 0.9279 -0.3729 -0.0000
vn -0.0000 -0.0000 1.0000
vn -0.0000 -0.0000 -1.0000
vn -0.0000 1.0000 -0.0000
vn 0.5000 -0.0000 -0.8660
vn -1.0000 -0.0000 -0.0000
vn -0.8660 -0.0000 -0.5000
vn -0.5000 -0.0000 0.8660
vn -0.5000 -0.0000 -0.8660
vn 0.8660 -0.0000 -0.5000
vn 1.0000 -0.0000 -0.0000
vn 0.5000 -0.0000 0.8660
vn 0.8660 -0.0000 0.5000
vn -0.8660 -0.0000 0.5000
vn -0.0000 -0.9659 0.2588
vn -0.0000 -0.8660 0.5000
vn -0.0000 -0.5000 0.8660
vn -0.0000 0.5000 0.8660
vn -0.0000 0.8660 0.5000
vn -0.0000 0.9659 0.2588
vn 0.0789 -0.9921 -0.0971
vn 0.0776 -0.9924 -0.0954
vn -0.0006 0.1122 -0.9937
vn -0.0189 0.1131 -0.9934
vn -0.9806 0.1961 -0.0000
vn -0.9799 0.1960 0.0382
vn 0.9804 0.1972 -0.0009
vn 0.9794 0.1981 -0.0400
vn 0.9799 0.1960 0.0382
vn 0.9806 0.1961 -0.0000
vn -0.9794 0.1981 -0.0400
vn -0.9804 0.1972 -0.0009
vn 0.0776 -0.9924 0.0954
vn 0.0789 -0.9921 0.0971
vn 0.0779 -0.9970 -0.0000
vn 0.1568 -0.9876 -0.0000
vn -0.1568 -0.9876 -0.0000
vn -0.0776 -0.9924 -0.0954
vn -0.0789 -0.9921 -0.0971
vn -0.0779 -0.9970 -0.0000
vn -0.0000 -0.9954 -0.0956
vn -0.0776 -0.9924 0.0954
vn -0.0789 -0.9921 0.0971
vn -0.0000 -0.9954 0.0956
vn -0.0000 -0.9815 0.1915
vn 0.0189 0.1131 -0.9934
vn 0.0006 0.1122 -0.9937
vn -0.0000 0.1113 -0.9938
vn -0.0000 -0.9815 -0.1915
vn 0.3853 0.7848 0.4854
vn 0.0893 0.9792 0.1820
vn -0.0893 0.9792 0.1820
vn -0.3853 0.7848 0.4854
vn -0.0893 0.9792 -0.1820
vn -0.3853 0.7848 -0.4854
vn 0.0893 0.9792 -0.1820
vn 0.3853 0.7848 -0.4854
vn 0.9578 0.2874 -0.0000
vn -0.0000 0.1577 -0.9875
vn -0.9578 0.2874 -0.0000
vn -0.0000 0.1577 0.9875
vt 0.223650 0.961912
vt 0.223650 0.961912
vt 0.210787 0.496965
vt 0.210786 0.496965
vt 0.175644 0.156600
vt 0.175644 0.156600
vt 0.127637 0.032018
vt 0.127637 0.032018
vt 0.079631 0.156600
vt 0.079631 0.156600
vt 0.044488 0.496965
vt 0.044488 0.496965
vt 0.031625 0.961912
vt 0.031625 0.961912
vt 0.123556 0.504181
vt 0.123556 0.982068
vt 0.079795 0.982068
vt 0.079795 0.504181
vt 0.199352 0.982068
vt 0.211077 0.982068
vt 0.199352 0.982068
vt 0.167316 0.982068
vt 0.123555 0.982068
vt 0.079795 0.982068
vt 0.047760 0.982068
vt 0.036034 0.982068
vt 0.167316 0.982068
vt 0.211077 0.504181
vt 0.199352 0.504181
vt 0.167316 0.504181
vt 0.047760 0.504181
vt 0.036034 0.504181
vt 0.123555 0.504181
vt 0.199352 0.504181
vt 0.223372 0.610893
vt 0.024090 0.610893
vt 0.024090 0.635950
vt 0.223372 0.635950
vt 0.024090 0.704407
vt 0.223372 0.704407
vt 0.024090 0.797922
vt 0.223372 0.797922
vt 0.024090 0.891436
vt 0.223372 0.891436
vt 0.024090 0.984951
vt 0.024090 0.959894
vt 0.223372 0.959894
vt 0.223372 0.984951
vt 0.325725 0.961912
vt 0.277719 0.961912
vt 0.277719 0.961912
vt 0.325725 0.961912
vt 0.325725 0.961912
vt 0.277719 0.961912
vt 0.421737 0.961912
vt 0.469743 0.961912
vt 0.469743 0.961912
vt 0.469743 0.961912
vt 0.325725 0.961912
vt 0.277719 0.961912
vt 0.277719 0.961912
vt 0.277719 0.961912
vt 0.277719 0.961912
vt 0.277719 0.961912
vt 0.469743 0.961912
vt 0.469743 0.961912
vt 0.469743 0.961912
vt 0.469743 0.961912
vt 0.325725 0.961912
vt 0.325725 0.961912
vt 0.325725 0.961912
vt 0.421737 0.961912
vt 0.421737 0.961912
vt 0.373731 0.961912
vt 0.373731 0.961912
vt 0.421737 0.961912
vt 0.373731 0.961912
vt 0.421737 0.961912
vt 0.373731 0.961912
vt 0.421737 0.961912
vt 0.373731 0.961912
vt 0.421737 0.961912
vt 0.373731 0.961912
vt 0.373731 0.961912
vt 0.276204 0.856395
vt 0.276204 0.977424
vt 0.471259 0.977424
vt 0.471259 0.856395
vt 0.471258 0.856395
vt 0.276204 0.856395
vt 0.471259 0.614338
vt 0.276204 0.614338
vt 0.276204 0.735367
vt 0.276204 0.735367
vt 0.471259 0.735367
vt 0.471259 0.735367
s 1
f 1/1/1 2/2/1 4/3/2 3/4/2
f 3/4/2 4/3/2 6/5/3 5/6/3
f 5/6/3 6/5/3 8/7/4 7/8/4
f 7/8/4 8/7/4 10/9/5 9/10/5
f 9/10/5 10/9/5 12/11/6 11/12/6
f 11/12/6 12/11/6 14/13/7 13/14/7
f 1/1/8 3/4/8 5/6/8 7/8/8 9/10/8 11/12/8 13/14/8
f 4/3/9 2/2/9 14/13/9 12/11/9 10/9/9 8/7/9 6/5/9
f 1/1/10 13/14/10 14/13/10 2/2/10
f 69/15/9 70/16/9 72/17/11 71/18/11
f 42/19/10 15/20/10 62/21/10 60/22/10 58/23/10 56/24/10 54/25/10 52/26/10 50/25/10 48/17/10 46/16/10 44/27/10
f 17/28/12 18/20/12 20/19/13 19/29/13
f 64/28/4 65/29/4 67/30/4 69/15/4 71/18/4 73/31/4 75/32/4 77/31/4 79/18/4 81/33/4 83/30/4 85/34/4
f 57/33/8 58/23/8 60/22/14 59/30/14
f 19/29/13 20/19/13 22/27/15 21/30/15
f 73/31/16 74/25/16 76/26/17 75/32/17
f 55/18/18 56/24/18 58/23/8 57/33/8
f 21/30/15 22/27/15 24/16/9 23/15/9
f 75/32/17 76/26/17 78/25/19 77/31/19
f 53/31/19 54/25/19 56/24/18 55/18/18
f 23/15/9 24/16/9 26/17/11 25/18/11
f 77/31/19 78/25/19 80/24/18 79/18/18
f 51/32/17 52/26/17 54/25/19 53/31/19
f 25/18/11 26/17/11 28/25/16 27/31/16
f 79/18/18 80/24/18 82/23/8 81/33/8
f 49/31/16 50/25/16 52/26/17 51/32/17
f 27/31/16 28/25/16 30/26/17 29/32/17
f 81/33/8 82/23/8 84/22/14 83/30/14
f 47/18/11 48/17/11 50/25/16 49/31/16
f 29/32/17 30/26/17 32/25/19 31/31/19
f 66/19/10 63/20/10 86/21/10 84/22/10 82/23/10 80/24/10 78/25/10 76/26/10 74/25/10 72/17/10 70/16/10 68/27/10
f 45/15/9 46/16/9 48/17/11 47/18/11
f 31/31/19 32/25/19 34/24/18 33/18/18
f 16/28/4 41/29/4 43/30/4 45/15/4 47/18/4 49/31/4 51/32/4 53/31/4 55/18/4 57/33/4 59/30/4 61/34/4
f 43/30/15 44/27/15 46/16/9 45/15/9
f 33/18/18 34/24/18 36/23/8 35/33/8
f 61/34/20 62/21/20 15/20/12 16/28/12
f 41/29/13 42/19/13 44/27/15 43/30/15
f 35/33/8 36/23/8 38/22/14 37/30/14
f 20/19/10 18/20/10 40/21/10 38/22/10 36/23/10 34/24/10 32/25/10 30/26/10 28/25/10 26/17/10 24/16/10 22/27/10
f 16/28/12 15/20/12 42/19/13 41/29/13
f 37/30/14 38/22/14 40/21/20 39/34/20
f 71/18/11 72/17/11 74/25/16 73/31/16
f 59/30/14 60/22/14 62/21/20 61/34/20
f 39/34/20 40/21/20 18/20/12 17/28/12
f 17/28/4 19/29/4 21/30/4 23/15/4 25/18/4 27/31/4 29/32/4 31/31/4 33/18/4 35/33/4 37/30/4 39/34/4
f 67/30/15 68/27/15 70/16/9 69/15/9
f 85/34/20 86/21/20 63/20/12 64/28/12
f 65/29/13 66/19/13 68/27/15 67/30/15
f 64/28/12 63/20/12 66/19/13 65/29/13
f 83/30/14 84/22/14 86/21/20 85/34/20
f 93/15/9 94/16/9 96/17/11 95/18/11
f 88/28/4 89/29/4 91/30/4 93/15/4 95/18/4 97/31/4 99/32/4 101/31/4 103/18/4 105/33/4 107/30/4 109/34/4
f 97/31/16 98/25/16 100/26/17 99/32/17
f 99/32/17 100/26/17 102/25/19 101/31/19
f 101/31/19 102/25/19 104/24/18 103/18/18
f 103/18/18 104/24/18 106/23/8 105/33/8
f 105/33/8 106/23/8 108/22/14 107/30/14
f 90/19/10 87/20/10 110/21/10 108/22/10 106/23/10 104/24/10 102/25/10 100/26/10 98/25/10 96/17/10 94/16/10 92/27/10
f 95/18/11 96/17/11 98/25/16 97/31/16
f 91/30/15 92/27/15 94/16/9 93/15/9
f 109/34/20 110/21/20 87/20/12 88/28/12
f 89/29/13 90/19/13 92/27/15 91/30/15
f 88/28/12 87/20/12 90/19/13 89/29/13
f 107/30/14 108/22/14 110/21/20 109/34/20
f 113/35/21 114/36/21 116/37/22 115/38/22
f 115/38/22 116/37/22 118/39/23 117/40/23
f 117/40/23 118/39/23 120/41/8 119/42/8
f 119/42/8 120/41/8 122/43/24 121/44/24
f 112/45/17 124/46/17 122/43/17 120/41/17 118/39/17 116/37/17 114/36/17
f 121/44/24 122/43/24 124/46/25 123/47/25
f 123/47/25 124/46/25 112/45/26 111/48/26
f 123/47/12 111/48/12 113/35/12 115/38/12 117/40/12 119/42/12 121/44/12
f 111/48/9 112/45/9 114/36/9 113/35/9
f 174/49/10 136/50/10 128/51/10 147/52/10
f 163/53/27 153/52/28 132/51/4 142/54/28
f 145/55/29 151/55/29 130/56/30 126/56/30
f 133/57/31 139/57/31 129/58/32 125/58/32
f 150/59/8 156/59/8 131/60/8 127/60/8
f 136/50/33 142/54/33 132/51/34 128/51/34
f 127/60/35 131/60/35 144/61/36 138/62/36
f 138/62/36 144/61/36 143/63/36 137/64/36
f 137/64/36 143/63/36 142/54/33 136/50/33
f 126/56/37 130/56/37 141/65/38 135/66/38
f 135/66/38 141/65/38 140/67/31 134/68/31
f 134/68/31 140/67/31 139/57/31 133/57/31
f 156/59/39 157/59/40 144/61/39 131/60/4
f 157/59/40 160/69/41 143/63/42 144/61/39
f 160/69/41 163/53/27 142/54/28 143/63/42
f 150/59/10 127/60/10 138/62/10 168/70/10
f 168/70/10 138/62/10 137/64/10 171/71/10
f 171/71/10 137/64/10 136/50/10 174/49/10
f 134/68/10 169/72/10 172/73/10 135/66/10
f 169/72/10 170/74/10 173/75/10 172/73/10
f 170/74/10 171/71/10 174/49/10 173/75/10
f 133/57/10 166/76/10 169/72/10 134/68/10
f 166/76/10 167/77/10 170/74/10 169/72/10
f 167/77/10 168/70/10 171/71/10 170/74/10
f 125/58/10 148/78/10 166/76/10 133/57/10
f 148/78/10 149/79/10 167/77/10 166/76/10
f 149/79/10 150/59/10 168/70/10 167/77/10
f 140/67/43 141/65/44 165/80/45 162/72/46
f 162/72/46 165/80/45 164/81/47 161/74/4
f 161/74/4 164/81/47 163/53/27 160/69/41
f 139/57/48 140/67/43 162/72/46 159/82/49
f 159/82/49 162/72/46 161/74/4 158/83/50
f 158/83/50 161/74/4 160/69/41 157/59/40
f 129/58/4 139/57/48 159/82/49 154/78/48
f 154/78/48 159/82/49 158/83/50 155/79/51
f 155/79/51 158/83/50 157/59/40 156/59/39
f 125/58/8 129/58/8 154/78/8 148/78/8
f 148/78/8 154/78/8 155/79/8 149/79/8
f 149/79/8 155/79/8 156/59/8 150/59/8
f 128/51/52 132/51/52 153/52/53 147/52/53
f 147/52/53 153/52/53 152/84/54 146/84/54
f 146/84/54 152/84/54 151/55/29 145/55/29
f 141/65/44 130/56/4 151/55/44 165/80/45
f 165/80/45 151/55/44 152/84/55 164/81/47
f 164/81/47 152/84/55 153/52/28 163/53/27
f 135/66/10 172/73/10 145/55/10 126/56/10
f 172/73/10 173/75/10 146/84/10 145/55/10
f 173/75/10 174/49/10 147/52/10 146/84/10
f 184/85/56 176/86/57 178/87/58 185/88/59
f 185/88/59 178/87/58 182/87/60 187/89/61
f 187/89/61 182/87/60 180/86/62 189/90/63
f 189/90/63 180/86/62 176/86/57 184/85/56
f 177/91/4 181/91/4 179/92/4 175/92/4
f 182/87/60 178/87/58 176/86/57 180/86/62
f 179/92/17 190/93/64 183/94/64 175/92/17
f 190/93/64 189/90/63 184/85/56 183/94/64
f 181/91/9 188/95/65 190/93/65 179/92/9
f 188/95/65 187/89/61 189/90/63 190/93/65
f 177/91/12 186/96/66 188/95/66 181/91/12
f 186/96/66 185/88/59 187/89/61 188/95/66
f 175/92/8 183/94/67 186/96/67 177/91/8
f 183/94/67 184/85/56 185/88/59 186/96/67
f 200/85/56 192/86/57 194/87/58 201/88/59
f 201/88/59 194/87/58 198/87/60 203/89/61
f 203/89/61 198/87/60 196/86/62 205/90/63
f 205/90/63 196/86/62 192/86/57 200/85/56
f 193/91/4 197/91/4 195/92/4 191/92/4
f 198/87/60 194/87/58 192/86/57 196/86/62
f 195/92/17 206/93/64 199/94/64 191/92/17
f 206/93/64 205/90/63 200/85/56 199/94/64
f 197/91/9 204/95/65 206/93/65 195/92/9
f 204/95/65 203/89/61 205/90/63 206/93/65
f 193/91/12 202/96/66 204/95/66 197/91/12
f 202/96/66 201/88/59 203/89/61 204/95/66
f 191/92/8 199/94/67 202/96/67 193/91/8
f 199/94/67 200/85/56 201/88/59 202/96/67
