# Blender 3.4.1
# www.blender.org
mtllib slash.mtl
o Cylinder
v -0.027283 -0.242041 0.616187
v -0.027283 0.244235 0.616187
v -0.147495 -0.242041 0.604347
v -0.147495 0.244235 0.604347
v -0.263087 -0.242041 0.569282
v -0.263087 0.244235 0.569282
v -0.369617 -0.242041 0.512340
v -0.369617 0.244235 0.512340
v -0.462992 -0.242041 0.435710
v -0.462992 0.244235 0.435710
v -0.539623 -0.242041 0.342335
v -0.539623 0.244235 0.342335
v -0.596565 -0.242041 0.235804
v -0.596565 0.244235 0.235804
v -0.631629 -0.242041 0.120212
v -0.631629 0.244235 0.120212
v -0.643469 -0.242041 -0.000000
v -0.643469 0.244235 -0.000000
v -0.631629 -0.242041 -0.120212
v -0.631629 0.244235 -0.120212
v -0.596565 -0.242041 -0.235804
v -0.596565 0.244235 -0.235804
v -0.539623 -0.242041 -0.342335
v -0.539623 0.244235 -0.342335
v -0.462992 -0.242041 -0.435710
v -0.462992 0.244235 -0.435710
v -0.369617 -0.242041 -0.512340
v -0.369617 0.244235 -0.512340
v -0.263087 -0.242041 -0.569282
v -0.263087 0.244235 -0.569282
v -0.147495 -0.242041 -0.604347
v -0.147495 0.244235 -0.604347
v -0.027283 -0.242041 -0.616187
v -0.027283 0.244235 -0.616187
v 0.092930 -0.242041 -0.604347
v 0.092930 0.244235 -0.604347
v 0.208522 -0.242041 -0.569282
v 0.208522 0.244235 -0.569282
v 0.315052 -0.242041 -0.512340
v 0.315052 0.244235 -0.512340
v 0.315052 -0.242041 0.512340
v 0.315052 0.244235 0.512340
v 0.208522 -0.242041 0.569282
v 0.208522 0.244235 0.569282
v 0.092930 -0.242041 0.604347
v 0.092930 0.244235 0.604347
v 0.000000 0.002267 1.338715
v -0.261170 0.002267 1.312992
v -0.512304 0.002267 1.236812
v -0.743750 0.002267 1.113101
v -0.946615 0.002267 0.946615
v -1.113101 0.002267 0.743750
v -1.236812 0.002267 0.512304
v -1.312992 0.002267 0.261170
v -1.338715 0.002267 -0.000000
v -1.312992 0.002267 -0.261170
v -1.236812 0.002267 -0.512304
v -1.113101 0.002267 -0.743750
v -0.946615 0.002267 -0.946615
v -0.743750 0.002267 -1.113101
v -0.512304 0.002267 -1.236812
v -0.261170 0.002267 -1.312992
v 0.000000 0.002267 -1.338715
v 0.261170 0.002267 -1.312992
v 0.512304 0.002267 -1.236812
v 0.743750 0.002267 -1.113101
v 0.743750 0.002267 1.113101
v 0.512304 0.002267 1.236812
v 0.261170 0.002267 1.312992
v -0.027283 0.176555 1.007951
v -0.223924 0.176555 0.988583
v -0.413009 0.176555 0.931225
v -0.587270 0.176555 0.838080
v -0.740011 0.176555 0.712729
v -0.865363 0.176555 0.559987
v -0.958507 0.176555 0.385726
v -1.015866 0.176555 0.196641
v -1.035233 0.176555 0.000000
v -1.015866 0.176555 -0.196641
v -0.958507 0.176555 -0.385726
v -0.865363 0.176555 -0.559987
v -0.740011 0.176555 -0.712729
v -0.587270 0.176555 -0.838080
v -0.413009 0.176555 -0.931225
v -0.223924 0.176555 -0.988583
v -0.027283 0.176555 -1.007951
v 0.169359 0.176555 -0.988583
v 0.358444 0.176555 -0.931225
v 0.532705 0.176555 -0.838080
v 0.532705 0.176555 0.838080
v 0.358444 0.176555 0.931225
v 0.169359 0.176555 0.988583
v -0.223924 -0.172953 0.988583
v -0.413009 -0.172953 0.931225
v -0.587270 -0.172953 0.838080
v -0.740011 -0.172953 0.712729
v -0.865363 -0.172953 0.559987
v -0.958507 -0.172953 0.385726
v -1.015866 -0.172953 0.196641
v -1.035233 -0.172953 0.000000
v -1.015866 -0.172953 -0.196641
v -0.958507 -0.172953 -0.385726
v -0.865363 -0.172953 -0.559987
v -0.740011 -0.172953 -0.712729
v -0.587270 -0.172953 -0.838080
v -0.413009 -0.172953 -0.931225
v -0.223924 -0.172953 -0.988583
v -0.027283 -0.172953 -1.007951
v 0.169359 -0.172953 -0.988583
v 0.358444 -0.172953 -0.931225
v 0.532705 -0.172953 -0.838080
v 0.532705 -0.172953 0.838080
v 0.358444 -0.172953 0.931225
v 0.169359 -0.172953 0.988583
v -0.027283 -0.172953 1.007951
vn -0.0168 0.9853 0.1702
vn -0.0496 0.9853 0.1637
vn -0.0806 0.9853 0.1508
vn -0.1085 0.9853 0.1322
vn -0.1322 0.9853 0.1085
vn -0.1508 0.9853 0.0806
vn -0.1637 0.9853 0.0496
vn -0.1702 0.9853 0.0168
vn -0.1702 0.9853 -0.0168
vn -0.1637 0.9853 -0.0496
vn -0.1508 0.9853 -0.0806
vn -0.1322 0.9853 -0.1085
vn -0.1085 0.9853 -0.1322
vn -0.0806 0.9853 -0.1508
vn -0.0496 0.9853 -0.1637
vn -0.0168 0.9853 -0.1702
vn 0.0168 0.9853 -0.1702
vn 0.0496 0.9853 -0.1637
vn 0.0806 0.9853 -0.1508
vn 0.0806 0.9853 0.1508
vn 0.0496 0.9853 0.1637
vn 0.0168 0.9853 0.1702
vn 0.0458 -0.8843 0.4647
vn 0.1339 -0.8873 0.4414
vn 0.2149 -0.8900 0.4021
vn 0.2149 -0.8900 -0.4021
vn 0.1339 -0.8873 -0.4414
vn 0.0458 -0.8843 -0.4647
vn -0.0463 -0.8811 -0.4706
vn -0.1390 -0.8779 -0.4582
vn -0.2284 -0.8748 -0.4273
vn -0.3107 -0.8718 -0.3786
vn -0.3822 -0.8692 -0.3136
vn -0.4392 -0.8672 -0.2348
vn -0.4790 -0.8657 -0.1453
vn -0.4994 -0.8650 -0.0492
vn -0.4994 -0.8650 0.0492
vn -0.4790 -0.8657 0.1453
vn -0.4392 -0.8672 0.2348
vn -0.3822 -0.8692 0.3136
vn -0.3107 -0.8718 0.3786
vn -0.2284 -0.8748 0.4273
vn -0.1390 -0.8779 0.4582
vn -0.0463 -0.8811 0.4706
vn 0.0456 0.8853 0.4627
vn 0.1333 0.8883 0.4395
vn 0.2140 0.8910 0.4004
vn 0.2140 0.8910 -0.4004
vn 0.1333 0.8883 -0.4395
vn 0.0456 0.8853 -0.4627
vn -0.0462 0.8822 -0.4687
vn -0.1384 0.8790 -0.4563
vn -0.2275 0.8758 -0.4256
vn -0.3095 0.8729 -0.3771
vn -0.3806 0.8704 -0.3124
vn -0.4374 0.8683 -0.2338
vn -0.4771 0.8669 -0.1447
vn -0.4974 0.8661 -0.0490
vn -0.4974 0.8661 0.0490
vn -0.4771 0.8669 0.1447
vn -0.4374 0.8683 0.2338
vn -0.3806 0.8704 0.3124
vn -0.3095 0.8729 0.3771
vn -0.2275 0.8758 0.4256
vn -0.1384 0.8790 0.4563
vn -0.0462 0.8822 0.4687
vn -0.0171 -0.9847 0.1736
vn -0.0507 -0.9847 0.1670
vn -0.0823 -0.9847 0.1539
vn -0.1107 -0.9847 0.1349
vn -0.1349 -0.9847 0.1107
vn -0.1539 -0.9847 0.0823
vn -0.1670 -0.9847 0.0507
vn -0.1736 -0.9847 0.0171
vn -0.1736 -0.9847 -0.0171
vn -0.1670 -0.9847 -0.0507
vn -0.1539 -0.9847 -0.0823
vn -0.1349 -0.9847 -0.1107
vn -0.1107 -0.9847 -0.1349
vn -0.0823 -0.9847 -0.1539
vn -0.0507 -0.9847 -0.1670
vn -0.0171 -0.9847 -0.1736
vn 0.0171 -0.9847 -0.1736
vn 0.0507 -0.9847 -0.1670
vn 0.0823 -0.9847 -0.1539
vn 0.0823 -0.9847 0.1539
vn 0.0507 -0.9847 0.1670
vn 0.0171 -0.9847 0.1736
vt 1.000000 0.500000
vt 0.000000 0.500000
vt 1.000000 1.000000
vt 0.000000 1.000000
vt 0.968750 0.500000
vt 0.968750 1.000000
vt 0.937500 0.500000
vt 0.937500 1.000000
vt 0.906250 0.500000
vt 0.906250 1.000000
vt 0.875000 0.500000
vt 0.875000 1.000000
vt 0.843750 0.500000
vt 0.843750 1.000000
vt 0.812500 0.500000
vt 0.812500 1.000000
vt 0.781250 0.500000
vt 0.781250 1.000000
vt 0.750000 0.500000
vt 0.750000 1.000000
vt 0.718750 0.500000
vt 0.718750 1.000000
vt 0.687500 0.500000
vt 0.687500 1.000000
vt 0.656250 0.500000
vt 0.656250 1.000000
vt 0.625000 0.500000
vt 0.625000 1.000000
vt 0.593750 0.500000
vt 0.593750 1.000000
vt 0.562500 0.500000
vt 0.562500 1.000000
vt 0.531250 0.500000
vt 0.531250 1.000000
vt 0.500000 0.500000
vt 0.500000 1.000000
vt 0.468750 0.500000
vt 0.468750 1.000000
vt 0.437500 0.500000
vt 0.437500 1.000000
vt 0.406250 0.500000
vt 0.406250 1.000000
vt 0.093750 0.500000
vt 0.093750 1.000000
vt 0.062500 0.500000
vt 0.062500 1.000000
vt 0.031250 0.500000
vt 0.031250 1.000000
vt 0.000000 0.751008
vt 1.000000 0.751008
vt 0.968750 0.751008
vt 0.937500 0.751008
vt 0.906250 0.751008
vt 0.875000 0.751008
vt 0.843750 0.751008
vt 0.812500 0.751008
vt 0.781250 0.751008
vt 0.750000 0.751008
vt 0.718750 0.751008
vt 0.687500 0.751008
vt 0.656250 0.751008
vt 0.625000 0.751008
vt 0.593750 0.751008
vt 0.562500 0.751008
vt 0.531250 0.751008
vt 0.500000 0.751008
vt 0.468750 0.751008
vt 0.437500 0.751008
vt 0.406250 0.751008
vt 0.093750 0.751008
vt 0.062500 0.751008
vt 0.031250 0.751008
vt 0.000000 0.875504
vt 1.000000 0.875504
vt 0.968750 0.875504
vt 0.937500 0.875504
vt 0.906250 0.875504
vt 0.875000 0.875504
vt 0.843750 0.875504
vt 0.812500 0.875504
vt 0.781250 0.875504
vt 0.750000 0.875504
vt 0.718750 0.875504
vt 0.687500 0.875504
vt 0.656250 0.875504
vt 0.625000 0.875504
vt 0.593750 0.875504
vt 0.562500 0.875504
vt 0.531250 0.875504
vt 0.500000 0.875504
vt 0.468750 0.875504
vt 0.437500 0.875504
vt 0.406250 0.875504
vt 0.093750 0.875504
vt 0.062500 0.875504
vt 0.031250 0.875504
vt 0.968750 0.625504
vt 0.937500 0.625504
vt 0.906250 0.625504
vt 0.875000 0.625504
vt 0.843750 0.625504
vt 0.812500 0.625504
vt 0.781250 0.625504
vt 0.750000 0.625504
vt 0.718750 0.625504
vt 0.687500 0.625504
vt 0.656250 0.625504
vt 0.625000 0.625504
vt 0.593750 0.625504
vt 0.562500 0.625504
vt 0.531250 0.625504
vt 0.500000 0.625504
vt 0.468750 0.625504
vt 0.437500 0.625504
vt 0.406250 0.625504
vt 0.093750 0.625504
vt 0.062500 0.625504
vt 0.031250 0.625504
vt 1.000000 0.625504
vt 0.000000 0.625504
s 0
f 70/74/1 2/3/1 4/6/1 71/75/1
f 71/75/2 4/6/2 6/8/2 72/76/2
f 72/76/3 6/8/3 8/10/3 73/77/3
f 73/77/4 8/10/4 10/12/4 74/78/4
f 74/78/5 10/12/5 12/14/5 75/79/5
f 75/79/6 12/14/6 14/16/6 76/80/6
f 76/80/7 14/16/7 16/18/7 77/81/7
f 77/81/8 16/18/8 18/20/8 78/82/8
f 78/82/9 18/20/9 20/22/9 79/83/9
f 79/83/10 20/22/10 22/24/10 80/84/10
f 80/84/11 22/24/11 24/26/11 81/85/11
f 81/85/12 24/26/12 26/28/12 82/86/12
f 82/86/13 26/28/13 28/30/13 83/87/13
f 83/87/14 28/30/14 30/32/14 84/88/14
f 84/88/15 30/32/15 32/34/15 85/89/15
f 85/89/16 32/34/16 34/36/16 86/90/16
f 86/90/17 34/36/17 36/38/17 87/91/17
f 87/91/18 36/38/18 38/40/18 88/92/18
f 88/92/19 38/40/19 40/42/19 89/93/19
f 90/94/20 42/44/20 44/46/20 91/95/20
f 91/95/21 44/46/21 46/48/21 92/96/21
f 92/96/22 46/48/22 2/4/22 70/73/22
f 114/118/23 69/72/23 47/49/23 115/120/23
f 113/117/24 68/71/24 69/72/24 114/118/24
f 112/116/25 67/70/25 68/71/25 113/117/25
f 110/114/26 65/68/26 66/69/26 111/115/26
f 109/113/27 64/67/27 65/68/27 110/114/27
f 108/112/28 63/66/28 64/67/28 109/113/28
f 107/111/29 62/65/29 63/66/29 108/112/29
f 106/110/30 61/64/30 62/65/30 107/111/30
f 105/109/31 60/63/31 61/64/31 106/110/31
f 104/108/32 59/62/32 60/63/32 105/109/32
f 103/107/33 58/61/33 59/62/33 104/108/33
f 102/106/34 57/60/34 58/61/34 103/107/34
f 101/105/35 56/59/35 57/60/35 102/106/35
f 100/104/36 55/58/36 56/59/36 101/105/36
f 99/103/37 54/57/37 55/58/37 100/104/37
f 98/102/38 53/56/38 54/57/38 99/103/38
f 97/101/39 52/55/39 53/56/39 98/102/39
f 96/100/40 51/54/40 52/55/40 97/101/40
f 95/99/41 50/53/41 51/54/41 96/100/41
f 94/98/42 49/52/42 50/53/42 95/99/42
f 93/97/43 48/51/43 49/52/43 94/98/43
f 115/119/44 47/50/44 48/51/44 93/97/44
f 69/72/45 92/96/45 70/73/45 47/49/45
f 68/71/46 91/95/46 92/96/46 69/72/46
f 67/70/47 90/94/47 91/95/47 68/71/47
f 65/68/48 88/92/48 89/93/48 66/69/48
f 64/67/49 87/91/49 88/92/49 65/68/49
f 63/66/50 86/90/50 87/91/50 64/67/50
f 62/65/51 85/89/51 86/90/51 63/66/51
f 61/64/52 84/88/52 85/89/52 62/65/52
f 60/63/53 83/87/53 84/88/53 61/64/53
f 59/62/54 82/86/54 83/87/54 60/63/54
f 58/61/55 81/85/55 82/86/55 59/62/55
f 57/60/56 80/84/56 81/85/56 58/61/56
f 56/59/57 79/83/57 80/84/57 57/60/57
f 55/58/58 78/82/58 79/83/58 56/59/58
f 54/57/59 77/81/59 78/82/59 55/58/59
f 53/56/60 76/80/60 77/81/60 54/57/60
f 52/55/61 75/79/61 76/80/61 53/56/61
f 51/54/62 74/78/62 75/79/62 52/55/62
f 50/53/63 73/77/63 74/78/63 51/54/63
f 49/52/64 72/76/64 73/77/64 50/53/64
f 48/51/65 71/75/65 72/76/65 49/52/65
f 47/50/66 70/74/66 71/75/66 48/51/66
f 1/1/67 115/119/67 93/97/67 3/5/67
f 3/5/68 93/97/68 94/98/68 5/7/68
f 5/7/69 94/98/69 95/99/69 7/9/69
f 7/9/70 95/99/70 96/100/70 9/11/70
f 9/11/71 96/100/71 97/101/71 11/13/71
f 11/13/72 97/101/72 98/102/72 13/15/72
f 13/15/73 98/102/73 99/103/73 15/17/73
f 15/17/74 99/103/74 100/104/74 17/19/74
f 17/19/75 100/104/75 101/105/75 19/21/75
f 19/21/76 101/105/76 102/106/76 21/23/76
f 21/23/77 102/106/77 103/107/77 23/25/77
f 23/25/78 103/107/78 104/108/78 25/27/78
f 25/27/79 104/108/79 105/109/79 27/29/79
f 27/29/80 105/109/80 106/110/80 29/31/80
f 29/31/81 106/110/81 107/111/81 31/33/81
f 31/33/82 107/111/82 108/112/82 33/35/82
f 33/35/83 108/112/83 109/113/83 35/37/83
f 35/37/84 109/113/84 110/114/84 37/39/84
f 37/39/85 110/114/85 111/115/85 39/41/85
f 41/43/86 112/116/86 113/117/86 43/45/86
f 43/45/87 113/117/87 114/118/87 45/47/87
f 45/47/88 114/118/88 115/120/88 1/2/88
