# Blender 3.4.1
# www.blender.org
mtllib bushnw.mtl
o Bush_nw
v -0.000000 0.866025 0.500000
v -0.000000 0.500000 0.866025
v -0.000000 0.000000 1.000000
v -0.000000 -0.421699 0.866025
v -0.000000 -0.572943 0.500000
v 0.000000 1.000000 0.000000
v -0.433013 0.866025 0.250000
v -0.750000 0.500000 0.433013
v -0.866026 0.000000 0.500000
v -0.750000 -0.421699 0.433013
v -0.433013 -0.572943 0.250000
v 0.000000 -0.628302 0.000000
v -0.401924 0.267949 0.696153
v -0.505739 0.479161 0.875966
vn -0.2153 -0.9025 0.3729
vn -0.4871 0.2260 0.8436
vn -0.1478 0.9553 0.2560
vn -0.0634 -0.9919 0.1098
vn -0.4821 -0.2653 0.8350
vn -0.3780 0.6547 0.6547
vn 0.0413 -0.6358 0.7707
vn -0.6881 -0.6358 0.3496
vn -0.0397 0.9968 0.0688
vt 0.319447 0.890876
vt 0.277847 0.679013
vt 0.262621 0.389602
vt 0.277847 0.145514
vt 0.319447 0.057971
vt 0.376272 0.968423
vt 0.347859 0.890876
vt 0.327060 0.679013
vt 0.319447 0.389602
vt 0.327060 0.145514
vt 0.347859 0.057971
vt 0.376272 0.025928
vt 0.297154 0.544697
vt 0.276718 0.958387
s 0
usemtl Material.016
f 5/5/1 4/4/1 10/10/1 11/11/1
f 3/3/2 13/13/2 9/9/2
f 1/1/3 6/6/3 7/7/3
f 12/12/4 5/5/4 11/11/4
f 4/4/5 3/3/5 9/9/5 10/10/5
f 2/2/6 1/1/6 7/7/6 8/8/6
f 13/13/7 2/2/7 14/14/7
f 2/2/2 13/13/2 3/3/2
f 9/9/2 13/13/2 8/8/2
f 8/8/8 13/13/8 14/14/8
f 2/2/9 8/8/9 14/14/9
