# Blender 3.4.1
# www.blender.org
mtllib test_landscape_invisiblewalls.mtl
o invisiblewalls
v 5.750000 -1.237500 12.500000
v 5.750000 -1.237500 14.000000
v 4.250000 -1.237500 12.500000
v 4.250000 -1.237500 14.000000
v -9.750000 -1.237500 -13.999998
v -8.250000 -1.237500 -13.999998
v -12.502222 -1.237500 12.500000
v 12.490000 -1.237500 12.490000
v -12.502222 -1.237500 -12.500000
v 12.490000 -1.237500 -12.500000
v 4.250000 -1.237500 -12.500000
v 4.250000 -1.237500 -14.000000
v 5.750000 -1.237500 -12.500000
v 5.750000 -1.237500 -14.000000
v 5.750000 8.762500 14.000000
v 5.750000 8.762500 12.500000
v 4.250000 8.762500 14.000000
v -9.750000 8.762500 -13.999998
v -8.250000 8.762500 -13.999998
v -12.502222 8.762500 12.500000
v 12.490000 8.762500 12.490000
v 12.490000 8.762500 -12.500000
v -12.502222 8.762500 -12.500000
v 4.250000 8.762500 -14.000000
v 4.250000 8.762500 -12.500000
v 5.750000 8.762500 -14.000000
v 5.750000 8.762500 -12.500000
v 4.250000 8.762500 12.500000
v -8.250002 -1.237500 -12.500000
v -8.250002 8.762500 -12.500000
v -9.750002 -1.237500 -12.500000
v -9.750002 8.762500 -12.500000
vn -0.0000 -0.0000 1.0000
vn -0.0015 -0.0000 -1.0000
vn -0.0000 -0.0000 -1.0000
vn 1.0000 -0.0000 -0.0000
vn -1.0000 -0.0000 -0.0000
vt 0.516911 0.038858
vt 0.514307 0.044920
vt 0.737581 0.044920
vt 0.514307 0.044920
vt 0.516906 0.038858
vt 0.737581 0.044920
vt 0.737581 0.044920
vt 0.737581 0.044920
vt 0.516847 0.038858
vt 0.516935 0.038858
vt 0.737849 0.038858
vt 0.737849 0.038858
vt 0.737849 0.038858
vt 0.514307 0.044920
vt 0.737581 0.044920
vt 0.737849 0.038858
vt 0.514307 0.044920
vt 0.737581 0.044920
vt 0.737581 0.044920
vt 0.516911 0.038858
vt 0.514307 0.044920
vt 0.737581 0.044920
vt 0.737581 0.044920
vt 0.737581 0.044920
vt 0.516847 0.038858
vt 0.516935 0.038858
vt 0.737849 0.038858
vt 0.737849 0.038858
vt 0.737581 0.044920
vt 0.737849 0.038858
vt 0.514307 0.044920
vt 0.737581 0.044920
vt 0.737849 0.038858
vt 0.514307 0.044920
vt 0.514307 0.044920
vt 0.516906 0.038858
vt 0.737849 0.038858
vt 0.514307 0.044920
vt 0.737849 0.038858
vt 0.514307 0.044920
vt 0.737849 0.038858
vt 0.514307 0.044920
vt 0.737849 0.038858
vt 0.514307 0.044920
s 0
usemtl Material.005
f 2/3/3 4/6/3 17/22/3 15/19/3
f 4/6/4 3/4/4 28/35/4 17/22/4
f 1/2/5 2/3/5 15/19/5 16/21/5
usemtl Material.006
f 31/42/4 5/7/4 18/23/4 32/44/4
f 5/7/1 6/8/1 19/24/1 18/23/1
f 6/8/5 29/38/5 30/40/5 19/24/5
usemtl Material.002
f 32/43/1 23/28/1 9/11/1 31/41/1
f 25/30/1 30/39/1 29/37/1 11/13/1
f 16/20/2 21/26/2 8/10/2 1/1/2
f 10/12/1 22/27/1 27/33/1 13/16/1
f 9/11/4 23/28/4 20/25/4 7/9/4
f 8/10/5 21/26/5 22/27/5 10/12/5
f 11/14/4 12/15/4 24/29/4 25/31/4
f 12/15/1 14/18/1 26/32/1 24/29/1
f 14/18/5 13/17/5 27/34/5 26/32/5
f 7/9/3 20/25/3 28/36/3 3/5/3
