# Blender 3.4.1
# www.blender.org
mtllib test_landscape_house.mtl
o House
v -12.500000 2.650000 3.000000
v -12.500000 2.650000 11.000000
v -6.000000 2.650000 11.000000
v -6.000000 2.650000 3.000000
v -12.500000 5.650000 3.000000
v -12.500000 5.650000 11.000000
v -6.000000 5.650000 11.000000
v -6.000000 5.650000 3.000000
v -12.350000 2.650000 3.150000
v -12.350000 2.650000 10.850000
v -6.100000 2.650000 10.850000
v -6.100000 2.650000 3.150000
v -12.350000 5.500000 3.150000
v -12.350000 5.500000 10.850000
v -6.100000 5.500000 10.850000
v -6.100000 5.500000 3.150000
vn -0.0000 1.0000 -0.0000
vn -0.0000 -0.0000 -1.0000
vn -0.0000 -0.0000 1.0000
vn -0.0000 -1.0000 -0.0000
vn 1.0000 -0.0000 -0.0000
vn 0.8321 -0.5547 -0.0000
vn 0.8321 -0.0000 0.5547
vn 0.8320 -0.0000 -0.5547
vt 0.236080 0.034242
vt 0.013773 0.034242
vt 0.013773 0.034242
vt 0.236080 0.034242
vt 0.236080 0.966812
vt 0.013773 0.966812
vt 0.013773 0.966812
vt 0.236080 0.966812
vt 0.231912 0.034242
vt 0.017942 0.034242
vt 0.017942 0.034242
vt 0.231912 0.034242
vt 0.231912 0.909110
vt 0.017942 0.909110
vt 0.017942 0.909110
vt 0.231912 0.909110
s 0
usemtl Material.002
f 6/6/1 7/7/1 8/8/1 5/5/1
f 4/4/2 1/1/2 5/5/2 8/8/2
f 2/2/3 3/3/3 7/7/3 6/6/3
f 14/14/4 13/13/4 16/16/4 15/15/4
f 12/12/3 16/16/3 13/13/3 9/9/3
f 10/10/2 14/14/2 15/15/2 11/11/2
f 9/9/5 13/13/5 14/14/5 10/10/5
f 2/2/4 1/1/4 9/9/4 10/10/4
f 3/3/4 2/2/4 10/10/4 11/11/4
f 1/1/4 4/4/4 12/12/4 9/9/4
f 8/8/6 7/7/6 15/15/6 16/16/6
f 4/4/7 8/8/7 16/16/7 12/12/7
f 7/7/8 3/3/8 11/11/8 15/15/8
o House_Floor
v -12.500000 2.650000 3.000000
v -12.500000 2.650000 11.000000
v -6.000000 2.650000 11.000000
v -6.000000 2.650000 3.000000
v -6.000000 2.650000 7.750000
v -6.000000 2.650000 6.250000
vn -0.0000 1.0000 -0.0000
vt 0.236080 0.034242
vt 0.013773 0.034242
vt 0.013773 0.034242
vt 0.236080 0.034242
vt 0.104085 0.034242
vt 0.145768 0.034242
s 0
usemtl Material.002
f 18/18/9 19/19/9 21/21/9 22/22/9 20/20/9 17/17/9
