# Blender 3.4.1
# www.blender.org
mtllib dropshadow.mtl
o Cylinder
v 0.000000 -0.500000 -0.229402
v 0.000000 0.500000 -0.500000
v 0.162212 -0.500000 -0.162212
v 0.353553 0.500000 -0.353553
v 0.229402 -0.500000 0.000000
v 0.500000 0.500000 0.000000
v 0.162212 -0.500000 0.162212
v 0.353553 0.500000 0.353553
v 0.000000 -0.500000 0.229402
v 0.000000 0.500000 0.500000
v -0.162212 -0.500000 0.162212
v -0.353553 0.500000 0.353553
v -0.229402 -0.500000 0.000000
v -0.500000 0.500000 0.000000
v -0.162212 -0.500000 -0.162212
v -0.353553 0.500000 -0.353553
v 0.000000 -0.440000 -0.400000
v 0.282843 -0.440000 -0.282843
v 0.400000 -0.440000 0.000000
v 0.282843 -0.440000 0.282843
v 0.000000 -0.440000 0.400000
v -0.282843 -0.440000 0.282843
v -0.400000 -0.440000 0.000000
v -0.282843 -0.440000 -0.282843
v 0.000000 -0.300000 -0.500000
v 0.353553 -0.300000 -0.353553
v 0.500000 -0.300000 0.000000
v 0.353553 -0.300000 0.353553
v 0.000000 -0.300000 0.500000
v -0.353553 -0.300000 0.353553
v -0.500000 -0.300000 0.000000
v -0.353553 -0.300000 -0.353553
vn 0.3827 -0.0000 -0.9239
vn 0.9239 -0.0000 -0.3827
vn 0.9239 -0.0000 0.3827
vn 0.3827 -0.0000 0.9239
vn -0.3827 -0.0000 0.9239
vn -0.9239 -0.0000 0.3827
vn -0.0000 1.0000 -0.0000
vn -0.9239 -0.0000 -0.3827
vn -0.3827 -0.0000 -0.9239
vn -0.0000 -1.0000 -0.0000
vn 0.1361 -0.9346 -0.3287
vn 0.3287 -0.9346 -0.1361
vn 0.3287 -0.9346 0.1361
vn 0.1361 -0.9346 0.3287
vn -0.1361 -0.9346 0.3287
vn -0.3287 -0.9346 0.1361
vn -0.3287 -0.9346 -0.1361
vn -0.1361 -0.9346 -0.3287
vn -0.3194 -0.5508 -0.7711
vn -0.7711 -0.5508 -0.3194
vn -0.7711 -0.5508 0.3194
vn -0.3194 -0.5508 0.7711
vn 0.3194 -0.5508 0.7711
vn 0.7711 -0.5508 0.3194
vn 0.7711 -0.5508 -0.3194
vn 0.3194 -0.5508 -0.7711
vt 0.750000 0.360113
vt 1.000000 1.000000
vt 0.250000 0.490000
vt 0.000000 1.000000
vt 0.827862 0.327862
vt 0.875000 1.000000
vt 0.419706 0.419706
vt 0.860113 0.250000
vt 0.750000 1.000000
vt 0.490000 0.250000
vt 0.827862 0.172138
vt 0.625000 1.000000
vt 0.419706 0.080294
vt 0.750000 0.139887
vt 0.500000 1.000000
vt 0.250000 0.010000
vt 0.672138 0.172138
vt 0.375000 1.000000
vt 0.080294 0.080294
vt 0.639887 0.250000
vt 0.010000 0.250000
vt 0.250000 1.000000
vt 0.672138 0.327862
vt 0.080294 0.419706
vt 0.125000 1.000000
vt 0.750000 0.490000
vt 0.000000 0.500000
vt 1.000000 0.500000
vt 0.919706 0.419706
vt 0.875000 0.500000
vt 0.990000 0.250000
vt 0.750000 0.500000
vt 0.919706 0.080294
vt 0.625000 0.500000
vt 0.750000 0.010000
vt 0.500000 0.500000
vt 0.580294 0.080294
vt 0.375000 0.500000
vt 0.510000 0.250000
vt 0.250000 0.500000
vt 0.580294 0.419706
vt 0.125000 0.500000
vt 0.000000 0.750000
vt 1.000000 0.750000
vt 0.875000 0.750000
vt 0.750000 0.750000
vt 0.625000 0.750000
vt 0.500000 0.750000
vt 0.375000 0.750000
vt 0.250000 0.750000
vt 0.125000 0.750000
s 0
f 25/44/1 2/2/1 4/6/1 26/45/1
f 26/45/2 4/6/2 6/9/2 27/46/2
f 27/46/3 6/9/3 8/12/3 28/47/3
f 28/47/4 8/12/4 10/15/4 29/48/4
f 29/48/5 10/15/5 12/18/5 30/49/5
f 30/49/6 12/18/6 14/22/6 31/50/6
f 4/7/7 2/3/7 16/24/7 14/21/7 12/19/7 10/16/7 8/13/7 6/10/7
f 31/50/8 14/22/8 16/25/8 32/51/8
f 32/51/9 16/25/9 2/4/9 25/43/9
f 1/1/10 3/5/10 5/8/10 7/11/10 9/14/10 11/17/10 13/20/10 15/23/10
f 3/5/11 1/1/11 17/26/11 18/29/11
f 5/8/12 3/5/12 18/29/12 19/31/12
f 7/11/13 5/8/13 19/31/13 20/33/13
f 9/14/14 7/11/14 20/33/14 21/35/14
f 11/17/15 9/14/15 21/35/15 22/37/15
f 13/20/16 11/17/16 22/37/16 23/39/16
f 15/23/17 13/20/17 23/39/17 24/41/17
f 1/1/18 15/23/18 24/41/18 17/26/18
f 24/42/19 32/51/19 25/43/19 17/27/19
f 23/40/20 31/50/20 32/51/20 24/42/20
f 22/38/21 30/49/21 31/50/21 23/40/21
f 21/36/22 29/48/22 30/49/22 22/38/22
f 20/34/23 28/47/23 29/48/23 21/36/23
f 19/32/24 27/46/24 28/47/24 20/34/24
f 18/30/25 26/45/25 27/46/25 19/32/25
f 17/28/26 25/44/26 26/45/26 18/30/26
