# Blender 3.4.1
# www.blender.org
mtllib dropshadow.mtl
o Cylinder
v 0.000000 -0.500000 0.000000
v 0.000000 0.500000 0.000000
v 0.000000 0.250000 -0.500000
v 0.000000 0.500000 -0.500000
v 0.353553 0.250000 -0.353553
v 0.353553 0.500000 -0.353553
v 0.500000 0.250000 0.000000
v 0.500000 0.500000 0.000000
v 0.353553 0.250000 0.353553
v 0.353553 0.500000 0.353553
v 0.000000 0.250000 0.500000
v 0.000000 0.500000 0.500000
v -0.353553 0.250000 0.353553
v -0.353553 0.500000 0.353553
v -0.500000 0.250000 0.000000
v -0.500000 0.500000 0.000000
v -0.353553 0.250000 -0.353553
v -0.353553 0.500000 -0.353553
vn 0.3258 -0.5244 -0.7866
vn -0.0000 1.0000 -0.0000
vn 0.3827 -0.0000 -0.9239
vn 0.7866 -0.5244 -0.3258
vn 0.9239 -0.0000 -0.3827
vn 0.7866 -0.5244 0.3258
vn 0.9239 -0.0000 0.3827
vn 0.3258 -0.5244 0.7866
vn 0.3827 -0.0000 0.9239
vn -0.3258 -0.5244 0.7866
vn -0.3827 -0.0000 0.9239
vn -0.7866 -0.5244 0.3258
vn -0.9239 -0.0000 0.3827
vn -0.7866 -0.5244 -0.3258
vn -0.9239 -0.0000 -0.3827
vn -0.3258 -0.5244 -0.7866
vn -0.3827 -0.0000 -0.9239
vt 0.750000 0.250000
vt 0.250000 0.250000
vt 1.000000 0.500000
vt 0.750000 0.490000
vt 0.000000 0.500000
vt 1.000000 1.000000
vt 0.250000 0.490000
vt 0.000000 1.000000
vt 0.919706 0.419706
vt 0.875000 0.500000
vt 0.419706 0.419706
vt 0.875000 1.000000
vt 0.990000 0.250000
vt 0.750000 0.500000
vt 0.490000 0.250000
vt 0.750000 1.000000
vt 0.919706 0.080294
vt 0.625000 0.500000
vt 0.419706 0.080294
vt 0.625000 1.000000
vt 0.750000 0.010000
vt 0.500000 0.500000
vt 0.250000 0.010000
vt 0.500000 1.000000
vt 0.580294 0.080294
vt 0.375000 0.500000
vt 0.080294 0.080294
vt 0.375000 1.000000
vt 0.510000 0.250000
vt 0.250000 0.500000
vt 0.010000 0.250000
vt 0.250000 1.000000
vt 0.580294 0.419706
vt 0.125000 0.500000
vt 0.080294 0.419706
vt 0.125000 1.000000
s 0
f 1/1/1 3/4/1 5/9/1
f 2/2/2 6/11/2 4/7/2
f 3/3/3 4/6/3 6/12/3 5/10/3
f 1/1/4 5/9/4 7/13/4
f 2/2/2 8/15/2 6/11/2
f 5/10/5 6/12/5 8/16/5 7/14/5
f 1/1/6 7/13/6 9/17/6
f 2/2/2 10/19/2 8/15/2
f 7/14/7 8/16/7 10/20/7 9/18/7
f 1/1/8 9/17/8 11/21/8
f 2/2/2 12/23/2 10/19/2
f 9/18/9 10/20/9 12/24/9 11/22/9
f 1/1/10 11/21/10 13/25/10
f 2/2/2 14/27/2 12/23/2
f 11/22/11 12/24/11 14/28/11 13/26/11
f 1/1/12 13/25/12 15/29/12
f 2/2/2 16/31/2 14/27/2
f 13/26/13 14/28/13 16/32/13 15/30/13
f 1/1/14 15/29/14 17/33/14
f 2/2/2 18/35/2 16/31/2
f 15/30/15 16/32/15 18/36/15 17/34/15
f 1/1/16 17/33/16 3/4/16
f 2/2/2 4/7/2 18/35/2
f 17/34/17 18/36/17 4/8/17 3/5/17
