# Blender 4.2.1 LTS
# www.blender.org
o building_flag_pot
v 0.218875 0.162873 -0.067500
v 0.221000 0.559623 -0.067500
v -0.218875 0.162873 -0.067500
v -0.221000 0.559623 -0.067500
v 0.218875 0.162873 -0.152500
v 0.221000 0.559623 -0.152500
v -0.218875 0.162873 -0.152500
v -0.221000 0.559623 -0.152500
v 0.163625 0.235123 -0.067500
v 0.234813 0.307373 -0.067500
v 0.267963 0.379623 -0.067500
v 0.276250 0.451873 -0.067500
v 0.274314 0.524123 -0.067500
v -0.274314 0.524123 -0.067500
v -0.276250 0.451873 -0.067500
v -0.267963 0.379623 -0.067500
v -0.234813 0.307373 -0.067500
v -0.163625 0.235123 -0.067500
v -0.274314 0.524123 -0.152500
v -0.276250 0.451873 -0.152500
v -0.267963 0.379623 -0.152500
v -0.234813 0.307373 -0.152500
v -0.163625 0.235123 -0.152500
v 0.274314 0.524123 -0.152500
v 0.276250 0.451873 -0.152500
v 0.267963 0.379623 -0.152500
v 0.234813 0.307373 -0.152500
v 0.163625 0.235123 -0.152500
v -0.117583 0.162873 -0.067500
v 0.117583 0.162873 -0.067500
v 0.073667 0.559623 -0.067500
v -0.073667 0.559623 -0.067500
v 0.117583 0.162873 -0.152500
v -0.117583 0.162873 -0.152500
v -0.073667 0.559623 -0.152500
v 0.073667 0.559623 -0.152500
v -0.071542 0.235123 -0.152500
v 0.071542 0.235123 -0.152500
v -0.098271 0.307373 -0.152500
v 0.098271 0.307373 -0.152500
v -0.108721 0.379623 -0.152500
v 0.108721 0.379623 -0.152500
v -0.112083 0.451873 -0.152500
v 0.112083 0.451873 -0.152500
v -0.111298 0.524123 -0.152500
v 0.111298 0.524123 -0.152500
v 0.071542 0.235123 -0.067500
v -0.071542 0.235123 -0.067500
v 0.098271 0.307373 -0.067500
v -0.098271 0.307373 -0.067500
v 0.108721 0.379623 -0.067500
v -0.108721 0.379623 -0.067500
v 0.112083 0.451873 -0.067500
v -0.112083 0.451873 -0.067500
v 0.111298 0.524123 -0.067500
v -0.111298 0.524123 -0.067500
v -0.080861 0.593153 -0.067500
v -0.119139 0.574368 -0.067500
v -0.119139 0.574368 -0.152500
v -0.080861 0.593153 -0.152500
v -0.180861 0.740377 -0.067500
v -0.219139 0.721592 -0.067500
v -0.219139 0.721592 -0.152500
v -0.180861 0.740377 -0.152500
v 0.080861 0.593153 -0.067500
v 0.119139 0.574368 -0.067500
v 0.119139 0.574368 -0.152500
v 0.080861 0.593153 -0.152500
v 0.180861 0.740377 -0.067500
v 0.219139 0.721592 -0.067500
v 0.219139 0.721592 -0.152500
v 0.180861 0.740377 -0.152500
vn -0.0000 -0.0000 1.0000
vn -0.5542 0.8324 -0.0000
vn -0.0000 -0.0000 -1.0000
vn 0.5542 0.8324 -0.0000
vn -0.0000 -1.0000 -0.0000
vn -0.0000 1.0000 -0.0000
vn 0.7944 0.6075 -0.0000
vn 0.7123 -0.7018 -0.0000
vn 0.9089 -0.4170 -0.0000
vn 0.9935 -0.1140 -0.0000
vn 0.9996 0.0268 -0.0000
vn -0.7944 0.6075 -0.0000
vn -0.7123 -0.7018 -0.0000
vn -0.9089 -0.4170 -0.0000
vn -0.9935 -0.1140 -0.0000
vn -0.9996 0.0268 -0.0000
vn 0.8272 0.5619 -0.0000
vn 0.4406 -0.8977 -0.0000
vn -0.4406 0.8977 -0.0000
vn -0.8272 -0.5619 -0.0000
vn -0.8272 0.5619 -0.0000
vn -0.4406 -0.8977 -0.0000
vn 0.4406 0.8977 -0.0000
vn 0.8272 -0.5619 -0.0000
vt 0.172101 0.873007
vt 0.157608 0.891784
vt 0.214350 0.891784
vt 0.234883 0.873007
vt 0.086373 0.873007
vt 0.100866 0.891784
vt 0.044123 0.891784
vt 0.023591 0.873007
vt 0.083952 0.681931
vt 0.044942 0.681931
vt 0.066220 0.720147
vt 0.038804 0.758362
vt 0.026037 0.796577
vt 0.022845 0.834792
vt 0.022845 0.834792
vt 0.101684 0.720147
vt 0.091390 0.758362
vt 0.087365 0.796577
vt 0.086070 0.834792
vt 0.213531 0.681931
vt 0.192253 0.720147
vt 0.219669 0.758362
vt 0.232436 0.796577
vt 0.235628 0.834792
vt 0.174521 0.681931
vt 0.156789 0.720147
vt 0.167083 0.758362
vt 0.171108 0.796577
vt 0.172403 0.834792
vt 0.086070 0.834792
vt 0.172403 0.834792
vt 0.160378 0.909519
vt 0.198891 0.987391
vt 0.175120 0.899584
vt 0.213633 0.977455
s 0
f 56/1/1 32/2/1 4/3/1 14/4/1
f 14/4/2 4/3/2 8/3/2 19/4/2
f 46/5/3 36/6/3 6/7/3 24/8/3
f 24/8/4 6/7/4 2/7/4 13/8/4
f 30/9/5 33/9/5 5/10/5 1/10/5
f 36/6/6 31/6/6 2/7/6 6/7/6
f 5/10/7 28/11/7 9/11/7 1/10/7
f 28/11/8 27/12/8 10/12/8 9/11/8
f 27/12/9 26/13/9 11/13/9 10/12/9
f 26/13/10 25/14/10 12/15/10 11/13/10
f 25/14/11 24/8/11 13/8/11 12/15/11
f 33/9/3 38/16/3 28/11/3 5/10/3
f 38/16/3 40/17/3 27/12/3 28/11/3
f 40/17/3 42/18/3 26/13/3 27/12/3
f 42/18/3 44/19/3 25/14/3 26/13/3
f 44/19/3 46/5/3 24/8/3 25/14/3
f 3/20/12 18/21/12 23/21/12 7/20/12
f 18/21/13 17/22/13 22/22/13 23/21/13
f 17/22/14 16/23/14 21/23/14 22/22/14
f 16/23/15 15/24/15 20/24/15 21/23/15
f 15/24/16 14/4/16 19/4/16 20/24/16
f 29/25/1 48/26/1 18/21/1 3/20/1
f 48/26/1 50/27/1 17/22/1 18/21/1
f 50/27/1 52/28/1 16/23/1 17/22/1
f 52/28/1 54/29/1 15/24/1 16/23/1
f 54/29/1 56/1/1 14/4/1 15/24/1
f 12/15/1 13/8/1 55/5/1 53/30/1
f 53/30/1 55/5/1 56/1/1 54/29/1
f 11/13/1 12/15/1 53/30/1 51/18/1
f 51/18/1 53/30/1 54/29/1 52/28/1
f 10/12/1 11/13/1 51/18/1 49/17/1
f 49/17/1 51/18/1 52/28/1 50/27/1
f 9/11/1 10/12/1 49/17/1 47/16/1
f 47/16/1 49/17/1 50/27/1 48/26/1
f 1/10/1 9/11/1 47/16/1 30/9/1
f 20/24/3 19/4/3 45/1/3 43/31/3
f 43/31/3 45/1/3 46/5/3 44/19/3
f 21/23/3 20/24/3 43/31/3 41/28/3
f 41/28/3 43/31/3 44/19/3 42/18/3
f 22/22/3 21/23/3 41/28/3 39/27/3
f 39/27/3 41/28/3 42/18/3 40/17/3
f 23/21/3 22/22/3 39/27/3 37/26/3
f 37/26/3 39/27/3 40/17/3 38/16/3
f 7/20/3 23/21/3 37/26/3 34/25/3
f 8/3/6 4/3/6 32/2/6 35/2/6
f 3/20/5 7/20/5 34/25/5 29/25/5
f 19/4/3 8/3/3 35/2/3 45/1/3
f 45/1/3 35/2/3 36/6/3 46/5/3
f 13/8/1 2/7/1 31/6/1 55/5/1
f 55/5/1 31/6/1 32/2/1 56/1/1
f 57/32/17 60/32/17 64/33/17 61/33/17
f 57/32/18 58/34/18 59/34/18 60/32/18
f 63/35/19 62/35/19 61/33/19 64/33/19
f 60/32/3 59/34/3 63/35/3 64/33/3
f 59/34/20 58/34/20 62/35/20 63/35/20
f 58/34/1 57/32/1 61/33/1 62/35/1
f 31/6/6 36/6/6 35/2/6 32/2/6
f 65/32/21 69/33/21 72/33/21 68/32/21
f 65/32/22 68/32/22 67/34/22 66/34/22
f 71/35/23 72/33/23 69/33/23 70/35/23
f 68/32/3 72/33/3 71/35/3 67/34/3
f 67/34/24 71/35/24 70/35/24 66/34/24
f 66/34/1 70/35/1 69/33/1 65/32/1
