# Blender 4.2.1 LTS
# www.blender.org
o button_off
v 0.175000 0.000000 0.175000
v -0.175000 0.000000 0.175000
v -0.127014 0.110000 0.127014
v 0.175000 0.000000 -0.175000
v 0.127014 0.110000 -0.127014
v -0.175000 0.000000 -0.175000
v -0.127014 0.110000 -0.127014
v 0.000000 0.000000 0.250000
v 0.000000 0.100000 0.209459
v 0.000000 0.000000 -0.250000
v 0.000000 0.100000 -0.209459
v -0.250000 0.000000 0.000000
v -0.209459 0.100000 0.000000
v 0.250000 0.000000 0.000000
v 0.209459 0.100000 0.000000
v 0.000000 0.000000 0.000000
v 0.000000 0.080000 0.237500
v -0.166250 0.080000 0.166250
v -0.237500 0.080000 0.000000
v -0.166250 0.080000 -0.166250
v 0.000000 0.080000 -0.237500
v 0.166250 0.080000 -0.166250
v 0.237500 0.080000 0.000000
v 0.166250 0.080000 0.166250
v 0.000000 0.110000 0.181448
v -0.146621 0.100000 0.146621
v -0.146621 0.100000 -0.146621
v 0.000000 0.110000 -0.181448
v 0.146621 0.100000 -0.146621
v 0.146621 0.100000 0.146621
v 0.175000 0.026667 0.175000
v 0.175000 0.053333 0.175000
v -0.175000 0.026667 -0.175000
v 0.175000 0.053333 -0.175000
v 0.175000 0.026667 -0.175000
v 0.000000 0.053333 0.250000
v 0.000000 0.026667 0.250000
v 0.127014 0.110000 0.127014
v -0.181448 0.110000 0.000000
v 0.181448 0.110000 0.000000
v -0.175000 0.053333 0.175000
v -0.175000 0.026667 0.175000
v -0.175000 0.053333 -0.175000
v 0.000000 0.053333 -0.250000
v 0.000000 0.026667 -0.250000
v 0.250000 0.053333 0.000000
v 0.250000 0.026667 0.000000
v -0.250000 0.053333 0.000000
v -0.250000 0.026667 0.000000
vn -0.0000 0.4244 0.9055
vn -0.0000 0.6103 0.7922
vn -0.5610 0.6087 0.5610
vn -0.6414 0.4209 0.6414
vn -0.9055 0.4244 -0.0000
vn -0.7922 0.6103 -0.0000
vn -0.5610 0.6087 -0.5610
vn -0.6414 0.4209 -0.6414
vn -0.0000 0.4244 -0.9055
vn -0.0000 0.6103 -0.7922
vn 0.5610 0.6087 -0.5610
vn 0.6414 0.4209 -0.6414
vn 0.9055 0.4244 -0.0000
vn 0.7922 0.6103 -0.0000
vn 0.5610 0.6087 0.5610
vn 0.6414 0.4209 0.6414
vn -0.0000 -1.0000 -0.0000
vn -0.0000 0.8719 0.4897
vn -0.3477 0.8707 0.3477
vn -0.4897 0.8719 -0.0000
vn -0.3477 0.8707 -0.3477
vn -0.0000 0.8719 -0.4897
vn 0.3477 0.8707 -0.3477
vn 0.4897 0.8719 -0.0000
vn 0.3477 0.8707 0.3477
vn -0.0000 0.9418 0.3362
vn -0.2399 0.9407 0.2399
vn -0.3362 0.9418 -0.0000
vn -0.2399 0.9407 -0.2399
vn -0.0000 0.9418 -0.3362
vn 0.2399 0.9407 -0.2399
vn 0.3362 0.9418 -0.0000
vn 0.2399 0.9407 0.2399
vn -0.7071 -0.0000 0.7071
vn -1.0000 -0.0000 -0.0000
vn 0.7071 -0.0000 -0.7071
vn 1.0000 -0.0000 -0.0000
vn 0.7071 -0.0000 0.7071
vn -0.0000 -0.0000 1.0000
vn -0.7071 -0.0000 -0.7071
vn -0.0000 -0.0000 -1.0000
vt 0.125451 0.231513
vt 0.125451 0.322293
vt 0.187194 0.322293
vt 0.187194 0.231513
vt 0.213655 0.231513
vt 0.213655 0.322293
vt 0.063709 0.322293
vt 0.063709 0.231513
vt 0.037248 0.231513
vt 0.037248 0.322293
vt 0.063709 0.231513
vt 0.125451 0.049953
vt 0.063709 0.049953
vt 0.037248 0.049953
vt 0.213655 0.049953
vt 0.187194 0.049953
vt 0.125451 0.322293
vt 0.173759 0.322293
vt 0.194462 0.322293
vt 0.173759 0.322293
vt 0.077144 0.322293
vt 0.056441 0.322293
vt 0.160324 0.322293
vt 0.175270 0.322293
vt 0.160324 0.322293
vt 0.090579 0.322293
vt 0.075633 0.322293
vt 0.090579 0.322293
vt 0.187194 0.140733
vt 0.213655 0.140733
vt 0.063709 0.140733
vt 0.037248 0.140733
vt 0.063709 0.140733
vt 0.125451 0.140733
s 1
f 36/1/1 17/2/2 18/3/3 41/4/4
f 48/5/5 19/6/6 20/3/7 43/4/8
f 44/1/9 21/2/10 22/7/11 34/8/12
f 46/9/13 23/10/14 24/7/15 32/11/16
f 16/12/17 10/12/17 4/13/17 14/14/17
f 12/15/17 6/16/17 10/12/17 16/12/17
f 43/4/8 20/3/7 21/2/10 44/1/9
f 32/11/16 24/7/15 17/2/2 36/1/1
f 2/16/17 12/15/17 16/12/17 8/12/17
f 8/12/17 16/12/17 14/14/17 1/13/17
f 34/8/12 22/7/11 23/10/14 46/9/13
f 41/4/4 18/3/3 19/6/6 48/5/5
f 9/17/18 26/18/19 18/3/3 17/2/2
f 13/19/20 27/20/21 20/3/7 19/6/6
f 11/17/22 29/21/23 22/7/11 21/2/10
f 15/22/24 30/21/25 24/7/15 23/10/14
f 30/21/25 9/17/18 17/2/2 24/7/15
f 27/20/21 11/17/22 21/2/10 20/3/7
f 26/18/19 13/19/20 19/6/6 18/3/3
f 29/21/23 15/22/24 23/10/14 22/7/11
f 25/17/26 3/23/27 26/18/19 9/17/18
f 39/24/28 7/25/29 27/20/21 13/19/20
f 28/17/30 5/26/31 29/21/23 11/17/22
f 40/27/32 38/28/33 30/21/25 15/22/24
f 38/28/33 25/17/26 9/17/18 30/21/25
f 7/25/29 28/17/30 11/17/22 27/20/21
f 3/23/27 39/24/28 13/19/20 26/18/19
f 5/26/31 40/27/32 15/22/24 29/21/23
f 2/16/34 42/29/34 49/30/35 12/15/35
f 4/13/36 35/31/36 47/32/37 14/14/37
f 1/13/38 31/33/38 37/34/39 8/12/39
f 6/16/40 33/29/40 45/34/41 10/12/41
f 14/14/37 47/32/37 31/33/38 1/13/38
f 10/12/41 45/34/41 35/31/36 4/13/36
f 12/15/35 49/30/35 33/29/40 6/16/40
f 8/12/39 37/34/39 42/29/34 2/16/34
