# Blender 4.2.1 LTS
# www.blender.org
o chest
v 0.350000 0.080000 0.220000
v 0.350000 0.220000 0.220000
v 0.000000 0.000000 0.300000
v 0.000000 0.300000 0.300000
v 0.350000 0.080000 -0.220000
v 0.350000 0.220000 -0.220000
v 0.000000 0.000000 -0.300000
v 0.000000 0.300000 -0.300000
v 0.270000 0.000000 0.220000
v 0.270000 0.000000 -0.220000
v 0.270000 0.000000 0.300000
v 0.270000 0.000000 -0.300000
v 0.270000 0.300000 -0.300000
v 0.270000 0.300000 0.300000
v 0.350000 0.300000 -0.220000
v 0.350000 0.300000 0.220000
v 0.270000 0.080000 0.220000
v 0.000000 0.080000 0.300000
v 0.000000 0.080000 -0.300000
v 0.270000 0.080000 -0.220000
v 0.270000 0.080000 -0.300000
v 0.270000 0.080000 0.300000
v 0.350000 0.000000 0.220000
v 0.350000 0.000000 -0.220000
v 0.270000 0.000000 0.350000
v 0.400000 0.000000 0.350000
v 0.400000 0.080000 -0.350000
v 0.400000 0.000000 -0.350000
v 0.400000 0.000000 -0.220000
v 0.400000 0.080000 0.220000
v 0.400000 0.080000 -0.220000
v 0.270000 0.000000 -0.350000
v 0.270000 0.080000 -0.350000
v 0.270000 0.080000 0.350000
v 0.400000 0.080000 0.350000
v 0.400000 0.000000 0.220000
v 0.380000 0.080000 0.300000
v 0.380000 0.300000 0.300000
v 0.380000 0.220000 0.220000
v 0.380000 0.220000 -0.220000
v 0.380000 0.080000 -0.220000
v 0.380000 0.300000 -0.300000
v 0.380000 0.300000 0.220000
v 0.380000 0.300000 -0.220000
v 0.380000 0.080000 -0.300000
v 0.350000 0.080000 0.330000
v 0.350000 0.300000 0.330000
v 0.350000 0.300000 -0.330000
v 0.380000 0.080000 -0.330000
v 0.350000 0.080000 -0.330000
v 0.380000 0.300000 -0.330000
v 0.270000 0.300000 0.330000
v 0.270000 0.300000 -0.330000
v 0.380000 0.080000 0.330000
v 0.380000 0.300000 0.330000
v 0.000000 0.080000 -0.330000
v 0.000000 0.000000 -0.330000
v 0.270000 0.000000 -0.330000
v 0.270000 0.080000 -0.330000
v 0.380000 0.080000 0.220000
v 0.380000 0.000000 0.220000
v 0.380000 0.000000 -0.220000
v 0.000000 0.080000 0.330000
v 0.000000 0.000000 0.330000
v 0.270000 0.000000 0.330000
v 0.270000 0.080000 0.330000
v 0.270000 0.220000 0.220000
v 0.270000 0.220000 -0.220000
v 0.270000 0.300000 -0.220000
v 0.270000 0.300000 0.220000
v -0.350000 0.080000 0.220000
v -0.350000 0.220000 0.220000
v -0.350000 0.080000 -0.220000
v -0.350000 0.220000 -0.220000
v -0.270000 0.000000 0.220000
v -0.270000 0.000000 -0.220000
v -0.270000 0.000000 0.300000
v -0.270000 0.000000 -0.300000
v -0.270000 0.300000 -0.300000
v -0.270000 0.300000 0.300000
v -0.350000 0.300000 -0.220000
v -0.350000 0.300000 0.220000
v -0.270000 0.080000 0.220000
v -0.270000 0.080000 -0.220000
v -0.270000 0.080000 -0.300000
v -0.270000 0.080000 0.300000
v -0.350000 0.000000 0.220000
v -0.350000 0.000000 -0.220000
v -0.270000 0.000000 0.350000
v -0.400000 0.000000 0.350000
v -0.400000 0.080000 -0.350000
v -0.400000 0.000000 -0.350000
v -0.400000 0.000000 -0.220000
v -0.400000 0.080000 0.220000
v -0.400000 0.080000 -0.220000
v -0.270000 0.000000 -0.350000
v -0.270000 0.080000 -0.350000
v -0.270000 0.080000 0.350000
v -0.400000 0.080000 0.350000
v -0.400000 0.000000 0.220000
v -0.380000 0.080000 0.300000
v -0.380000 0.300000 0.300000
v -0.380000 0.220000 0.220000
v -0.380000 0.220000 -0.220000
v -0.380000 0.080000 -0.220000
v -0.380000 0.300000 -0.300000
v -0.380000 0.300000 0.220000
v -0.380000 0.300000 -0.220000
v -0.380000 0.080000 -0.300000
v -0.350000 0.080000 0.330000
v -0.350000 0.300000 0.330000
v -0.350000 0.300000 -0.330000
v -0.380000 0.080000 -0.330000
v -0.350000 0.080000 -0.330000
v -0.380000 0.300000 -0.330000
v -0.270000 0.300000 0.330000
v -0.270000 0.300000 -0.330000
v -0.380000 0.080000 0.330000
v -0.380000 0.300000 0.330000
v -0.270000 0.000000 -0.330000
v -0.270000 0.080000 -0.330000
v -0.380000 0.080000 0.220000
v -0.380000 0.000000 0.220000
v -0.380000 0.000000 -0.220000
v -0.270000 0.000000 0.330000
v -0.270000 0.080000 0.330000
v -0.270000 0.220000 0.220000
v -0.270000 0.220000 -0.220000
v -0.270000 0.300000 -0.220000
v -0.270000 0.300000 0.220000
vn -0.0000 -0.0000 1.0000
vn -1.0000 -0.0000 -0.0000
vn 1.0000 -0.0000 -0.0000
vn -0.0000 -1.0000 -0.0000
vn -0.0000 1.0000 -0.0000
vn -0.0000 -0.0000 -1.0000
vt 0.014629 0.081574
vt 0.014629 0.226083
vt 0.014629 0.226083
vt 0.014629 0.081574
vt 0.450222 0.508370
vt 0.450222 0.771790
vt 0.450222 0.771790
vt 0.207826 0.081574
vt 0.207826 0.173534
vt 0.044352 0.173534
vt 0.044352 0.081574
vt 0.014629 0.029025
vt 0.237548 0.029025
vt 0.237548 0.029025
vt 0.207826 0.029025
vt 0.044352 0.029025
vt 0.014629 0.029025
vt 0.318512 0.508370
vt 0.318512 0.771790
vt 0.450222 0.603987
vt 0.294564 0.603987
vt 0.354433 0.699776
vt 0.450222 0.699776
vt 0.294564 0.699776
vt 0.354433 0.771790
vt 0.354433 0.676001
vt 0.318512 0.676001
vt 0.318512 0.699776
vt 0.237548 0.081574
vt 0.237548 0.226083
vt 0.237548 0.226083
vt 0.237548 0.081574
vt 0.014629 0.029025
vt 0.237548 0.029025
vt 0.048858 0.226083
vt 0.203320 0.226083
vt 0.318512 0.771790
vt 0.354433 0.603987
vt 0.824586 0.161210
vt 0.982187 0.161210
vt 0.813218 0.130620
vt 0.802072 0.130620
vt 0.354433 0.508370
vt 0.354433 0.771790
vt 0.318512 0.771790
vt 0.982187 0.039395
vt 0.824586 0.039395
vt 0.842941 0.130620
vt 0.842941 0.069596
vt 0.802072 0.069596
vt 0.813218 0.069596
vt 0.450222 0.676001
vt 0.777889 0.039395
vt 0.777889 0.161210
s 1
f 22/1/1 14/2/1 4/3/1 18/4/1
f 21/5/2 13/6/2 53/7/2 59/5/2
f 5/8/3 6/9/3 2/10/3 1/11/3
f 11/12/4 12/13/4 10/14/4 24/15/4 23/16/4 9/17/4
f 37/18/3 38/19/3 55/19/3 54/18/3
f 11/20/4 9/20/4 26/21/4 25/20/4
f 1/22/5 17/23/5 35/24/5 30/24/5
f 22/23/4 17/23/4 46/22/4 66/23/4
f 15/25/1 6/26/1 40/27/1 44/19/1
f 17/23/4 1/22/4 60/28/4 37/28/4
f 19/29/6 8/30/6 13/31/6 21/32/6
f 3/33/4 7/34/4 12/13/4 11/12/4
f 16/35/3 2/10/3 6/9/3 15/36/3
f 2/26/6 16/25/6 43/37/6 39/27/6
f 24/38/4 10/20/4 28/21/4 29/21/4
f 22/39/5 18/40/5 63/40/5 66/39/5
f 20/23/5 5/22/5 31/24/5 27/24/5
f 22/23/2 11/20/2 25/20/2 34/23/2
f 5/41/5 1/41/5 60/42/5 41/42/5
f 10/20/4 12/20/4 32/20/4 28/21/4
f 31/24/3 28/21/3 27/24/3
f 31/24/3 29/21/3 28/21/3
f 32/20/6 33/23/6 27/24/6 28/21/6
f 26/21/3 30/24/3 35/24/3
f 26/21/1 35/24/1 34/23/1 25/20/1
f 36/21/3 30/24/3 26/21/3
f 23/38/6 1/22/6 30/24/6 36/21/6
f 12/20/2 21/23/2 33/23/2 32/20/2
f 17/23/5 22/23/5 34/23/5 35/24/5
f 5/22/1 24/38/1 29/21/1 31/24/1
f 21/23/5 20/23/5 27/24/5 33/23/5
f 9/20/4 23/38/4 36/21/4 26/21/4
f 60/18/3 39/27/3 38/19/3 37/18/3
f 39/27/3 43/37/3 38/19/3
f 44/19/3 40/27/3 42/19/3
f 40/27/3 41/18/3 45/18/3 42/19/3
f 5/22/4 20/23/4 45/28/4 41/28/4
f 45/28/4 20/23/4 50/22/4 49/28/4
f 1/43/6 2/26/6 39/27/6 60/18/6
f 6/26/1 5/43/1 41/18/1 40/27/1
f 17/23/4 37/28/4 54/28/4 46/22/4
f 59/5/6 53/7/6 48/44/6 50/43/6
f 47/25/1 46/43/1 54/18/1 55/19/1
f 46/43/1 47/25/1 52/6/1 66/5/1
f 50/43/6 48/44/6 51/45/6 49/18/6
f 14/6/2 22/5/2 66/5/2 52/6/2
f 42/19/3 45/18/3 49/18/3 51/45/3
f 20/23/4 21/23/4 59/23/4 50/22/4
f 57/46/6 56/40/6 59/39/6 58/47/6
f 21/48/3 12/49/3 58/49/3 59/48/3
f 12/47/4 7/46/4 57/46/4 58/47/4
f 19/40/5 21/39/5 59/39/5 56/40/5
f 62/50/3 41/42/3 60/42/3 61/50/3
f 24/51/6 5/41/6 41/42/6 62/50/6
f 23/51/4 24/51/4 62/50/4 61/50/4
f 1/41/1 23/51/1 61/50/1 60/42/1
f 65/47/1 66/39/1 63/40/1 64/46/1
f 3/46/4 11/47/4 65/47/4 64/46/4
f 11/47/3 22/39/3 66/39/3 65/47/3
f 15/25/6 6/26/6 68/52/6 69/6/6
f 16/25/6 2/26/6 67/52/6 70/6/6
f 1/43/6 17/5/6 67/52/6 2/26/6
f 1/22/6 23/38/6 9/20/6 17/23/6
f 11/20/2 22/23/2 17/23/2 9/20/2
f 67/52/2 17/5/2 22/5/2 14/6/2 70/6/2
f 20/23/3 10/20/3 12/20/3 21/23/3
f 5/22/6 24/38/6 10/20/6 20/23/6
f 68/52/6 6/26/6 5/43/6 20/5/6
f 13/6/3 69/6/3 68/52/3 20/5/3 21/5/3
f 42/19/5 51/45/5 48/44/5 53/7/5 13/6/5 69/6/5 15/25/5 44/19/5
f 38/19/5 43/37/5 16/25/5 70/6/5 14/6/5 52/6/5 47/25/5 55/19/5
f 23/53/2 1/54/2 5/54/2 24/53/2
f 18/40/6 22/39/6 11/47/6 3/46/6
f 21/39/1 19/40/1 7/46/1 12/47/1
f 86/1/1 18/4/1 4/3/1 80/2/1
f 85/5/3 121/5/3 117/7/3 79/6/3
f 73/8/2 71/11/2 72/10/2 74/9/2
f 77/12/4 75/17/4 87/16/4 88/15/4 76/14/4 78/13/4
f 101/18/2 118/18/2 119/19/2 102/19/2
f 77/20/4 89/20/4 90/21/4 75/20/4
f 71/22/5 94/24/5 99/24/5 83/23/5
f 86/23/4 126/23/4 110/22/4 83/23/4
f 81/25/1 108/19/1 104/27/1 74/26/1
f 83/23/4 101/28/4 122/28/4 71/22/4
f 19/29/6 85/32/6 79/31/6 8/30/6
f 3/33/4 77/12/4 78/13/4 7/34/4
f 82/35/2 81/36/2 74/9/2 72/10/2
f 72/26/6 103/27/6 107/37/6 82/25/6
f 88/38/4 93/21/4 92/21/4 76/20/4
f 86/39/5 126/39/5 63/40/5 18/40/5
f 84/23/5 91/24/5 95/24/5 73/22/5
f 86/23/3 98/23/3 89/20/3 77/20/3
f 73/41/5 105/42/5 122/42/5 71/41/5
f 76/20/4 92/21/4 96/20/4 78/20/4
f 95/24/2 91/24/2 92/21/2
f 95/24/2 92/21/2 93/21/2
f 96/20/6 92/21/6 91/24/6 97/23/6
f 90/21/2 99/24/2 94/24/2
f 90/21/1 89/20/1 98/23/1 99/24/1
f 100/21/2 90/21/2 94/24/2
f 87/38/6 100/21/6 94/24/6 71/22/6
f 78/20/3 96/20/3 97/23/3 85/23/3
f 83/23/5 99/24/5 98/23/5 86/23/5
f 73/22/1 95/24/1 93/21/1 88/38/1
f 85/23/5 97/23/5 91/24/5 84/23/5
f 75/20/4 90/21/4 100/21/4 87/38/4
f 122/18/2 101/18/2 102/19/2 103/27/2
f 103/27/2 102/19/2 107/37/2
f 108/19/2 106/19/2 104/27/2
f 104/27/2 106/19/2 109/18/2 105/18/2
f 73/22/4 105/28/4 109/28/4 84/23/4
f 109/28/4 113/28/4 114/22/4 84/23/4
f 71/43/6 122/18/6 103/27/6 72/26/6
f 74/26/1 104/27/1 105/18/1 73/43/1
f 83/23/4 110/22/4 118/28/4 101/28/4
f 121/5/6 114/43/6 112/44/6 117/7/6
f 111/25/1 119/19/1 118/18/1 110/43/1
f 110/43/1 126/5/1 116/6/1 111/25/1
f 114/43/6 113/18/6 115/45/6 112/44/6
f 80/6/3 116/6/3 126/5/3 86/5/3
f 106/19/2 115/45/2 113/18/2 109/18/2
f 84/23/4 114/22/4 121/23/4 85/23/4
f 57/46/6 120/47/6 121/39/6 56/40/6
f 85/48/2 121/48/2 120/49/2 78/49/2
f 78/47/4 120/47/4 57/46/4 7/46/4
f 19/40/5 56/40/5 121/39/5 85/39/5
f 124/50/2 123/50/2 122/42/2 105/42/2
f 88/51/6 124/50/6 105/42/6 73/41/6
f 87/51/4 123/50/4 124/50/4 88/51/4
f 71/41/1 122/42/1 123/50/1 87/51/1
f 125/47/1 64/46/1 63/40/1 126/39/1
f 3/46/4 64/46/4 125/47/4 77/47/4
f 77/47/2 125/47/2 126/39/2 86/39/2
f 81/25/6 129/6/6 128/52/6 74/26/6
f 82/25/6 130/6/6 127/52/6 72/26/6
f 71/43/6 72/26/6 127/52/6 83/5/6
f 71/22/6 83/23/6 75/20/6 87/38/6
f 77/20/3 75/20/3 83/23/3 86/23/3
f 127/52/3 130/6/3 80/6/3 86/5/3 83/5/3
f 84/23/2 85/23/2 78/20/2 76/20/2
f 73/22/6 84/23/6 76/20/6 88/38/6
f 128/52/6 84/5/6 73/43/6 74/26/6
f 79/6/2 85/5/2 84/5/2 128/52/2 129/6/2
f 106/19/5 108/19/5 81/25/5 129/6/5 79/6/5 117/7/5 112/44/5 115/45/5
f 102/19/5 119/19/5 111/25/5 116/6/5 80/6/5 130/6/5 82/25/5 107/37/5
f 87/53/3 88/53/3 73/54/3 71/54/3
f 18/40/6 3/46/6 77/47/6 86/39/6
f 85/39/1 78/47/1 7/46/1 19/40/1
