# Blender 4.2.1 LTS
# www.blender.org
o dig_spot
v 0.000000 -0.030000 -0.000000
v -0.060000 0.000000 0.000000
v -0.212132 0.000000 -0.212132
v 0.000000 0.000000 -0.060000
v 0.212132 0.000000 -0.212132
v 0.060000 0.000000 0.000000
v 0.212132 0.000000 0.212132
v 0.000000 0.000000 0.060000
v -0.212132 0.000000 0.212132
vn -0.4258 -0.8517 0.3054
vn 0.3054 -0.8517 -0.4258
vn -0.3054 -0.8517 -0.4258
vn 0.4258 -0.8517 0.3054
vn 0.4258 -0.8517 -0.3054
vn -0.3054 -0.8517 0.4258
vn 0.3054 -0.8517 0.4258
vn -0.4258 -0.8517 -0.3054
vt 0.874136 0.005917
vt 0.844134 0.764537
vt 0.768064 0.764537
vt 0.874136 0.764537
vt 0.980208 0.764537
vt 0.904138 0.764537
s 0
f 1/1/1 2/2/1 3/3/1
f 1/1/2 3/3/2 4/4/2
f 1/1/3 4/4/3 5/5/3
f 1/1/4 5/5/4 6/6/4
f 1/1/5 6/6/5 7/5/5
f 1/1/6 7/5/6 8/4/6
f 1/1/7 8/4/7 9/3/7
f 1/1/8 9/3/8 2/2/8
