# Blender 4.2.1 LTS
# www.blender.org
o launcher_base_light
v -0.405787 0.045000 -0.234281
v -0.468563 0.045000 0.000000
v -0.234281 0.045000 -0.405787
v 0.000000 0.045000 -0.468563
v 0.234281 0.045000 -0.405787
v 0.405787 0.045000 -0.234281
v 0.468563 0.045000 0.000000
v 0.405787 0.045000 0.234281
v 0.234281 0.045000 0.405787
v 0.000000 0.045000 0.468563
v -0.234281 0.045000 0.405787
v -0.405787 0.045000 0.234281
v -0.389711 0.090000 -0.225000
v -0.450000 0.090000 0.000000
v -0.225000 0.090000 -0.389711
v 0.000000 0.090000 -0.450000
v 0.225000 0.090000 -0.389711
v 0.389711 0.090000 -0.225000
v 0.450000 0.090000 0.000000
v 0.389711 0.090000 0.225000
v 0.225000 0.090000 0.389711
v 0.000000 0.090000 0.450000
v -0.225000 0.090000 0.389711
v -0.389711 0.090000 0.225000
v -0.399454 0.090000 -0.230625
v -0.461250 0.090000 0.000000
v 0.240138 0.045000 -0.415932
v 0.230625 0.090000 -0.399454
v 0.000000 0.090000 -0.461250
v 0.000000 0.045000 -0.480277
v -0.230625 0.090000 -0.399454
v 0.399454 0.090000 -0.230625
v 0.461250 0.090000 0.000000
v -0.415932 0.045000 0.240138
v -0.399454 0.090000 0.230625
v 0.399454 0.090000 0.230625
v -0.230625 0.090000 0.399454
v -0.240138 0.045000 0.415932
v 0.230625 0.090000 0.399454
v 0.480277 0.045000 0.000000
v 0.000000 0.090000 0.461250
v 0.415932 0.045000 -0.240138
v -0.415932 0.045000 -0.240138
v -0.480277 0.045000 0.000000
v -0.240138 0.045000 -0.415932
v 0.415932 0.045000 0.240138
v 0.240138 0.045000 0.415932
v 0.000000 0.045000 0.480277
vn -0.8973 -0.3701 -0.2404
vn 0.6569 -0.3701 0.6569
vn -0.2404 -0.3701 -0.8973
vn -0.2404 -0.3701 0.8973
vn 0.6569 -0.3701 -0.6569
vn -0.8973 -0.3701 0.2404
vn 0.8973 -0.3701 -0.2404
vn -0.6569 -0.3701 0.6569
vn 0.2404 -0.3701 -0.8973
vn 0.2404 -0.3701 0.8973
vn -0.6569 -0.3701 -0.6569
vn 0.8973 -0.3701 0.2404
vn 0.8942 0.3781 0.2396
vn -0.6546 0.3781 -0.6546
vn 0.2396 0.3781 0.8942
vn 0.2396 0.3781 -0.8942
vn -0.6546 0.3781 0.6546
vn 0.8942 0.3781 -0.2396
vn -0.8942 0.3781 0.2396
vn 0.6546 0.3781 -0.6546
vn -0.2396 0.3781 0.8942
vn -0.2396 0.3781 -0.8942
vn 0.6546 0.3781 0.6546
vn -0.8942 0.3781 -0.2396
vn -0.0000 -1.0000 -0.0000
vn -0.0000 1.0000 -0.0000
vt 0.441460 0.466415
vt 0.451366 0.466415
vt 0.469851 0.264784
vt 0.457469 0.264784
vt 0.340456 0.466415
vt 0.313392 0.466415
vt 0.297383 0.264784
vt 0.331213 0.264784
vt 0.377426 0.466415
vt 0.414396 0.466415
vt 0.423639 0.264784
vt 0.377426 0.264784
vt 0.303485 0.466415
vt 0.285000 0.264784
s 0
f 20/1/1 19/2/1 7/3/1 8/4/1
f 15/5/2 13/6/2 1/7/2 3/8/2
f 22/9/3 21/10/3 9/11/3 10/12/3
f 17/10/4 16/9/4 4/12/4 5/11/4
f 24/6/5 23/5/5 11/8/5 12/7/5
f 19/2/6 18/1/6 6/4/6 7/3/6
f 14/13/7 24/6/7 12/7/7 2/14/7
f 18/1/8 17/10/8 5/11/8 6/4/8
f 23/5/9 22/9/9 10/12/9 11/8/9
f 16/9/10 15/5/10 3/8/10 4/12/10
f 21/10/11 20/1/11 8/4/11 9/11/11
f 13/6/12 14/13/12 2/14/12 1/7/12
f 36/1/13 46/4/13 40/3/13 33/2/13
f 31/5/14 45/8/14 43/7/14 25/6/14
f 41/9/15 48/12/15 47/11/15 39/10/15
f 28/10/16 27/11/16 30/12/16 29/9/16
f 35/6/17 34/7/17 38/8/17 37/5/17
f 33/2/18 40/3/18 42/4/18 32/1/18
f 26/13/19 44/14/19 34/7/19 35/6/19
f 32/1/20 42/4/20 27/11/20 28/10/20
f 37/5/21 38/8/21 48/12/21 41/9/21
f 29/9/22 30/12/22 45/8/22 31/5/22
f 39/10/23 47/11/23 46/4/23 36/1/23
f 25/6/24 43/7/24 44/14/24 26/13/24
f 3/8/25 1/7/25 43/7/25 45/8/25
f 11/8/25 10/12/25 48/12/25 38/8/25
f 16/9/26 17/10/26 28/10/26 29/9/26
f 4/12/25 3/8/25 45/8/25 30/12/25
f 21/10/26 22/9/26 41/9/26 39/10/26
f 12/7/25 11/8/25 38/8/25 34/7/25
f 17/10/26 18/1/26 32/1/26 28/10/26
f 5/11/25 4/12/25 30/12/25 27/11/25
f 2/14/25 12/7/25 34/7/25 44/14/25
f 18/1/26 19/2/26 33/2/26 32/1/26
f 6/4/25 5/11/25 27/11/25 42/4/25
f 14/13/26 13/6/26 25/6/26 26/13/26
f 22/9/26 23/5/26 37/5/26 41/9/26
f 7/3/25 6/4/25 42/4/25 40/3/25
f 23/5/26 24/6/26 35/6/26 37/5/26
f 19/2/26 20/1/26 36/1/26 33/2/26
f 8/4/25 7/3/25 40/3/25 46/4/25
f 24/6/26 14/13/26 26/13/26 35/6/26
f 9/11/25 8/4/25 46/4/25 47/11/25
f 13/6/26 15/5/26 31/5/26 25/6/26
f 1/7/25 2/14/25 44/14/25 43/7/25
f 20/1/26 21/10/26 39/10/26 36/1/26
f 10/12/25 9/11/25 47/11/25 48/12/25
f 15/5/26 16/9/26 29/9/26 31/5/26
