# Blender 4.2.1 LTS
# www.blender.org
o lever_bottom
v 0.120000 -0.000000 0.375000
v 0.050000 0.200000 0.206250
v -0.120000 -0.000000 0.375000
v -0.050000 0.200000 0.206250
v 0.120000 -0.000000 -0.375000
v 0.050000 0.200000 -0.206250
v -0.120000 -0.000000 -0.375000
v -0.050000 0.200000 -0.206250
v 0.120000 0.100000 0.375000
v -0.120000 0.100000 0.375000
v -0.120000 0.100000 -0.375000
v 0.120000 0.100000 -0.375000
v 0.090000 0.200000 0.281250
v -0.090000 0.200000 0.281250
v -0.090000 0.200000 -0.281250
v 0.090000 0.200000 -0.281250
v 0.050000 0.100000 0.206250
v -0.050000 0.100000 0.206250
v -0.050000 0.100000 -0.206250
v 0.050000 0.100000 -0.206250
v 0.110250 0.150000 0.344531
v -0.110250 0.150000 0.344531
v -0.110250 0.150000 -0.344531
v 0.110250 0.150000 -0.344531
v -0.120000 0.050000 0.375000
v -0.120000 0.050000 -0.375000
v 0.120000 0.050000 -0.375000
v 0.120000 0.050000 0.375000
vn -0.0000 0.7846 0.6200
vn -0.9269 0.3754 -0.0000
vn -0.0000 0.7846 -0.6200
vn 0.9269 0.3754 -0.0000
vn -0.0000 -1.0000 -0.0000
vn -1.0000 -0.0000 -0.0000
vn -0.0000 1.0000 -0.0000
vn 1.0000 -0.0000 -0.0000
vn -0.0000 -0.0000 1.0000
vn -0.0000 -0.0000 -1.0000
vn 0.9815 0.1914 -0.0000
vn -0.0000 0.5204 -0.8539
vn -0.9815 0.1914 -0.0000
vn -0.0000 0.5204 0.8539
vt 0.049149 0.200067
vt 0.061100 0.254431
vt 0.204512 0.254431
vt 0.216463 0.200067
vt 0.216463 0.200067
vt 0.049149 0.200067
vt 0.228414 0.036974
vt 0.037198 0.036974
vt 0.092969 0.254431
vt 0.092969 0.022462
vt 0.172643 0.254431
vt 0.172643 0.022462
vt 0.037198 0.145703
vt 0.228414 0.145703
vt 0.037198 0.091339
vt 0.228414 0.091339
s 0
f 21/1/1 13/2/1 14/3/1 22/4/1
f 22/4/2 14/3/2 15/3/2 23/5/2
f 23/5/3 15/3/3 16/2/3 24/6/3
f 24/6/4 16/2/4 13/2/4 21/1/4
f 3/7/5 7/7/5 5/8/5 1/8/5
f 2/9/6 6/9/6 20/10/6 17/10/6
f 2/9/7 4/11/7 14/3/7 13/2/7
f 4/11/7 8/11/7 15/3/7 14/3/7
f 8/11/7 6/9/7 16/2/7 15/3/7
f 6/9/7 2/9/7 13/2/7 16/2/7
f 19/12/7 18/12/7 17/10/7 20/10/7
f 8/11/8 4/11/8 18/12/8 19/12/8
f 6/9/9 8/11/9 19/12/9 20/10/9
f 4/11/10 2/9/10 17/10/10 18/12/10
f 12/13/11 24/6/11 21/1/11 9/13/11
f 11/14/12 23/5/12 24/6/12 12/13/12
f 10/14/13 22/4/13 23/5/13 11/14/13
f 9/13/14 21/1/14 22/4/14 10/14/14
f 1/8/9 28/15/9 25/16/9 3/7/9
f 3/7/6 25/16/6 26/16/6 7/7/6
f 7/7/10 26/16/10 27/15/10 5/8/10
f 5/8/8 27/15/8 28/15/8 1/8/8
