# Blender 4.2.1 LTS
# www.blender.org
o lever_light
v 0.040000 0.660000 0.050000
v -0.040000 0.660000 0.050000
v -0.040000 0.660000 -0.050000
v 0.040000 0.660000 -0.050000
v -0.040000 0.550000 0.050000
v -0.040000 0.550000 -0.050000
v 0.040000 0.550000 -0.050000
v 0.040000 0.550000 0.050000
v 0.060000 0.577500 0.075000
v 0.060000 0.632500 0.075000
v 0.060000 0.632500 -0.075000
v -0.060000 0.632500 -0.075000
v -0.060000 0.632500 0.075000
v -0.060000 0.577500 0.075000
v -0.060000 0.577500 -0.075000
v 0.060000 0.577500 -0.075000
vn 0.8087 0.5882 -0.0000
vn 0.8087 -0.5882 -0.0000
vn -0.8087 0.5882 -0.0000
vn -0.0000 -0.6727 0.7399
vn 1.0000 -0.0000 -0.0000
vn -0.0000 -0.0000 -1.0000
vn -1.0000 -0.0000 -0.0000
vn -0.0000 -0.0000 1.0000
vn -0.8087 -0.5882 -0.0000
vn -0.0000 0.6727 0.7399
vn -0.0000 0.6727 -0.7399
vn -0.0000 -0.6727 -0.7399
vt 0.416126 0.953966
vt 0.339521 0.953966
vt 0.320370 0.918259
vt 0.435277 0.918259
vt 0.339521 0.811138
vt 0.416126 0.811138
vt 0.435277 0.846846
vt 0.320370 0.846846
s 0
f 4/1/1 1/2/1 10/3/1 11/4/1
f 8/5/2 7/6/2 16/7/2 9/8/2
f 2/2/3 3/1/3 12/4/3 13/3/3
f 5/5/4 8/5/4 9/8/4 14/8/4
f 16/7/5 11/4/5 10/3/5 9/8/5
f 15/7/6 12/4/6 11/4/6 16/7/6
f 14/8/7 13/3/7 12/4/7 15/7/7
f 9/8/8 10/3/8 13/3/8 14/8/8
f 6/6/9 5/5/9 14/8/9 15/7/9
f 1/2/10 2/2/10 13/3/10 10/3/10
f 3/1/11 4/1/11 11/4/11 12/4/11
f 7/6/12 6/6/12 15/7/12 16/7/12
