# Blender 4.2.1 LTS
# www.blender.org
o pressure_plate_inactive
v -0.373131 0.020000 0.373131
v 0.373131 0.020000 -0.373131
v -0.373131 0.020000 -0.373131
v 0.000000 0.020000 0.533044
v 0.000000 0.020000 -0.533044
v -0.373131 0.086000 0.373131
v -0.373131 0.086000 -0.373131
v 0.373131 0.086000 0.373131
v -0.279848 0.100000 -0.279848
v 0.279848 0.100000 -0.279848
v 0.279848 0.100000 0.279848
v 0.000000 0.108000 -0.139924
v 0.139924 0.108000 0.000000
v -0.097947 0.108000 0.097947
v -0.097947 0.108000 -0.097947
v 0.097947 0.108000 0.097947
v 0.373131 0.020000 0.373131
v -0.533044 0.020000 0.000000
v 0.533044 0.020000 0.000000
v 0.000000 0.108000 0.000000
v 0.000000 0.086000 -0.533044
v 0.000000 0.086000 0.533044
v -0.533044 0.086000 0.000000
v 0.533044 0.086000 0.000000
v 0.373131 0.086000 -0.373131
v 0.000000 0.100000 -0.399783
v 0.000000 0.100000 0.399783
v -0.399783 0.100000 0.000000
v 0.399783 0.100000 0.000000
v -0.279848 0.100000 0.279848
v 0.000000 0.108000 0.139924
v -0.139924 0.108000 0.000000
v 0.097947 0.108000 -0.097947
v -0.188898 0.104000 -0.188898
v 0.188898 0.104000 0.188898
v -0.269854 0.104000 0.000000
v 0.000000 0.104000 0.269854
v 0.269854 0.104000 0.000000
v -0.188898 0.104000 0.188898
v 0.000000 0.104000 -0.269854
v 0.188898 0.104000 -0.188898
vn 1.0000 -0.0000 -0.0000
vn 0.7071 -0.0000 -0.7071
vn -0.7071 -0.0000 0.7071
vn -0.0000 -0.0000 1.0000
vn -0.0000 -0.0000 -1.0000
vn 0.7071 -0.0000 0.7071
vn -0.0746 0.9944 0.0746
vn -0.0000 0.9945 0.1045
vn -0.0000 0.9970 0.0771
vn -0.0547 0.9970 0.0547
vn 0.0746 0.9944 -0.0746
vn -0.0000 0.9945 -0.1045
vn -0.0000 0.9970 -0.0771
vn 0.0547 0.9970 -0.0547
vn 0.0746 0.9944 0.0746
vn 0.0547 0.9970 0.0547
vn -0.1045 0.9945 -0.0000
vn -0.0771 0.9970 -0.0000
vn -0.7071 -0.0000 -0.7071
vn -1.0000 -0.0000 -0.0000
vn -0.0000 0.9995 0.0308
vn 0.0220 0.9995 0.0220
vn 0.0137 0.9998 0.0137
vn -0.0000 0.9998 0.0194
vn -0.0308 0.9995 -0.0000
vn -0.0220 0.9995 0.0220
vn -0.0137 0.9998 0.0137
vn -0.0194 0.9998 -0.0000
vn -0.0220 0.9995 -0.0220
vn -0.0137 0.9998 -0.0137
vn 0.0308 0.9995 -0.0000
vn 0.0194 0.9998 -0.0000
vn 0.1045 0.9945 -0.0000
vn 0.0771 0.9970 -0.0000
vn -0.0746 0.9944 -0.0746
vn -0.0547 0.9970 -0.0547
vn -0.0000 1.0000 -0.0000
vn -0.0000 0.9998 -0.0194
vn 0.0137 0.9998 -0.0137
vn 0.0220 0.9995 -0.0220
vn -0.0000 0.9995 -0.0308
vt 0.266327 0.708364
vt 0.299090 0.708364
vt 0.299090 0.822427
vt 0.266327 0.822427
vt 0.451985 0.708364
vt 0.375538 0.708364
vt 0.375538 0.822427
vt 0.451985 0.822427
vt 0.375538 0.922232
vt 0.432874 0.922232
vt 0.318202 0.922232
vt 0.484749 0.822427
vt 0.457446 0.922232
vt 0.484749 0.708364
vt 0.375538 0.950748
vt 0.336836 0.950748
vt 0.355471 0.979264
vt 0.375538 0.979264
vt 0.430826 0.950748
vt 0.414239 0.950748
vt 0.395605 0.979264
vt 0.404206 0.979264
vt 0.414240 0.950748
vt 0.320250 0.950748
vt 0.346870 0.979264
vt 0.293630 0.922232
vt 0.375538 0.156999
vt 0.355471 0.156999
vt 0.346870 0.156999
vt 0.404206 0.156999
vt 0.395605 0.156999
vt 0.336836 0.950748
vt 0.375538 0.950748
vt 0.375538 0.099967
vt 0.432874 0.099967
vt 0.414240 0.128483
vt 0.375538 0.128483
vt 0.293630 0.099967
vt 0.318202 0.099967
vt 0.336836 0.128483
vt 0.320250 0.128483
vt 0.375538 0.128483
vt 0.414239 0.128483
vt 0.336836 0.128483
vt 0.457446 0.099967
vt 0.430826 0.128483
s 1
f 19/1/1 2/2/2 25/3/2 24/4/1
f 1/5/3 4/6/4 22/7/4 6/8/3
f 2/2/2 5/6/5 21/7/5 25/3/2
f 4/6/4 17/2/6 8/3/6 22/7/4
f 6/8/7 22/7/8 27/9/9 30/10/10
f 25/3/11 21/7/12 26/9/13 10/11/14
f 22/7/8 8/3/15 11/11/16 27/9/9
f 23/12/17 6/8/7 30/10/10 28/13/18
f 5/6/5 3/5/19 7/8/19 21/7/5
f 17/2/6 19/1/1 24/4/1 8/3/6
f 3/5/19 18/14/20 23/12/20 7/8/19
f 18/14/20 1/5/3 6/8/3 23/12/20
f 37/15/21 35/16/22 16/17/23 31/18/24
f 36/19/25 39/20/26 14/21/27 32/22/28
f 34/23/29 36/19/25 32/22/28 15/21/30
f 35/16/22 38/24/31 13/25/32 16/17/23
f 24/4/33 25/3/11 10/11/14 29/26/34
f 21/7/12 7/8/35 9/10/36 26/9/13
f 8/3/15 24/4/33 29/26/34 11/11/16
f 7/8/35 23/12/17 28/13/18 9/10/36
f 20/27/37 31/27/24 16/28/23 13/29/32
f 32/30/28 14/31/27 31/27/24 20/27/37
f 15/31/30 32/30/28 20/27/37 12/27/38
f 12/27/38 20/27/37 13/29/32 33/28/39
f 41/32/40 40/33/41 12/18/38 33/17/39
f 39/20/26 37/15/21 31/18/24 14/21/27
f 38/24/31 41/32/40 33/17/39 13/25/32
f 40/33/41 34/23/29 15/21/30 12/18/38
f 26/34/13 9/35/36 34/36/29 40/37/41
f 29/38/34 10/39/14 41/40/40 38/41/31
f 30/35/10 27/34/9 37/42/21 39/43/26
f 10/39/14 26/34/13 40/37/41 41/40/40
f 11/39/16 29/38/34 38/41/31 35/44/22
f 9/35/36 28/45/18 36/46/25 34/36/29
f 28/45/18 30/35/10 39/43/26 36/46/25
f 27/34/9 11/39/16 35/44/22 37/42/21
