# Blender 4.2.1 LTS
# www.blender.org
mtllib rock.mtl
o Cube.001
v 0.408299 -0.594608 0.479485
v -0.111538 -0.566485 0.598889
v -0.500223 -0.783969 0.001645
v 0.506077 -0.910263 -0.475656
v -0.101020 0.564581 0.630023
v 0.607229 -0.073462 0.582331
v 0.731563 -0.201196 -0.439402
v 0.062871 -0.048657 0.751538
v -0.739376 0.128286 0.151862
v -0.312945 0.030923 0.580679
v 0.204263 0.205950 -0.899962
v 0.629032 -0.867352 -0.003608
v 0.884409 -0.125417 -0.032106
v -0.055989 0.720859 0.163673
v -0.279755 0.699787 -0.214673
v 0.090706 0.717324 -0.289363
v -0.081686 -1.113841 0.284593
v 0.209259 -1.166376 0.191274
v -0.070451 -1.286518 -0.245820
v 0.245827 -1.229897 0.010393
v -0.209773 0.499769 -0.652753
v 0.152071 0.528100 -0.663729
v -0.495696 0.520736 -0.023624
v 0.767592 0.297995 -0.215777
v 0.445059 0.645027 0.265986
v 0.295703 0.688938 0.023148
v -0.369357 -0.779605 -0.419677
v 0.023455 -0.870678 -0.618907
v -0.620245 0.083878 -0.554093
v -0.429576 -0.123280 -0.809709
v -0.484942 0.439443 -0.495848
v -0.555791 -0.371035 -0.543683
v -0.761919 -0.265322 0.014333
v 0.472115 -0.169632 -0.677886
v 0.758689 -0.014657 0.335652
v -0.138064 -1.253026 -0.085800
v 0.169325 -1.265286 -0.221910
v -0.709705 -0.244253 -0.350068
v 0.548143 0.446488 -0.435997
v 0.848464 0.098305 -0.116167
v 0.663648 0.320426 0.476034
v -0.748415 0.064352 -0.280882
v 0.192622 -0.282292 -0.813861
v -0.588154 0.442489 -0.280350
v 0.830423 -0.480983 -0.276992
v 0.710481 -0.303308 0.331324
v -0.612509 -0.308015 0.344656
v -0.057167 -0.151813 -0.840916
v 0.331143 0.324425 0.666682
v -0.460483 -0.152441 -0.854008
v -0.007452 -0.899839 -0.663206
v -0.400264 -0.808766 -0.463977
v -0.586697 -0.400196 -0.587982
v -0.138267 -0.567837 0.657052
v -0.339675 0.029570 0.638842
v -0.127750 0.563228 0.688185
v 0.036142 -0.050009 0.809700
v 0.296812 0.735083 0.023147
v -0.054880 0.767004 0.163672
v 0.091815 0.763469 -0.289364
v -0.278646 0.745931 -0.214674
v 0.748768 -0.316054 0.342595
v 0.667319 -0.880097 0.007663
v 0.868709 -0.493728 -0.265720
v 0.922696 -0.138163 -0.020835
v -0.138620 -1.297683 -0.072747
v -0.071006 -1.331174 -0.232766
v 0.168769 -1.309943 -0.208856
v -0.082242 -1.158498 0.297646
v 0.208703 -1.211033 0.204328
v 0.245271 -1.274553 0.023447
v 0.163260 0.558245 -0.702366
v -0.198584 0.529914 -0.691391
v 0.559332 0.476633 -0.474634
v 0.215452 0.236095 -0.938599
vn 0.8352 -0.0201 -0.5497
vn 0.6792 0.0515 -0.7321
vn -0.6926 -0.5664 -0.4467
vn -0.7130 -0.6137 0.3391
vn 0.6119 0.7870 -0.0791
vn -0.3837 -0.4299 0.8173
vn 0.9294 0.0716 -0.3621
vn 0.7400 0.2129 -0.6380
vn 0.6808 -0.7239 -0.1115
vn -0.1076 0.8897 -0.4437
vn 0.8498 0.0204 0.5267
vn 0.0929 0.9617 0.2578
vn 0.8535 0.4640 0.2372
vn -0.0437 0.7938 0.6066
vn -0.2994 0.3310 -0.8949
vn -0.5861 -0.5602 0.5854
vn -0.9047 -0.0180 -0.4257
vn -0.8312 0.3824 -0.4035
vn -0.8156 -0.1285 -0.5642
vn -0.9985 0.0526 0.0131
vn -0.9851 -0.0907 -0.1464
vn -0.8839 -0.4423 -0.1522
vn -0.8175 0.5626 0.1230
vn -0.5765 0.7649 -0.2875
vn -0.0837 -0.3026 -0.9494
vn 0.8581 -0.1507 0.4909
vn -0.9200 0.3900 -0.0384
vn -0.7106 0.4259 0.5601
vn -0.0905 -0.0974 -0.9911
vn -0.5061 -0.1447 0.8502
vn 0.8169 0.5754 0.0391
vn 0.9567 0.1735 0.2335
vn 0.9378 0.2436 0.2472
vn -0.8040 -0.5106 -0.3047
vn 0.8221 -0.5450 -0.1646
vn 0.1760 -0.4871 0.8554
vn -0.9118 -0.0879 0.4011
vn 0.1505 -0.6730 -0.7242
vn 0.6413 -0.5551 0.5297
vn -0.8412 -0.4324 0.3246
vn 0.6634 -0.1737 -0.7278
vn 0.6770 -0.3825 0.6288
vn 0.2970 0.0036 0.9549
vn 0.9186 -0.1588 0.3619
vn -0.1979 0.0047 -0.9802
vn -0.6745 -0.4746 -0.5656
vn -0.8535 0.3623 -0.3745
vn 0.4840 -0.1632 -0.8597
vn 0.2344 -0.3107 0.9212
vn -0.3227 0.9315 -0.1677
vn 0.5626 0.8019 -0.2010
vn 0.2370 -0.3663 -0.8998
vn 0.4924 0.1603 0.8555
vn -0.8436 -0.4659 -0.2669
vn 0.0157 -0.1740 -0.9846
vn -0.7050 -0.3817 0.5978
vn -0.6913 0.1142 0.7134
vn 0.8847 0.1359 -0.4459
vn 0.4174 0.8615 -0.2890
vn 0.3760 0.6684 0.6417
vn 0.0643 -0.8536 0.5170
vn 0.4944 -0.2078 -0.8440
vn 0.0291 0.2018 0.9790
vn 0.3285 0.6897 0.6453
vn 0.6792 -0.7252 -0.1132
vn 0.6989 -0.4371 0.5661
vn -0.9239 -0.0967 -0.3701
vn -0.8631 -0.3033 -0.4037
vn -0.4843 0.8421 0.2373
vn -0.5035 -0.4751 -0.7217
vn 0.7043 0.2581 -0.6613
vn -0.7595 -0.1548 0.6318
vn -0.7934 0.5850 0.1684
vn -0.6630 0.2284 -0.7129
vn -0.4175 -0.0211 0.9084
vn -0.8469 0.3715 -0.3805
vn 0.8611 0.3100 0.4029
vn 0.8388 -0.3934 0.3763
vn -0.0522 0.9983 -0.0247
vn 0.1001 0.9947 0.0247
vn 0.3703 -0.0089 0.9289
vn -0.8610 0.0207 0.5081
vn 0.9138 -0.3042 0.2690
vn 0.1424 0.8604 0.4893
vn 0.0404 -0.5911 -0.8056
vn 0.3911 0.4810 -0.7846
vn -0.0119 -0.9598 0.2806
vn 0.3372 0.2603 0.9047
vn 0.9495 -0.0988 -0.2977
vn -0.9900 0.0508 0.1316
vn 0.1198 -0.2799 -0.9525
vn 0.9821 0.0415 0.1840
vn -0.0702 0.5825 -0.8098
vn 0.4958 0.5644 -0.6601
vn 0.7584 -0.6019 -0.2500
vn -0.1664 0.8002 0.5762
vt 0.866279 0.810566
vt 0.902844 0.821596
vt 0.902844 0.839526
vt 0.866280 0.828496
vt 0.974285 0.622889
vt 0.920399 0.464683
vt 0.948302 0.476948
vt 0.897749 0.042955
vt 0.879027 0.055969
vt 0.868795 0.238233
vt 0.918091 0.239928
vt 0.941401 0.204540
vt 0.835690 0.110053
vt 0.894234 0.658655
vt 0.920000 0.716356
vt 0.830222 0.425005
vt 0.869410 0.205832
vt 0.868091 0.200880
vt 0.828904 0.420052
vt 0.882580 0.581061
vt 0.872744 0.494128
vt 0.901396 0.355965
vt 0.867772 0.064957
vt 0.924640 0.189158
vt 0.894105 0.814781
vt 0.946645 0.748068
vt 0.945361 0.737059
vt 0.800854 0.514317
vt 0.829716 0.537167
vt 0.813291 0.667371
vt 0.795274 0.762244
vt 0.837867 0.793503
vt 0.849838 0.822969
vt 0.963725 0.494959
vt 0.828662 0.423176
vt 0.798917 0.322741
vt 0.933818 0.575455
vt 0.909946 0.447952
vt 0.901851 0.567868
vt 0.927003 0.713618
vt 0.901789 0.714802
vt 0.932600 0.398688
vt 0.867311 0.439765
vt 0.851220 0.592711
vt 0.871752 0.745207
vt 0.967376 0.483872
vt 0.964211 0.433171
vt 0.801047 0.554878
vt 0.846608 0.089639
vt 0.812887 0.311813
vt 0.894952 0.051205
vt 0.790985 0.668926
vt 0.781057 0.523956
vt 0.894105 0.832712
vt 0.923274 0.228597
vt 0.946584 0.193209
vt 0.896222 0.025603
vt 0.877499 0.038617
vt 0.792112 0.322216
vt 0.794242 0.554353
vt 0.937783 0.546553
vt 0.968908 0.621894
vt 0.946584 0.394617
vt 0.923274 0.422311
vt 0.968908 0.483628
vt 0.937783 0.387357
vt 0.788469 0.839522
vt 0.794242 0.677241
vt 0.792112 0.495575
vt 0.774251 0.653042
vt 0.788469 0.761718
vt 0.774251 0.523430
vt 0.894105 0.934432
vt 0.849838 0.942620
vt 0.902844 0.941247
vt 0.849838 0.955417
vt 0.866280 0.943014
vt 0.902844 0.954044
vt 0.849838 0.840900
vt 0.871426 0.626235
vt 0.828904 0.572140
vt 0.868091 0.400620
vt 0.900078 0.518111
vt 0.871426 0.489176
vt 0.900078 0.351013
vt 0.896222 0.263451
vt 0.893424 0.269908
vt 0.866244 0.280669
vt 0.845081 0.299985
vt 0.834163 0.315961
vt 0.877499 0.273636
vt 0.834163 0.092701
vt 0.845081 0.072287
vt 0.866244 0.047604
vt 0.893424 0.033853
vt 0.946645 0.967078
vt 0.974285 0.841899
vt 0.945361 0.956069
vt 0.920000 0.935365
s 0
usemtl crystal_hills
f 26/1/1 16/2/1 60/3/1 58/4/1
f 11/5/2 7/6/2 34/7/2
f 19/8/3 36/9/3 3/10/3 27/11/3 28/12/3
f 3/10/4 36/9/4 17/13/4
f 24/14/5 39/15/5 26/1/5
f 46/16/6 12/17/6 63/18/6 62/19/6
f 40/20/7 13/21/7 45/22/7 7/6/7
f 11/5/8 39/15/8 24/14/8 7/6/8
f 20/23/9 4/24/9 12/17/9
f 15/25/10 16/2/10 22/26/10 21/27/10
f 6/28/11 35/29/11 41/30/11
f 5/31/12 25/32/12 26/1/12 14/33/12
f 25/32/13 40/20/13 24/14/13
f 21/27/14 22/26/14 72/26/14 73/27/14
f 30/34/15 21/27/15 11/5/15
f 47/35/16 3/10/16 2/36/16
f 29/37/17 38/38/17 42/39/17
f 31/40/18 29/37/18 44/41/18
f 32/42/19 38/38/19 29/37/19
f 42/39/20 33/43/20 9/44/20
f 42/39/21 38/38/21 33/43/21
f 38/38/22 3/10/22 33/43/22
f 23/45/23 44/41/23 9/44/23
f 31/40/24 23/45/24 15/25/24 21/27/24
f 30/34/25 48/46/25 43/47/25 28/12/25
f 46/16/26 35/29/26 6/28/26
f 42/39/27 9/44/27 44/41/27
f 23/45/28 9/44/28 10/48/28 5/31/28
f 11/5/29 48/46/29 30/34/29
f 47/35/30 2/36/30 10/48/30
f 41/30/31 40/20/31 25/32/31
f 41/30/32 35/29/32 40/20/32
f 35/29/33 13/21/33 40/20/33
f 3/10/34 38/38/34 32/42/34
f 4/24/35 45/22/35 12/17/35
f 2/36/36 17/13/36 18/49/36 1/50/36
f 33/43/37 47/35/37 9/44/37
f 19/8/38 28/12/38 4/24/38 37/51/38
f 1/50/39 18/49/39 20/23/39 12/17/39
f 33/43/40 3/10/40 47/35/40
f 4/24/41 34/7/41 7/6/41 45/22/41
f 46/16/42 6/28/42 1/50/42
f 6/28/43 49/52/43 8/53/43
f 35/29/44 46/16/44 13/21/44
f 16/2/45 15/25/45 61/54/45 60/3/45
f 11/5/46 21/27/46 73/27/46 75/5/46
f 29/37/47 42/39/47 44/41/47
f 34/7/48 43/47/48 11/5/48
f 8/53/49 2/36/49 1/50/49 6/28/49
f 44/41/50 23/45/50 31/40/50
f 24/14/51 26/1/51 25/32/51
f 4/24/52 28/12/52 43/47/52
f 6/28/53 41/30/53 49/52/53
f 27/11/54 3/10/54 32/42/54
f 48/46/55 11/5/55 43/47/55
f 3/10/56 17/13/56 2/36/56
f 47/35/57 10/48/57 9/44/57
f 40/20/58 7/6/58 24/14/58
f 39/15/59 22/26/59 16/2/59 26/1/59
f 41/30/60 25/32/60 49/52/60
f 28/12/61 27/11/61 52/55/61 51/56/61
f 34/7/62 4/24/62 43/47/62
f 49/52/63 5/31/63 8/53/63
f 49/52/64 25/32/64 5/31/64
f 20/23/65 37/51/65 4/24/65
f 12/17/66 46/16/66 1/50/66
f 36/9/67 19/8/67 67/57/67 66/58/67
f 10/48/68 2/36/68 54/59/68 55/60/68
f 5/31/69 14/33/69 15/25/69 23/45/69
f 53/61/70 50/62/70 51/63/70 52/64/70
f 30/34/71 28/12/71 51/56/71 50/65/71
f 27/11/72 32/42/72 53/66/72 52/55/72
f 32/42/73 30/34/73 50/65/73 53/66/73
f 32/42/74 29/37/74 31/40/74 21/27/74 30/34/74
f 56/67/75 55/68/75 54/69/75 57/70/75
f 5/31/76 10/48/76 55/60/76 56/71/76
f 8/53/77 5/31/77 56/71/77 57/72/77
f 2/36/78 8/53/78 57/72/78 54/59/78
f 61/73/79 59/74/79 60/75/79
f 59/76/80 58/77/80 60/78/80
f 14/33/81 26/1/81 58/4/81 59/79/81
f 15/25/82 14/33/82 59/79/82 61/54/82
f 65/80/83 62/81/83 63/82/83 64/83/83
f 13/21/84 46/16/84 62/19/84 65/84/84
f 12/17/85 45/22/85 64/85/85 63/18/85
f 45/22/86 13/21/86 65/84/86 64/85/86
f 67/86/87 68/87/87 71/88/87 70/89/87 69/90/87 66/91/87
f 18/49/88 17/13/88 69/92/88 70/93/88
f 37/51/89 20/23/89 71/94/89 68/95/89
f 17/13/90 36/9/90 66/58/90 69/92/90
f 19/8/91 37/51/91 68/95/91 67/57/91
f 20/23/92 18/49/92 70/93/92 71/94/92
f 72/96/93 75/97/93 73/98/93
f 72/96/94 74/99/94 75/97/94
f 39/15/95 11/5/95 75/5/95 74/15/95
f 22/26/96 39/15/96 74/15/96 72/26/96
