# Blender 4.2.1 LTS
# www.blender.org
o sign_text
v 0.240000 -0.045000 0.004200
v 0.240000 0.005000 0.004200
v -0.240000 -0.045000 0.004200
v -0.240000 0.005000 0.004200
v 0.240000 -0.045000 -0.004200
v 0.240000 0.005000 -0.004200
v -0.240000 -0.045000 -0.004200
v -0.240000 0.005000 -0.004200
v -0.160000 -0.005000 0.004200
v -0.080000 -0.045000 0.004200
v 0.000000 -0.005000 0.004200
v 0.080000 -0.045000 0.004200
v 0.160000 -0.005000 0.004200
v 0.160000 0.045000 0.004200
v 0.080000 0.005000 0.004200
v 0.000000 0.045000 0.004200
v -0.080000 0.005000 0.004200
v -0.160000 0.045000 0.004200
v 0.160000 -0.005000 -0.004200
v 0.080000 -0.045000 -0.004200
v 0.000000 -0.005000 -0.004200
v -0.080000 -0.045000 -0.004200
v -0.160000 -0.005000 -0.004200
v -0.160000 0.045000 -0.004200
v -0.080000 0.005000 -0.004200
v 0.000000 0.045000 -0.004200
v 0.080000 0.005000 -0.004200
v 0.160000 0.045000 -0.004200
v 0.240000 0.055000 0.004200
v 0.240000 0.105000 0.004200
v -0.240000 0.055000 0.004200
v -0.240000 0.105000 0.004200
v 0.240000 0.055000 -0.004200
v 0.240000 0.105000 -0.004200
v -0.240000 0.055000 -0.004200
v -0.240000 0.105000 -0.004200
v -0.160000 0.095000 0.004200
v -0.080000 0.055000 0.004200
v 0.000000 0.095000 0.004200
v 0.080000 0.055000 0.004200
v 0.160000 0.095000 0.004200
v 0.160000 0.145000 0.004200
v 0.080000 0.105000 0.004200
v 0.000000 0.145000 0.004200
v -0.080000 0.105000 0.004200
v -0.160000 0.145000 0.004200
v 0.160000 0.095000 -0.004200
v 0.080000 0.055000 -0.004200
v 0.000000 0.095000 -0.004200
v -0.080000 0.055000 -0.004200
v -0.160000 0.095000 -0.004200
v -0.160000 0.145000 -0.004200
v -0.080000 0.105000 -0.004200
v 0.000000 0.145000 -0.004200
v 0.080000 0.105000 -0.004200
v 0.160000 0.145000 -0.004200
v 0.240000 -0.145000 0.004200
v 0.240000 -0.095000 0.004200
v -0.240000 -0.145000 0.004200
v -0.240000 -0.095000 0.004200
v 0.240000 -0.145000 -0.004200
v 0.240000 -0.095000 -0.004200
v -0.240000 -0.145000 -0.004200
v -0.240000 -0.095000 -0.004200
v -0.160000 -0.105000 0.004200
v -0.080000 -0.145000 0.004200
v 0.000000 -0.105000 0.004200
v 0.080000 -0.145000 0.004200
v 0.160000 -0.105000 0.004200
v 0.160000 -0.055000 0.004200
v 0.080000 -0.095000 0.004200
v 0.000000 -0.055000 0.004200
v -0.080000 -0.095000 0.004200
v -0.160000 -0.055000 0.004200
v 0.160000 -0.105000 -0.004200
v 0.080000 -0.145000 -0.004200
v 0.000000 -0.105000 -0.004200
v -0.080000 -0.145000 -0.004200
v -0.160000 -0.105000 -0.004200
v -0.160000 -0.055000 -0.004200
v -0.080000 -0.095000 -0.004200
v 0.000000 -0.055000 -0.004200
v 0.080000 -0.095000 -0.004200
v 0.160000 -0.055000 -0.004200
vn -0.0000 -0.0000 1.0000
vn -1.0000 -0.0000 -0.0000
vn -0.0000 -0.0000 -1.0000
vn 1.0000 -0.0000 -0.0000
vn -0.4472 -0.8944 -0.0000
vn 0.4472 0.8944 -0.0000
vn -0.4472 0.8944 -0.0000
vn 0.4472 -0.8944 -0.0000
vt 0.177872 0.946462
vt 0.177872 0.978810
vt 0.201630 0.978810
vt 0.201630 0.946462
vt 0.082843 0.946462
vt 0.082843 0.978810
vt 0.059086 0.978810
vt 0.059086 0.946462
vt 0.177872 0.978810
vt 0.154115 0.978810
vt 0.154115 0.978810
vt 0.130358 0.978810
vt 0.106600 0.978810
vt 0.106600 0.978810
vt 0.177872 0.946462
vt 0.154115 0.946462
vt 0.154115 0.946462
vt 0.130358 0.946462
vt 0.106600 0.946462
vt 0.106600 0.946462
s 0
f 9/1/1 18/2/1 4/3/1 3/4/1
f 3/4/2 4/3/2 8/3/2 7/4/2
f 19/5/3 28/6/3 6/7/3 5/8/3
f 5/8/4 6/7/4 2/7/4 1/8/4
f 13/5/5 19/5/5 5/8/5 1/8/5
f 28/6/6 14/6/6 2/7/6 6/7/6
f 8/3/7 4/3/7 18/2/7 24/9/7
f 24/9/6 18/2/6 17/10/6 25/11/6
f 25/11/7 17/10/7 16/12/7 26/12/7
f 26/12/6 16/12/6 15/13/6 27/14/6
f 27/14/7 15/13/7 14/6/7 28/6/7
f 3/4/8 7/4/8 23/15/8 9/1/8
f 9/1/5 23/15/5 22/16/5 10/17/5
f 10/17/8 22/16/8 21/18/8 11/18/8
f 11/18/5 21/18/5 20/19/5 12/20/5
f 12/20/8 20/19/8 19/5/8 13/5/8
f 7/4/3 8/3/3 24/9/3 23/15/3
f 23/15/3 24/9/3 25/11/3 22/16/3
f 22/16/3 25/11/3 26/12/3 21/18/3
f 21/18/3 26/12/3 27/14/3 20/19/3
f 20/19/3 27/14/3 28/6/3 19/5/3
f 1/8/1 2/7/1 14/6/1 13/5/1
f 13/5/1 14/6/1 15/13/1 12/20/1
f 12/20/1 15/13/1 16/12/1 11/18/1
f 11/18/1 16/12/1 17/10/1 10/17/1
f 10/17/1 17/10/1 18/2/1 9/1/1
f 37/1/1 46/2/1 32/3/1 31/4/1
f 31/4/2 32/3/2 36/3/2 35/4/2
f 47/5/3 56/6/3 34/7/3 33/8/3
f 33/8/4 34/7/4 30/7/4 29/8/4
f 41/5/5 47/5/5 33/8/5 29/8/5
f 56/6/6 42/6/6 30/7/6 34/7/6
f 36/3/7 32/3/7 46/2/7 52/9/7
f 52/9/6 46/2/6 45/10/6 53/11/6
f 53/11/7 45/10/7 44/12/7 54/12/7
f 54/12/6 44/12/6 43/13/6 55/14/6
f 55/14/7 43/13/7 42/6/7 56/6/7
f 31/4/8 35/4/8 51/15/8 37/1/8
f 37/1/5 51/15/5 50/16/5 38/17/5
f 38/17/8 50/16/8 49/18/8 39/18/8
f 39/18/5 49/18/5 48/19/5 40/20/5
f 40/20/8 48/19/8 47/5/8 41/5/8
f 35/4/3 36/3/3 52/9/3 51/15/3
f 51/15/3 52/9/3 53/11/3 50/16/3
f 50/16/3 53/11/3 54/12/3 49/18/3
f 49/18/3 54/12/3 55/14/3 48/19/3
f 48/19/3 55/14/3 56/6/3 47/5/3
f 29/8/1 30/7/1 42/6/1 41/5/1
f 41/5/1 42/6/1 43/13/1 40/20/1
f 40/20/1 43/13/1 44/12/1 39/18/1
f 39/18/1 44/12/1 45/10/1 38/17/1
f 38/17/1 45/10/1 46/2/1 37/1/1
f 65/1/1 74/2/1 60/3/1 59/4/1
f 59/4/2 60/3/2 64/3/2 63/4/2
f 75/5/3 84/6/3 62/7/3 61/8/3
f 61/8/4 62/7/4 58/7/4 57/8/4
f 69/5/5 75/5/5 61/8/5 57/8/5
f 84/6/6 70/6/6 58/7/6 62/7/6
f 64/3/7 60/3/7 74/2/7 80/9/7
f 80/9/6 74/2/6 73/10/6 81/11/6
f 81/11/7 73/10/7 72/12/7 82/12/7
f 82/12/6 72/12/6 71/13/6 83/14/6
f 83/14/7 71/13/7 70/6/7 84/6/7
f 59/4/8 63/4/8 79/15/8 65/1/8
f 65/1/5 79/15/5 78/16/5 66/17/5
f 66/17/8 78/16/8 77/18/8 67/18/8
f 67/18/5 77/18/5 76/19/5 68/20/5
f 68/20/8 76/19/8 75/5/8 69/5/8
f 63/4/3 64/3/3 80/9/3 79/15/3
f 79/15/3 80/9/3 81/11/3 78/16/3
f 78/16/3 81/11/3 82/12/3 77/18/3
f 77/18/3 82/12/3 83/14/3 76/19/3
f 76/19/3 83/14/3 84/6/3 75/5/3
f 57/8/1 58/7/1 70/6/1 69/5/1
f 69/5/1 70/6/1 71/13/1 68/20/1
f 68/20/1 71/13/1 72/12/1 67/18/1
f 67/18/1 72/12/1 73/10/1 66/17/1
f 66/17/1 73/10/1 74/2/1 65/1/1
