# Blender 4.2.1 LTS
# www.blender.org
mtllib pitnpc_tent_collision.mtl
o pitnpc_tent_collision
v -1.048773 0.000000 1.048773
v -0.376661 1.727461 0.376661
v -1.048773 0.000000 -1.048773
v -0.376661 1.727461 -0.376661
v 0.000000 1.727461 0.518051
v 0.000000 0.000000 -1.442460
v 0.000000 1.727461 -0.518051
v -1.442460 0.000000 0.000000
v -0.518051 1.727461 0.000000
v 0.000000 1.974791 0.000000
v -0.579806 0.000000 -1.301036
v -0.258243 1.746739 -0.467259
v -0.579806 0.000000 1.301036
v -0.258243 1.746739 0.467259
v -0.259026 1.873434 0.000000
v -0.798854 1.210437 0.798854
v -0.798854 1.210437 -0.798854
v 0.000000 1.217602 -1.098727
v 0.000000 1.301563 0.984565
v -1.098727 1.210437 0.000000
v -0.254725 1.039443 1.070948
v -0.441640 1.210437 -0.991004
v -0.467259 1.727461 -0.208234
v -1.301036 0.000000 -0.579806
v 0.000000 1.873434 -0.259026
v -0.211299 1.873434 -0.211299
v -0.991004 1.210437 -0.441640
v -1.301036 0.000000 0.579806
v 0.000000 1.873434 0.259026
v -0.467259 1.727461 0.208234
v -0.211299 1.873434 0.211299
v -0.991004 1.210437 0.441640
v -0.620324 1.455026 -0.620324
v 0.000000 1.455026 -0.853181
v 0.000000 1.455026 0.778505
v -0.853181 1.455026 0.000000
v -0.342941 1.455026 0.769532
v -0.342941 1.455026 -0.769532
v -0.769532 1.455026 -0.342941
v -0.769532 1.455026 0.342941
v -0.620324 1.455026 0.620324
v -0.600424 1.480401 0.600424
v -0.600424 1.480401 -0.600424
v 0.000000 1.480401 -0.825811
v 0.000000 1.480401 0.785780
v -0.825811 1.480401 0.000000
v -0.331940 1.578438 0.744845
v -0.331940 1.578438 -0.744845
v -0.744845 1.578438 -0.331940
v -0.744845 1.578438 0.331940
v -0.680759 1.322095 0.680759
v -0.680759 1.322095 -0.680759
v 0.000000 1.322095 -0.936301
v -0.936301 1.322095 0.000000
v -0.376352 1.322095 -0.844503
v -0.376338 1.315499 0.824183
v -0.844503 1.322095 -0.376352
v -0.844503 1.322095 0.376352
v -0.441937 1.587083 0.441937
v -0.441937 1.587083 -0.441937
v 0.000000 1.587083 -0.607831
v -0.607831 1.587083 0.000000
v -0.244321 1.587083 -0.548237
v -0.244321 1.587083 0.548237
v -0.548237 1.587083 -0.244321
v -0.548237 1.587083 0.244321
v -0.183106 1.705697 0.183106
v -0.183106 1.705697 -0.183106
v 0.000000 1.705697 -0.251840
v -0.251840 1.705697 0.000000
v -0.101229 1.705697 -0.227149
v -0.101229 1.705697 0.227149
v -0.227149 1.705697 -0.101229
v -0.227149 1.705697 0.101229
v 0.000000 1.705697 0.124132
v 0.000000 1.322095 0.844503
v 0.000000 1.587083 0.548237
v 0.000000 1.705697 0.227149
v 1.048773 0.000000 1.048773
v 0.376661 1.727461 0.376661
v 1.048773 0.000000 -1.048773
v 0.376661 1.727461 -0.376661
v 1.442460 0.000000 0.000000
v 0.518051 1.727461 0.000000
v 0.579806 0.000000 -1.301036
v 0.258243 1.746739 -0.467259
v 0.579806 0.000000 1.301036
v 0.258243 1.746739 0.467259
v 0.259026 1.873434 0.000000
v 0.798854 1.210437 0.798854
v 0.798854 1.210437 -0.798854
v 1.098727 1.210437 0.000000
v 0.254725 1.039443 1.070948
v 0.441640 1.210437 -0.991004
v 0.467259 1.727461 -0.208234
v 1.301036 0.000000 -0.579806
v 0.211299 1.873434 -0.211299
v 0.991004 1.210437 -0.441640
v 1.301036 0.000000 0.579806
v 0.467259 1.727461 0.208234
v 0.211299 1.873434 0.211299
v 0.991004 1.210437 0.441640
v 0.620324 1.455026 -0.620324
v 0.853181 1.455026 0.000000
v 0.342941 1.455026 0.769532
v 0.342941 1.455026 -0.769532
v 0.769532 1.455026 -0.342941
v 0.769532 1.455026 0.342941
v 0.620324 1.455026 0.620324
v 0.600424 1.480401 0.600424
v 0.600424 1.480401 -0.600424
v 0.825811 1.480401 0.000000
v 0.331940 1.578438 0.744845
v 0.331940 1.578438 -0.744845
v 0.744845 1.578438 -0.331940
v 0.744845 1.578438 0.331940
v 0.680759 1.322095 0.680759
v 0.680759 1.322095 -0.680759
v 0.936301 1.322095 0.000000
v 0.376352 1.322095 -0.844503
v 0.376338 1.315499 0.824183
v 0.844503 1.322095 -0.376352
v 0.844503 1.322095 0.376352
v 0.441937 1.587083 0.441937
v 0.441937 1.587083 -0.441937
v 0.607831 1.587083 0.000000
v 0.244321 1.587083 -0.548237
v 0.244321 1.587083 0.548237
v 0.548237 1.587083 -0.244321
v 0.548237 1.587083 0.244321
v 0.183106 1.705697 0.183106
v 0.183106 1.705697 -0.183106
v 0.251840 1.705697 0.000000
v 0.101229 1.705697 -0.227149
v 0.101229 1.705697 0.227149
v 0.227149 1.705697 -0.101229
v 0.227149 1.705697 0.101229
vn -0.1461 -0.8839 0.4443
vn -0.4346 0.8291 0.3516
vn -0.3313 -0.8835 -0.3313
vn -0.4346 0.8291 -0.3516
vn -0.0000 0.8359 0.5489
vn -0.0000 -0.9002 -0.4354
vn -0.0000 0.8472 -0.5313
vn -0.4386 -0.8987 -0.0000
vn -0.5329 0.8462 -0.0000
vn -0.0000 1.0000 -0.0000
vn -0.1431 -0.9244 -0.3537
vn -0.2309 0.8580 -0.4589
vn -0.1892 -0.2227 0.9563
vn -0.2238 0.8549 0.4681
vn -0.4383 0.8988 -0.0000
vn -0.5821 0.4896 0.6492
vn -0.6137 0.4967 -0.6137
vn -0.0000 0.4961 -0.8683
vn -0.0000 0.6493 0.7605
vn -0.8710 0.4913 -0.0000
vn -0.3138 0.4705 0.8247
vn -0.3136 0.4943 -0.8107
vn -0.4883 0.8537 -0.1811
vn -0.3567 -0.9246 -0.1336
vn -0.0000 0.9071 -0.4210
vn -0.2943 0.9134 -0.2813
vn -0.8116 0.4941 -0.3118
vn -0.3567 -0.9246 0.1336
vn -0.0000 0.9071 0.4210
vn -0.4883 0.8537 0.1811
vn -0.2943 0.9134 0.2813
vn -0.8116 0.4941 0.3118
vn -0.5794 0.5732 -0.5794
vn -0.0000 0.5625 -0.8268
vn -0.0000 0.4010 0.9161
vn -0.8294 0.5586 -0.0000
vn -0.2647 0.4489 0.8534
vn -0.3029 0.5453 -0.7816
vn -0.7832 0.5438 -0.3015
vn -0.7832 0.5438 0.3015
vn -0.5623 0.5431 0.6235
vn -0.6003 0.5464 0.5841
vn -0.6003 0.5464 -0.5841
vn -0.0000 0.5490 -0.8359
vn -0.0000 0.4319 0.9019
vn -0.8310 0.5563 -0.0000
vn -0.2576 0.5971 0.7597
vn -0.2846 0.6455 -0.7087
vn -0.7003 0.6573 -0.2785
vn -0.7003 0.6573 0.2785
vn 0.5702 -0.5732 -0.5885
vn 0.5784 -0.5753 0.5784
vn -0.0000 -0.5701 0.8215
vn 0.8215 -0.5701 -0.0000
vn 0.2935 -0.5738 0.7646
vn 0.2706 -0.6291 -0.7287
vn 0.7646 -0.5738 0.2935
vn 0.7646 -0.5738 -0.2935
vn 0.3452 -0.8670 -0.3594
vn 0.3497 -0.8692 0.3497
vn -0.0000 -0.8661 0.4999
vn 0.4999 -0.8661 -0.0000
vn 0.1768 -0.8687 0.4628
vn 0.1225 -0.8521 -0.5089
vn 0.4628 -0.8687 0.1768
vn 0.4628 -0.8687 -0.1768
vn 0.1301 -0.9829 -0.1301
vn 0.1301 -0.9829 0.1301
vn -0.0000 -0.9830 0.1837
vn 0.1837 -0.9830 -0.0000
vn 0.0619 -0.9846 0.1636
vn 0.0404 -0.9817 -0.1858
vn 0.1636 -0.9846 0.0619
vn 0.1636 -0.9846 -0.0619
vn -0.0000 -1.0000 -0.0000
vn -0.0000 -0.7329 -0.6803
vn -0.0000 -0.8520 -0.5235
vn -0.0000 -0.9844 -0.1760
vn 0.1461 -0.8839 0.4443
vn 0.4346 0.8291 0.3516
vn 0.3313 -0.8835 -0.3313
vn 0.4346 0.8291 -0.3516
vn 0.4386 -0.8987 -0.0000
vn 0.5329 0.8462 -0.0000
vn 0.1431 -0.9244 -0.3537
vn 0.2309 0.8580 -0.4589
vn 0.1892 -0.2227 0.9563
vn 0.2238 0.8549 0.4681
vn 0.4383 0.8988 -0.0000
vn 0.5821 0.4896 0.6492
vn 0.6137 0.4967 -0.6137
vn 0.8710 0.4913 -0.0000
vn 0.3138 0.4705 0.8247
vn 0.3136 0.4943 -0.8107
vn 0.4883 0.8537 -0.1811
vn 0.3567 -0.9246 -0.1336
vn 0.2943 0.9134 -0.2813
vn 0.8116 0.4941 -0.3118
vn 0.3567 -0.9246 0.1336
vn 0.4883 0.8537 0.1811
vn 0.2943 0.9134 0.2813
vn 0.8116 0.4941 0.3118
vn 0.5794 0.5732 -0.5794
vn 0.8294 0.5586 -0.0000
vn 0.2647 0.4489 0.8534
vn 0.3029 0.5453 -0.7816
vn 0.7832 0.5438 -0.3015
vn 0.7832 0.5438 0.3015
vn 0.5623 0.5431 0.6235
vn 0.6003 0.5464 0.5841
vn 0.6003 0.5464 -0.5841
vn 0.8310 0.5563 -0.0000
vn 0.2576 0.5971 0.7597
vn 0.2846 0.6455 -0.7087
vn 0.7003 0.6573 -0.2785
vn 0.7003 0.6573 0.2785
vn -0.5702 -0.5732 -0.5885
vn -0.5784 -0.5753 0.5784
vn -0.8215 -0.5701 -0.0000
vn -0.2935 -0.5738 0.7646
vn -0.2706 -0.6291 -0.7287
vn -0.7646 -0.5738 0.2935
vn -0.7646 -0.5738 -0.2935
vn -0.3452 -0.8670 -0.3594
vn -0.3497 -0.8692 0.3497
vn -0.4999 -0.8661 -0.0000
vn -0.1768 -0.8687 0.4628
vn -0.1225 -0.8521 -0.5089
vn -0.4628 -0.8687 0.1768
vn -0.4628 -0.8687 -0.1768
vn -0.1301 -0.9829 -0.1301
vn -0.1301 -0.9829 0.1301
vn -0.1837 -0.9830 -0.0000
vn -0.0619 -0.9846 0.1636
vn -0.0404 -0.9817 -0.1858
vn -0.1636 -0.9846 0.0619
vn -0.1636 -0.9846 -0.0619
vt 0.608059 0.687169
vt 0.639716 0.770490
vt 0.652981 0.770490
vt 0.627461 0.605165
vt 0.663532 0.687169
vt 0.670318 0.786615
vt 0.708127 0.770490
vt 0.708127 0.605165
vt 0.677191 0.892591
vt 0.632280 0.770490
vt 0.670204 0.892591
vt 0.597181 0.605165
vt 0.708127 0.892591
vt 0.708127 0.977373
vt 0.083758 0.034853
vt 0.116857 0.770946
vt 0.161260 0.770946
vt 0.142961 0.034853
vt 0.051912 0.034853
vt 0.092973 0.770946
vt 0.079583 0.770946
vt 0.034058 0.034853
vt 0.142961 0.034853
vt 0.161260 0.770946
vt 0.083758 0.034853
vt 0.216156 0.775303
vt 0.216156 0.034853
vt 0.051912 0.034853
vt 0.129688 0.919685
vt 0.108890 0.919685
vt 0.097230 0.919685
vt 0.216156 0.919685
vt 0.168353 0.919685
vt 0.129688 0.919686
vt 0.168353 0.919686
vt 0.216156 0.892495
vt 0.216156 0.919686
vt 0.789680 0.035208
vt 0.823877 0.035208
vt 0.875184 0.753997
vt 0.853328 0.753998
vt 0.887451 0.035208
vt 0.915815 0.753997
vt 0.823877 0.035208
vt 0.789680 0.035208
vt 0.875184 0.753998
vt 0.770509 0.035208
vt 0.841075 0.753998
vt 0.887451 0.035208
vt 0.915815 0.753998
vt 0.966050 0.035208
vt 0.966050 0.753997
vt 0.907061 0.895479
vt 0.892873 0.895479
vt 0.966050 0.895479
vt 0.933439 0.895479
vt 0.884918 0.895479
vt 0.933439 0.895479
vt 0.966050 0.958809
vt 0.952538 0.958809
vt 0.941610 0.958809
vt 0.932435 0.958809
vt 0.935731 0.958809
vt 0.966050 0.895479
vt 0.966050 0.753998
s 1
f 49/1/49 23/2/23 4/3/4 43/4/43
f 48/5/48 12/6/12 7/7/7 44/8/44
f 47/5/47 14/6/14 2/3/2 42/4/42
f 31/9/31 30/2/30 2/3/2
f 26/9/26 23/2/23 9/10/9 15/11/15
f 50/1/50 30/2/30 9/10/9 46/12/46
f 25/13/25 26/9/26 10/14/10
f 29/13/29 31/9/31 14/6/14 5/7/5
f 45/8/45 5/7/5 14/6/14 47/5/47
f 43/4/43 4/3/4 12/6/12 48/5/48
f 3/15/3 17/16/17 22/17/22 11/18/11
f 28/19/28 32/20/32 20/21/20 8/22/8
f 13/23/13 21/24/21 16/16/16 1/25/1
f 11/18/11 22/17/22 18/26/18 6/27/6
f 24/28/24 27/20/27 17/16/17 3/15/3
f 8/22/8 20/21/20 27/20/27 24/28/24
f 7/7/7 12/6/12 26/9/26 25/13/25
f 12/6/12 4/3/4 26/9/26
f 46/12/46 9/10/9 23/2/23 49/1/49
f 1/25/1 16/16/16 32/20/32 28/19/28
f 10/14/10 31/9/31 29/13/29
f 42/4/42 2/3/2 30/2/30 50/1/50
f 15/11/15 9/10/9 30/2/30 31/9/31
f 26/9/26 4/3/4 23/2/23
f 2/3/2 14/6/14 31/9/31
f 31/9/31 10/14/10 15/11/15
f 10/14/10 26/9/26 15/11/15
f 49/1/49 43/4/43 33/29/33 39/30/39
f 50/1/50 46/12/46 36/31/36 40/30/40
f 44/8/44 34/32/34 38/33/38 48/5/48
f 47/5/47 42/4/42 41/34/41 37/35/37
f 27/20/27 39/30/39 33/29/33 17/16/17
f 22/17/22 38/33/38 34/32/34 18/26/18
f 21/24/21 37/35/37 41/34/41 16/16/16
f 32/20/32 40/30/40 36/31/36 20/21/20
f 19/36/19 35/37/35 37/35/37 21/24/21
f 17/16/17 33/29/33 38/33/38 22/17/22
f 20/21/20 36/31/36 39/30/39 27/20/27
f 16/16/16 41/34/41 40/30/40 32/20/32
f 47/5/47 37/35/37 35/37/35 45/8/45
f 38/33/38 33/29/33 43/4/43 48/5/48
f 50/1/50 40/30/40 41/34/41 42/4/42
f 49/1/49 39/30/39 36/31/36 46/12/46
f 24/38/24 3/39/3 52/40/52 57/41/57
f 3/39/3 11/42/11 55/43/55 52/40/52
f 1/44/1 28/45/28 58/41/58 51/46/51
f 8/47/8 24/38/24 57/41/57 54/48/54
f 28/45/28 8/47/8 54/48/54 58/41/58
f 13/49/13 1/44/1 51/46/51 56/50/56
f 11/42/11 6/51/6 53/52/53 55/43/55
f 57/41/57 52/40/52 60/53/60 65/54/65
f 55/43/55 53/52/53 61/55/61 63/56/63
f 52/40/52 55/43/55 63/56/63 60/53/60
f 58/41/58 54/48/54 62/57/62 66/54/66
f 56/50/56 51/46/51 59/53/59 64/58/64
f 54/48/54 57/41/57 65/54/65 62/57/62
f 51/46/51 58/41/58 66/54/66 59/53/59
f 63/56/63 61/55/61 69/59/69 71/60/71
f 60/53/60 63/56/63 71/60/71 68/61/68
f 66/54/66 62/57/62 70/62/70 74/63/74
f 64/58/64 59/53/59 67/61/67 72/60/72
f 62/57/62 65/54/65 73/63/73 70/62/70
f 59/53/59 66/54/66 74/63/74 67/61/67
f 65/54/65 60/53/60 68/61/68 73/63/73
f 74/63/74 70/62/70 75/59/75
f 75/59/75 70/62/70 73/63/73
f 73/63/73 68/61/68 75/59/75
f 68/61/68 71/60/71 75/59/75
f 71/60/71 69/59/69 75/59/75
f 75/59/75 67/61/67 74/63/74
f 67/61/67 75/59/75 72/60/72
f 64/58/64 72/60/72 78/59/78 77/64/77
f 56/50/56 64/58/64 77/64/77 76/65/76
f 72/60/72 75/59/75 78/59/78
f 115/1/115 111/4/111 82/3/82 95/2/95
f 114/5/114 44/8/44 7/7/7 86/6/86
f 113/5/113 110/4/110 80/3/80 88/6/88
f 101/9/101 80/3/80 100/2/100
f 97/9/97 89/11/89 84/10/84 95/2/95
f 116/1/116 112/12/112 84/10/84 100/2/100
f 25/13/25 10/14/10 97/9/97
f 29/13/29 5/7/5 88/6/88 101/9/101
f 45/8/45 113/5/113 88/6/88 5/7/5
f 111/4/111 114/5/114 86/6/86 82/3/82
f 81/15/81 85/18/85 94/17/94 91/16/91
f 99/19/99 83/22/83 92/21/92 102/20/102
f 87/23/87 79/25/79 90/16/90 93/24/93
f 85/18/85 6/27/6 18/26/18 94/17/94
f 96/28/96 81/15/81 91/16/91 98/20/98
f 83/22/83 96/28/96 98/20/98 92/21/92
f 7/7/7 25/13/25 97/9/97 86/6/86
f 86/6/86 97/9/97 82/3/82
f 112/12/112 115/1/115 95/2/95 84/10/84
f 79/25/79 99/19/99 102/20/102 90/16/90
f 10/14/10 29/13/29 101/9/101
f 110/4/110 116/1/116 100/2/100 80/3/80
f 89/11/89 101/9/101 100/2/100 84/10/84
f 97/9/97 95/2/95 82/3/82
f 80/3/80 101/9/101 88/6/88
f 101/9/101 89/11/89 10/14/10
f 10/14/10 89/11/89 97/9/97
f 115/1/115 107/30/107 103/29/103 111/4/111
f 116/1/116 108/30/108 104/31/104 112/12/112
f 44/8/44 114/5/114 106/33/106 34/32/34
f 113/5/113 105/35/105 109/34/109 110/4/110
f 98/20/98 91/16/91 103/29/103 107/30/107
f 94/17/94 18/26/18 34/32/34 106/33/106
f 93/24/93 90/16/90 109/34/109 105/35/105
f 102/20/102 92/21/92 104/31/104 108/30/108
f 19/36/19 93/24/93 105/35/105 35/37/35
f 91/16/91 94/17/94 106/33/106 103/29/103
f 92/21/92 98/20/98 107/30/107 104/31/104
f 90/16/90 102/20/102 108/30/108 109/34/109
f 113/5/113 45/8/45 35/37/35 105/35/105
f 106/33/106 114/5/114 111/4/111 103/29/103
f 116/1/116 110/4/110 109/34/109 108/30/108
f 115/1/115 112/12/112 104/31/104 107/30/107
f 96/38/96 122/41/122 118/40/118 81/39/81
f 81/39/81 118/40/118 120/43/120 85/42/85
f 79/44/79 117/46/117 123/41/123 99/45/99
f 83/47/83 119/48/119 122/41/122 96/38/96
f 99/45/99 123/41/123 119/48/119 83/47/83
f 87/49/87 121/50/121 117/46/117 79/44/79
f 85/42/85 120/43/120 53/52/53 6/51/6
f 122/41/122 129/54/129 125/53/125 118/40/118
f 120/43/120 127/56/127 61/55/61 53/52/53
f 118/40/118 125/53/125 127/56/127 120/43/120
f 123/41/123 130/54/130 126/57/126 119/48/119
f 121/50/121 128/58/128 124/53/124 117/46/117
f 119/48/119 126/57/126 129/54/129 122/41/122
f 117/46/117 124/53/124 130/54/130 123/41/123
f 127/56/127 134/60/134 69/59/69 61/55/61
f 125/53/125 132/61/132 134/60/134 127/56/127
f 130/54/130 137/63/137 133/62/133 126/57/126
f 128/58/128 135/60/135 131/61/131 124/53/124
f 126/57/126 133/62/133 136/63/136 129/54/129
f 124/53/124 131/61/131 137/63/137 130/54/130
f 129/54/129 136/63/136 132/61/132 125/53/125
f 137/63/137 75/59/75 133/62/133
f 75/59/75 136/63/136 133/62/133
f 136/63/136 75/59/75 132/61/132
f 132/61/132 75/59/75 134/60/134
f 134/60/134 75/59/75 69/59/69
f 75/59/75 137/63/137 131/61/131
f 131/61/131 135/60/135 75/59/75
f 128/58/128 77/64/77 78/59/78 135/60/135
f 121/50/121 76/65/76 77/64/77 128/58/128
f 135/60/135 78/59/78 75/59/75
