# Blender 4.2.1 LTS
# www.blender.org
mtllib pitnpc_pot_collision.mtl
o pitnpc_pot_collision
v -0.169496 0.105000 0.169496
v -0.169496 0.105000 -0.169496
v 0.000000 0.105000 0.242777
v 0.000000 0.105000 -0.242777
v -0.227097 0.189000 0.227097
v -0.249619 0.399000 0.249619
v -0.131649 0.167377 0.131649
v -0.131649 0.167377 -0.131649
v -0.249619 0.399000 -0.249619
v -0.227097 0.189000 -0.227097
v -0.000000 0.573480 -0.209660
v 0.000000 0.399000 -0.357541
v 0.000000 0.189000 -0.325281
v 0.000000 0.654189 0.293953
v 0.000000 0.399000 0.357541
v 0.000000 0.189000 0.325281
v -0.242777 0.105000 0.000000
v -0.325281 0.189000 0.000000
v -0.357541 0.399000 0.000000
v -0.293953 0.654189 0.000000
v -0.206137 0.105000 0.084748
v -0.084748 0.105000 0.206137
v -0.089587 0.105000 0.088556
v -0.248137 0.000000 0.126748
v -0.211496 0.000000 0.211496
v -0.126748 0.000000 0.248137
v -0.131587 0.000000 0.130556
v -0.089590 0.105000 -0.089590
v -0.204044 0.105000 -0.089590
v -0.089586 0.105000 -0.204045
v -0.131586 0.000000 -0.246045
v -0.211496 0.000000 -0.211496
v -0.131590 0.000000 -0.131590
v -0.246044 0.000000 -0.131590
v 0.169496 0.105000 0.169496
v 0.169496 0.105000 -0.169496
v 0.227097 0.189000 0.227097
v 0.249619 0.399000 0.249619
v 0.146376 0.573480 0.146376
v 0.146376 0.573480 -0.146376
v 0.249619 0.399000 -0.249619
v 0.227097 0.189000 -0.227097
v 0.242777 0.105000 0.000000
v 0.325281 0.189000 0.000000
v 0.357541 0.399000 0.000000
v 0.209660 0.573480 0.000000
v 0.206137 0.105000 0.084748
v 0.084748 0.105000 0.206137
v 0.089587 0.105000 0.088556
v 0.248137 0.000000 0.126748
v 0.211496 0.000000 0.211496
v 0.126748 0.000000 0.248137
v 0.131587 0.000000 0.130556
v 0.089590 0.105000 -0.089590
v 0.204044 0.105000 -0.089590
v 0.089586 0.105000 -0.204045
v 0.131586 0.000000 -0.246045
v 0.211496 0.000000 -0.211496
v 0.131590 0.000000 -0.131590
v 0.246044 0.000000 -0.131590
v -0.090630 0.319360 -0.039552
v -0.092700 0.319360 0.007069
v -0.043964 0.319360 -0.039838
v -0.046033 0.319360 0.006783
v -0.234614 0.834557 -0.248539
v -0.236684 0.847945 -0.201917
v -0.187948 0.847945 -0.248825
v -0.190018 0.861333 -0.202204
v -0.212316 0.847945 -0.225371
v -0.000000 0.573480 0.209660
v -0.205225 0.654189 0.205225
v -0.205225 0.654189 -0.205225
v 0.000000 0.654189 -0.293953
v -0.209660 0.573480 0.000000
v 0.205225 0.654189 0.205225
v 0.205225 0.654189 -0.205225
v 0.293953 0.654189 0.000000
v -0.000000 0.167377 0.188567
v -0.146376 0.573480 0.146376
v -0.146376 0.573480 -0.146376
v -0.000000 0.167377 -0.188567
v -0.188567 0.167377 0.000000
v 0.131649 0.167377 0.131649
v 0.131649 0.167377 -0.131649
v 0.188567 0.167377 0.000000
vn -0.3869 0.2230 0.8948
vn -0.3869 0.2230 -0.8948
vn -0.8948 0.2230 -0.3869
vn -0.8948 0.2230 0.3869
vn 0.9285 -0.3714 -0.0000
vn 0.0302 -0.3816 -0.9238
vn -0.8124 0.4655 0.3512
vn -0.0000 -1.0000 -0.0000
vn 0.9225 -0.3842 -0.0380
vn -0.3512 0.4655 0.8124
vn -0.3512 0.4655 -0.8124
vn -0.8124 0.4655 -0.3512
vn -0.0000 -0.3714 0.9285
vn 0.3869 0.2230 0.8948
vn 0.3869 0.2230 -0.8948
vn 0.8948 0.2230 -0.3869
vn 0.8948 0.2230 0.3869
vn -0.9285 -0.3714 -0.0000
vn -0.0302 -0.3816 -0.9238
vn 0.8124 0.4655 0.3512
vn -0.9225 -0.3842 -0.0380
vn 0.3512 0.4655 0.8124
vn 0.3512 0.4655 -0.8124
vn 0.8124 0.4655 -0.3512
vn -0.3930 -0.1396 -0.9089
vn -0.2666 0.9232 -0.2769
vn -0.2665 0.9232 -0.2769
vn 0.9651 0.2617 0.0053
vn 0.0460 -0.3604 -0.9317
vn -0.9635 -0.2676 -0.0044
vn -0.0449 0.3528 0.9346
vn 0.3930 -0.1396 -0.9089
vn 0.3930 -0.1396 0.9089
vn -0.2947 -0.6696 -0.6817
vn 0.9089 -0.1396 -0.3930
vn 0.9089 -0.1396 0.3930
vn -0.6817 -0.6696 -0.2947
vn 0.6817 -0.6696 -0.2947
vn -0.6817 -0.6696 0.2947
vn 0.2947 -0.6696 -0.6817
vn -0.0000 1.0000 -0.0000
vn -0.9089 -0.1396 0.3930
vn 0.6817 -0.6696 0.2947
vn -0.2947 -0.6696 0.6817
vn -0.9089 -0.1396 -0.3930
vn -0.3930 -0.1396 0.9089
vn 0.2947 -0.6696 0.6817
vn 0.2865 0.6920 -0.6626
vn 0.2865 0.6920 0.6626
vn 0.6626 0.6920 0.2865
vn 0.6626 0.6920 -0.2865
vn -0.2865 0.6920 -0.6626
vn -0.2865 0.6920 0.6626
vn -0.6626 0.6920 0.2865
vn -0.6626 0.6920 -0.2865
vn 0.3964 0.0476 -0.9168
vn 0.3964 0.0476 0.9168
vn 0.9168 0.0476 0.3964
vn 0.9168 0.0476 -0.3964
vn -0.3964 0.0476 -0.9168
vn -0.3964 0.0476 0.9168
vn -0.9168 0.0476 0.3964
vn -0.9168 0.0476 -0.3964
vt 0.377964 0.495401
vt 0.377964 0.892902
vt 0.313705 0.892902
vt 0.301264 0.495401
vt 0.301264 0.495401
vt 0.377964 0.495401
vt 0.268104 0.495401
vt 0.285923 0.892902
vt 0.099464 0.557307
vt 0.099463 0.557307
vt 0.087868 0.022422
vt 0.087869 0.022422
vt 0.067288 0.557307
vt 0.099464 0.557307
vt 0.087869 0.022422
vt 0.055692 0.022422
vt 0.077403 0.557308
vt 0.065808 0.022422
vt 0.089205 0.022422
vt 0.100800 0.557308
vt 0.077403 0.557307
vt 0.065808 0.022422
vt 0.056270 0.022422
vt 0.067866 0.557307
vt 0.454664 0.495401
vt 0.442223 0.892902
vt 0.454664 0.495401
vt 0.487825 0.495401
vt 0.470005 0.892902
vt 0.148930 0.557307
vt 0.160525 0.022422
vt 0.160526 0.022422
vt 0.148931 0.557307
vt 0.181107 0.557307
vt 0.192702 0.022422
vt 0.160525 0.022422
vt 0.170991 0.557308
vt 0.182586 0.022422
vt 0.159189 0.022422
vt 0.147594 0.557308
vt 0.170991 0.557307
vt 0.182586 0.022422
vt 0.192124 0.022422
vt 0.180529 0.557307
vt 0.061501 0.985215
vt 0.000000 0.000000
vt 0.878905 0.942647
vt 0.951963 0.953093
vt 0.971096 0.943694
vt 0.810407 0.951485
vt 0.881874 0.955206
vt 0.786713 0.941600
vt 0.805845 0.932202
vt 0.875934 0.930088
vt 0.947403 0.933808
vt 0.966579 0.047429
vt 0.947446 0.056828
vt 0.871417 0.033823
vt 0.942886 0.037544
vt 0.782196 0.045336
vt 0.801328 0.035937
vt 0.877357 0.058941
vt 0.805889 0.055221
vt 0.067494 0.771261
vt 0.124197 0.985215
vt 0.124197 0.771261
vt 0.062039 0.771261
vt 0.186356 0.771261
vt 0.186893 0.985215
vt 0.042979 0.771261
vt 0.034395 0.985215
vt 0.062345 0.771261
vt 0.061501 0.985215
vt 0.180900 0.771261
vt 0.326620 0.976075
vt 0.342118 0.976075
vt 0.377964 0.976075
vt 0.413810 0.976075
vt 0.429308 0.976075
vt 0.413810 0.976075
vt 0.377964 0.976075
vt 0.342118 0.976075
vt 0.205415 0.771261
vt 0.186893 0.985215
vt 0.186049 0.771261
vt 0.213999 0.985215
vt 0.124197 0.557307
vt 0.080458 0.771261
vt 0.167936 0.771261
vt 0.124197 0.771261
vt 0.124197 0.985215
vt 0.377964 0.976075
vt 0.338108 0.976075
vt 0.322084 0.976075
vt 0.377964 0.976075
vt 0.338108 0.976075
vt 0.377964 0.976075
vt 0.377964 0.976075
vt 0.320877 0.976075
vt 0.297925 0.976075
vt 0.417820 0.976075
vt 0.433844 0.976075
vt 0.417820 0.976075
vt 0.435052 0.976075
vt 0.458003 0.976075
s 0
f 15/1/1 14/2/1 71/3/1 6/4/1
f 9/5/2 72/3/2 73/2/2 12/6/2
f 19/7/3 20/8/3 72/3/3 9/5/3
f 6/4/4 71/3/4 20/8/4 19/7/4
f 30/9/5 28/10/5 33/11/5 31/12/5
f 21/13/6 23/14/6 27/15/6 24/16/6
f 1/17/7 21/13/7 24/16/7 25/18/7
f 24/16/8 27/15/8 25/18/8
f 25/18/8 27/15/8 26/19/8
f 23/14/9 22/20/9 26/19/9 27/15/9
f 22/20/10 1/17/10 25/18/10 26/19/10
f 2/21/11 30/9/11 31/12/11 32/22/11
f 32/22/8 31/12/8 33/11/8
f 33/11/8 34/23/8 32/22/8
f 29/24/12 2/21/12 32/22/12 34/23/12
f 28/10/13 29/24/13 34/23/13 33/11/13
f 15/1/14 38/25/14 75/26/14 14/2/14
f 41/27/15 12/6/15 73/2/15 76/26/15
f 45/28/16 41/27/16 76/26/16 77/29/16
f 38/25/17 45/28/17 77/29/17 75/26/17
f 56/30/18 57/31/18 59/32/18 54/33/18
f 47/34/19 50/35/19 53/36/19 49/30/19
f 35/37/20 51/38/20 50/35/20 47/34/20
f 50/35/8 51/38/8 53/36/8
f 51/38/8 52/39/8 53/36/8
f 49/30/21 53/36/21 52/39/21 48/40/21
f 48/40/22 52/39/22 51/38/22 35/37/22
f 36/41/23 58/42/23 57/31/23 56/30/23
f 58/42/8 59/32/8 57/31/8
f 59/32/8 58/42/8 60/43/8
f 55/44/24 60/43/24 58/42/24 36/41/24
f 54/33/13 59/32/13 60/43/13 55/44/13
f 10/45/25 9/5/25 12/6/25 13/46/25
f 69/47/26 68/48/26 67/49/26
f 66/50/26 68/51/26 69/47/26
f 66/52/27 69/47/27 65/53/27
f 65/54/26 69/47/26 67/55/26
f 63/56/28 67/49/28 68/48/28 64/57/28
f 61/58/29 65/54/29 67/55/29 63/59/29
f 62/60/30 66/52/30 65/53/30 61/61/30
f 64/62/31 68/51/31 66/50/31 62/63/31
f 41/27/32 42/46/32 13/46/32 12/6/32
f 16/46/33 37/46/33 38/25/33 15/1/33
f 2/64/34 10/45/34 13/65/34 4/66/34
f 44/46/35 42/46/35 41/27/35 45/28/35
f 38/25/36 37/46/36 44/46/36 45/28/36
f 2/67/37 18/46/37 10/45/37
f 44/46/38 36/68/38 42/69/38
f 17/70/39 1/46/39 18/71/39
f 1/72/39 5/73/39 18/71/39
f 36/74/40 4/66/40 13/46/40 42/69/40
f 2/67/37 17/70/37 18/71/37
f 82/75/41 7/76/41 78/77/41
f 82/75/41 78/77/41 83/78/41
f 82/75/41 83/78/41 85/79/41
f 82/75/41 85/79/41 84/80/41
f 82/75/41 84/80/41 81/81/41
f 82/75/41 81/81/41 8/82/41
f 6/4/42 19/7/42 18/71/42 5/73/42
f 43/83/38 36/68/38 44/46/38
f 37/84/43 35/85/43 44/46/43
f 35/85/43 43/83/43 44/86/43
f 36/46/8 43/46/8 35/46/8
f 36/46/8 35/46/8 3/46/8
f 36/46/8 3/46/8 1/46/8
f 36/46/8 1/46/8 17/46/8
f 36/46/8 17/46/8 2/46/8
f 36/46/8 2/46/8 4/87/8
f 1/88/44 16/46/44 5/73/44
f 18/46/45 19/7/45 9/5/45 10/45/45
f 16/46/46 15/1/46 6/46/46 5/73/46
f 16/46/47 35/89/47 37/84/47
f 3/90/44 16/91/44 1/88/44
f 3/90/47 35/89/47 16/46/47
f 70/92/48 79/93/48 71/94/48 14/95/48
f 80/96/49 11/97/49 73/98/49 72/94/49
f 74/99/50 80/96/50 72/94/50 20/100/50
f 79/93/51 74/99/51 20/100/51 71/94/51
f 39/101/52 70/92/52 14/95/52 75/102/52
f 11/97/53 40/103/53 76/102/53 73/98/53
f 40/103/54 46/104/54 77/105/54 76/102/54
f 46/104/55 39/101/55 75/102/55 77/105/55
f 78/77/56 7/76/56 79/93/56 70/92/56
f 8/82/57 81/81/57 11/97/57 80/96/57
f 82/75/58 8/82/58 80/96/58 74/99/58
f 7/76/59 82/75/59 74/99/59 79/93/59
f 83/78/60 78/77/60 70/92/60 39/101/60
f 81/81/61 84/80/61 40/103/61 11/97/61
f 84/80/62 85/79/62 46/104/62 40/103/62
f 85/79/63 83/78/63 39/101/63 46/104/63
