# Blender 4.2.1 LTS
# www.blender.org
mtllib pitnpc_bed_collision.mtl
o pitnpc_bed_hull
v -0.540000 0.000000 0.750000
v -0.514834 0.536391 0.668640
v -0.537746 0.000000 -0.750000
v -0.540000 0.000000 -0.562500
v -0.660000 0.708000 -0.562500
v -0.660000 0.708000 -0.750000
v -0.660000 0.000000 -0.750000
v -0.660000 0.000000 -0.562500
v -0.433482 0.000000 0.636783
v 0.000000 0.536375 0.668664
v 0.000000 0.000000 -0.750000
v 0.000000 0.000000 -0.562500
v 0.000000 0.542729 -0.563496
v 0.000000 0.948000 -0.562500
v 0.000000 0.948000 -0.750000
v -0.539995 0.888000 -0.750000
v -0.539998 0.888000 -0.562500
v -0.301506 0.948000 -0.750000
v -0.301506 0.948000 -0.562500
v -0.605755 0.450000 0.757947
v 0.000000 0.450000 0.759129
v -0.601811 0.452327 -0.564224
v -0.608371 0.157658 0.771652
v -0.600622 0.162031 -0.562691
v -0.660000 0.163800 -0.750000
v -0.660000 0.161541 -0.562500
v 0.000000 0.160885 0.780913
v -0.431839 0.158771 0.626832
v -0.433333 0.000000 0.750000
v -0.540000 0.000000 0.636783
v 0.000000 0.160000 -0.562500
v -0.434243 0.000000 -0.562500
v -0.420083 0.160686 -0.562500
v -0.504058 0.543950 -0.563496
v -0.433333 0.158527 0.778032
v -0.607644 0.157589 0.625625
v 0.540000 0.000000 0.750000
v 0.514834 0.536391 0.668640
v 0.537746 0.000000 -0.750000
v 0.540000 0.000000 -0.562500
v 0.660000 0.708000 -0.562500
v 0.660000 0.708000 -0.750000
v 0.660000 0.000000 -0.750000
v 0.660000 0.000000 -0.562500
v 0.433482 0.000000 0.636783
v 0.539995 0.888000 -0.750000
v 0.539998 0.888000 -0.562500
v 0.301506 0.948000 -0.750000
v 0.301506 0.948000 -0.562500
v 0.605755 0.450000 0.757947
v 0.601811 0.452327 -0.564224
v 0.608371 0.157658 0.771652
v 0.600622 0.162031 -0.562691
v 0.660000 0.163800 -0.750000
v 0.660000 0.161541 -0.562500
v 0.431839 0.158771 0.626832
v 0.433333 0.000000 0.750000
v 0.540000 0.000000 0.636783
v 0.434243 0.000000 -0.562500
v 0.420083 0.160686 -0.562500
v 0.504058 0.543950 -0.563496
v 0.433333 0.158527 0.778032
v 0.607644 0.157589 0.625625
vn 0.0021 0.0029 1.0000
vn 0.0139 -0.0028 0.9999
vn -0.7059 0.0020 0.7083
vn -0.0000 -0.7071 -0.7071
vn -0.0000 -0.7069 0.7073
vn -0.5774 -0.5774 0.5774
vn -0.5774 -0.5774 -0.5774
vn -0.7277 0.2199 0.6497
vn -0.7295 0.2209 -0.6473
vn -0.7071 -0.0000 -0.7071
vn -0.0000 -0.7071 0.7071
vn -0.4458 0.6316 -0.6344
vn 0.0066 -0.0029 1.0000
vn -0.0000 -0.0025 1.0000
vn -0.0000 0.7062 0.7080
vn -0.0900 0.7264 0.6813
vn -0.4455 0.6308 0.6353
vn -0.0901 0.7272 -0.6805
vn -0.0000 0.7071 -0.7071
vn 0.0031 -0.7281 -0.6854
vn -0.0000 -1.0000 -0.0000
vn 0.0034 -0.6532 -0.7572
vn -1.0000 0.0025 -0.0044
vn -0.8318 0.5025 0.2356
vn -0.9175 0.3977 -0.0030
vn -0.3672 0.9301 0.0024
vn -0.2896 0.9109 0.2938
vn -0.0004 -1.0000 -0.0027
vn -0.0219 -0.1598 0.9869
vn -0.0000 -0.0000 1.0000
vn -0.0000 0.7212 0.6927
vn -0.0000 0.9266 0.3760
vn -0.0000 1.0000 0.0057
vn -0.0003 0.0002 1.0000
vn 0.0054 -1.0000 0.0007
vn -0.0016 -1.0000 -0.0016
vn -0.0088 0.0673 0.9977
vn 0.0045 -0.0656 -0.9978
vn -0.0000 -0.0027 -1.0000
vn -0.0000 -0.0026 -1.0000
vn 0.0011 -0.0028 -1.0000
vn 0.0015 -0.0028 -1.0000
vn 1.0000 -0.0055 0.0051
vn -0.9182 -0.3961 -0.0025
vn -0.0021 0.0029 1.0000
vn 0.7059 0.0020 0.7083
vn -0.0139 -0.0028 0.9999
vn 0.5774 -0.5774 -0.5774
vn 0.5774 -0.5774 0.5774
vn 0.7071 -0.0000 -0.7071
vn 0.7295 0.2209 -0.6473
vn 0.7277 0.2199 0.6497
vn 0.4458 0.6316 -0.6344
vn -0.0066 -0.0029 1.0000
vn 0.0900 0.7264 0.6813
vn 0.4455 0.6308 0.6353
vn 0.0901 0.7272 -0.6805
vn -0.0031 -0.7281 -0.6854
vn -0.0034 -0.6532 -0.7572
vn 1.0000 0.0025 -0.0044
vn 0.9175 0.3977 -0.0030
vn 0.8318 0.5025 0.2356
vn 0.3672 0.9301 0.0024
vn 0.2896 0.9109 0.2938
vn 0.0004 -1.0000 -0.0027
vn 0.0219 -0.1598 0.9869
vn 0.0003 0.0002 1.0000
vn -0.0054 -1.0000 0.0007
vn 0.0016 -1.0000 -0.0016
vn 0.0088 0.0673 0.9977
vn -0.0045 -0.0656 -0.9978
vn -0.0011 -0.0028 -1.0000
vn -0.0015 -0.0028 -1.0000
vn -1.0000 -0.0055 0.0051
vn 0.9182 -0.3961 -0.0025
vt 0.052107 0.127103
vt 0.052107 0.370189
vt 0.029640 0.024841
vt 0.052107 0.024841
vt 0.052107 0.730182
vt 0.029640 0.730182
vt 0.029640 0.127103
vt 0.029640 0.096424
vt 0.029640 0.906772
vt 0.052107 0.506503
vt 0.052107 0.965635
vt 0.052107 0.906772
vt 0.029640 0.965635
vt 0.052107 0.096424
vt 0.195811 0.024841
vt 0.209377 0.024841
vt 0.000000 0.000000
vt 0.475984 0.691556
vt 0.279567 0.691556
vt 0.279567 0.035136
vt 0.026242 0.003298
vt 0.699531 0.831891
vt 0.464079 0.828319
vt 0.168019 0.019934
vt 0.026801 0.049865
vt 0.052107 0.096512
vt 0.052107 0.096949
vt 0.464088 0.828223
vt 0.669141 0.972189
vt 0.452176 0.965064
vt 0.669141 0.972189
vt 0.040536 0.075011
vt 0.026761 0.049567
vt 0.475984 0.035136
vt 0.136948 0.010109
vt 0.191529 0.022723
vt 0.431305 0.031838
vt 0.026710 0.049426
vt 0.009596 0.017758
s 1
f 24/1/1 22/2/2 26/1/3
f 3/3/4 4/4/5 8/4/6 7/3/7
f 26/1/3 5/5/8 6/6/9 25/7/10
f 3/3/4 7/3/7 25/8/10
f 3/3/4 11/3/4 12/4/11 32/4/11 4/4/5
f 6/6/9 16/9/12 3/3/4
f 25/7/10 6/6/9 3/3/4
f 34/10/13 13/10/14 14/11/15 19/11/16
f 5/5/8 17/12/17 16/9/12 6/6/9
f 16/9/12 18/13/18 3/3/4
f 17/12/17 19/11/16 18/13/18 16/9/12
f 17/12/17 5/5/8 34/10/13
f 19/11/16 14/11/15 15/13/19 18/13/18
f 18/13/18 15/13/19 11/3/4 3/3/4
f 19/11/16 17/12/17 34/10/13
f 4/14/5 24/1/1 26/1/3
f 9/15/20 29/16/21 1/16/21 30/15/22
f 4/4/5 26/14/3 8/4/6
f 8/4/6 26/14/3 25/8/10 7/3/7
f 23/17/23 20/18/24 22/19/25 24/20/23 36/21/23
f 34/22/26 22/17/25 20/18/24 2/23/27
s 0
f 28/17/28 36/17/28 24/17/28 33/17/28
f 1/16/29 29/24/29 35/17/29 23/17/29
s 1
f 31/25/30 32/26/11 12/27/11
f 2/17/27 20/18/24 21/18/31 10/28/32
f 34/29/26 2/30/27 10/17/32 13/31/33
f 33/32/34 32/26/11 31/33/30
s 0
f 31/33/35 27/34/35 35/17/35
f 31/33/36 35/17/36 28/17/36 33/17/36
f 21/18/37 20/17/37 23/17/37 35/35/37 27/34/37
s 1
f 30/36/22 36/37/38 28/17/38 9/17/20
f 13/17/39 31/33/40 33/32/41
f 13/17/39 33/32/41 24/38/42 22/39/42 34/17/42
s 0
f 29/17/43 9/17/43 28/17/43 35/17/43
s 1
f 33/32/34 4/14/5 32/26/11
f 24/38/1 4/14/5 33/32/34
f 22/2/2 34/10/13 5/5/8 26/1/3
s 0
f 36/37/44 30/36/44 1/16/44 23/34/44
s 1
f 53/1/45 55/1/46 51/2/47
f 39/3/4 43/3/48 44/4/49 40/4/5
f 55/1/46 54/7/50 42/6/51 41/5/52
f 39/3/4 54/8/50 43/3/48
f 39/3/4 40/4/5 59/4/11 12/4/11 11/3/4
f 42/6/51 39/3/4 46/9/53
f 54/7/50 39/3/4 42/6/51
f 61/10/54 49/11/55 14/11/15 13/10/14
f 41/5/52 42/6/51 46/9/53 47/12/56
f 46/9/53 39/3/4 48/13/57
f 47/12/56 46/9/53 48/13/57 49/11/55
f 47/12/56 61/10/54 41/5/52
f 49/11/55 48/13/57 15/13/19 14/11/15
f 48/13/57 39/3/4 11/3/4 15/13/19
f 49/11/55 61/10/54 47/12/56
f 40/14/5 55/1/46 53/1/45
f 45/15/58 58/15/59 37/16/21 57/16/21
f 40/4/5 44/4/49 55/14/46
f 44/4/49 43/3/48 54/8/50 55/14/46
f 52/17/60 63/21/60 53/20/60 51/19/61 50/18/62
f 61/22/63 38/23/64 50/18/62 51/17/61
s 0
f 56/17/65 60/17/65 53/17/65 63/17/65
f 37/16/66 52/17/66 62/17/66 57/24/66
s 1
f 31/25/30 12/27/11 59/26/11
f 38/17/64 10/28/32 21/18/31 50/18/62
f 61/29/63 13/31/33 10/17/32 38/30/64
f 60/32/67 31/33/30 59/26/11
s 0
f 31/33/68 62/17/68 27/34/68
f 31/33/69 60/17/69 56/17/69 62/17/69
f 21/18/70 27/34/70 62/35/70 52/17/70 50/17/70
s 1
f 58/36/59 45/17/58 56/17/71 63/37/71
f 13/17/39 60/32/72 31/33/40
f 13/17/39 61/17/73 51/39/73 53/38/73 60/32/72
s 0
f 57/17/74 62/17/74 56/17/74 45/17/74
s 1
f 60/32/67 59/26/11 40/14/5
f 53/38/45 60/32/67 40/14/5
f 51/2/47 55/1/46 41/5/52 61/10/54
s 0
f 63/37/75 52/34/75 37/16/75 58/36/75
