# Blender 4.2.1 LTS
# www.blender.org
o leaf_triplet
v -0.060480 0.009500 -0.066939
v 0.060480 0.009500 -0.066939
v -0.059224 0.176958 -0.464532
v 0.059224 0.176958 -0.464532
v 0.000000 -0.028987 -0.093436
v -0.000000 0.109073 -0.497820
v -0.116199 0.215066 -0.355436
v -0.141948 0.188841 -0.224107
v -0.121301 0.105517 -0.120707
v 0.121301 0.105517 -0.120707
v 0.141948 0.188841 -0.224107
v 0.116199 0.215066 -0.355436
v 0.000000 0.074882 -0.159872
v 0.000000 0.147716 -0.249919
v -0.000000 0.162597 -0.363938
v 0.088211 0.009500 -0.018907
v 0.027731 0.009500 0.085847
v 0.431908 0.176958 0.180976
v 0.372684 0.176958 0.283556
v 0.080918 -0.028987 0.046718
v 0.431125 0.109073 0.248910
v 0.365916 0.215065 0.077087
v 0.265056 0.188841 -0.010877
v 0.165185 0.105517 -0.044696
v 0.043885 0.105517 0.165403
v 0.123108 0.188841 0.234984
v 0.249717 0.215066 0.278349
v 0.138453 0.074882 0.079936
v 0.216436 0.147716 0.124960
v 0.315179 0.162597 0.181969
v -0.027731 0.009500 0.085847
v -0.088211 0.009500 -0.018907
v -0.372684 0.176958 0.283555
v -0.431908 0.176958 0.180976
v -0.080918 -0.028987 0.046718
v -0.431125 0.109073 0.248910
v -0.249717 0.215065 0.278349
v -0.123108 0.188841 0.234984
v -0.043885 0.105517 0.165403
v -0.165185 0.105517 -0.044696
v -0.265056 0.188841 -0.010877
v -0.365916 0.215065 0.077087
v -0.138453 0.074882 0.079936
v -0.216436 0.147716 0.124960
v -0.315179 0.162597 0.181969
v -0.093303 0.053532 -0.084698
v 0.029425 -0.015389 -0.073459
v 0.089635 0.202279 -0.417626
v -0.029265 0.144587 -0.487844
v -0.029425 -0.015389 -0.073459
v 0.029265 0.144587 -0.487844
v -0.000000 0.141361 -0.429368
v -0.089635 0.202279 -0.417626
v -0.134319 0.210411 -0.288483
v -0.137827 0.152609 -0.167748
v 0.093303 0.053532 -0.084698
v 0.137827 0.152609 -0.167748
v 0.134319 0.210411 -0.288483
v 0.000000 0.024971 -0.124792
v 0.000000 0.116868 -0.201629
v 0.000000 0.164229 -0.304013
v -0.060650 0.090199 -0.140289
v -0.070974 0.168278 -0.237013
v -0.058099 0.188831 -0.359687
v 0.060650 0.090199 -0.140289
v 0.070974 0.168278 -0.237013
v 0.058099 0.188831 -0.359687
v 0.120002 0.053532 -0.038453
v 0.048905 -0.015389 0.062212
v 0.316857 0.202279 0.286440
v 0.437118 0.144587 0.218577
v 0.078329 -0.015389 0.011247
v 0.407853 0.144587 0.269267
v 0.371843 0.141361 0.214684
v 0.406493 0.202279 0.131187
v 0.316993 0.210411 0.027918
v 0.214187 0.152609 -0.035488
v 0.026699 0.053532 0.123151
v 0.076360 0.152609 0.203235
v 0.182674 0.210411 0.260565
v 0.108073 0.024971 0.062396
v 0.174616 0.116868 0.100815
v 0.263283 0.164229 0.152007
v 0.151819 0.090199 0.017620
v 0.240746 0.168278 0.057041
v 0.340548 0.188831 0.129528
v 0.091169 0.090199 0.122669
v 0.169772 0.168278 0.179972
v 0.282448 0.188831 0.230159
v -0.026699 0.053532 0.123151
v -0.078329 -0.015389 0.011247
v -0.406493 0.202279 0.131187
v -0.407853 0.144587 0.269267
v -0.048905 -0.015389 0.062212
v -0.437118 0.144587 0.218577
v -0.371843 0.141361 0.214684
v -0.316857 0.202279 0.286440
v -0.182674 0.210411 0.260565
v -0.076360 0.152609 0.203235
v -0.120002 0.053532 -0.038453
v -0.214187 0.152609 -0.035488
v -0.316993 0.210411 0.027918
v -0.108073 0.024971 0.062396
v -0.174616 0.116868 0.100815
v -0.263283 0.164229 0.152007
v -0.091169 0.090199 0.122669
v -0.169772 0.168278 0.179972
v -0.282448 0.188831 0.230159
v -0.151819 0.090199 0.017620
v -0.240746 0.168278 0.057041
v -0.340548 0.188831 0.129528
v 0.044778 0.171999 -0.424254
v -0.044778 0.171999 -0.424254
v -0.046559 0.038611 -0.103981
v -0.068913 0.134738 -0.184688
v -0.067159 0.187320 -0.296248
v 0.046559 0.038611 -0.103981
v 0.068913 0.134738 -0.184688
v 0.067159 0.187320 -0.296248
v 0.345025 0.171999 0.250906
v 0.389804 0.171999 0.173348
v 0.113330 0.038611 0.011669
v 0.194401 0.134738 0.032664
v 0.290138 0.187320 0.089962
v 0.066771 0.038611 0.092312
v 0.125488 0.134738 0.152025
v 0.222979 0.187320 0.206286
v -0.389804 0.171999 0.173348
v -0.345025 0.171999 0.250906
v -0.066771 0.038611 0.092312
v -0.125488 0.134738 0.152025
v -0.222979 0.187320 0.206286
v -0.113330 0.038611 0.011669
v -0.194402 0.134738 0.032664
v -0.290138 0.187320 0.089962
vn -0.4209 0.9015 -0.1004
vn -0.4233 0.9057 -0.0231
vn -0.5414 0.8251 -0.1615
vn -0.5524 0.7976 -0.2423
vn -0.4131 0.9089 0.0572
vn -0.5120 0.8559 -0.0728
vn -0.6082 0.7844 -0.1216
vn -0.6122 0.7555 -0.2335
vn -0.6118 0.7453 -0.2651
vn 0.4131 0.9089 0.0572
vn 0.4233 0.9057 -0.0231
vn 0.5414 0.8251 -0.1615
vn 0.5120 0.8559 -0.0728
vn 0.4209 0.9015 -0.1004
vn 0.5524 0.7976 -0.2423
vn 0.6118 0.7453 -0.2651
vn 0.6122 0.7555 -0.2335
vn 0.6082 0.7844 -0.1216
vn 0.5071 0.5747 0.6423
vn 0.5316 0.5118 0.6748
vn 0.4718 0.5645 0.6773
vn 0.4450 0.6119 0.6539
vn 0.5422 0.4810 0.6890
vn 0.4828 0.5219 0.7032
vn 0.3885 0.6206 0.6811
vn 0.3868 0.6466 0.6575
vn 0.3788 0.6764 0.6316
vn 0.3420 0.7499 0.5663
vn 0.3402 0.7614 0.5519
vn 0.3425 0.7420 0.5763
vn 0.3297 0.8557 0.3988
vn 0.3295 0.8518 0.4072
vn 0.3294 0.8480 0.4153
vn 0.3525 0.9152 0.1953
vn 0.3497 0.9061 0.2382
vn 0.3521 0.9229 0.1557
vn -0.5422 0.4810 0.6890
vn -0.5316 0.5118 0.6748
vn -0.4718 0.5645 0.6773
vn -0.4828 0.5219 0.7032
vn -0.5071 0.5747 0.6423
vn -0.4450 0.6119 0.6539
vn -0.3788 0.6764 0.6316
vn -0.3868 0.6466 0.6575
vn -0.3885 0.6206 0.6811
vn -0.3420 0.7499 0.5663
vn -0.3425 0.7420 0.5763
vn -0.3402 0.7614 0.5519
vn -0.3294 0.8480 0.4153
vn -0.3295 0.8518 0.4072
vn -0.3297 0.8557 0.3988
vn -0.3525 0.9152 0.1953
vn -0.3521 0.9229 0.1557
vn -0.3497 0.9061 0.2382
vn 0.2974 0.9015 -0.3144
vn 0.2316 0.9057 -0.3551
vn 0.4105 0.8251 -0.3882
vn 0.4860 0.7976 -0.3572
vn 0.1570 0.9089 -0.3864
vn 0.3191 0.8559 -0.4070
vn 0.4094 0.7844 -0.4660
vn 0.5083 0.7555 -0.4134
vn 0.5355 0.7453 -0.3973
vn -0.2561 0.9089 0.3292
vn -0.1917 0.9057 0.3781
vn -0.1309 0.8251 0.5496
vn -0.1929 0.8559 0.4798
vn -0.1236 0.9015 0.4147
vn -0.0664 0.7976 0.5995
vn -0.0763 0.7453 0.6624
vn -0.1039 0.7555 0.6469
vn -0.1988 0.7844 0.5875
vn -0.8098 0.5747 0.1180
vn -0.8502 0.5118 0.1230
vn -0.8225 0.5645 0.0699
vn -0.7888 0.6119 0.0584
vn -0.8678 0.4810 0.1251
vn -0.8504 0.5219 0.0665
vn -0.7841 0.6206 -0.0041
vn -0.7628 0.6466 0.0063
vn -0.7364 0.6764 0.0122
vn -0.6614 0.7499 0.0130
vn -0.6480 0.7614 0.0187
vn -0.6703 0.7420 0.0084
vn -0.5102 0.8557 0.0861
vn -0.5174 0.8518 0.0818
vn -0.5244 0.8480 0.0776
vn -0.3454 0.9152 0.2076
vn -0.3811 0.9061 0.1838
vn -0.3109 0.9229 0.2271
vn -0.3255 0.4810 -0.8141
vn -0.3186 0.5118 -0.7978
vn -0.3507 0.5645 -0.7472
vn -0.3676 0.5219 -0.7697
vn -0.3027 0.5747 -0.7603
vn -0.3438 0.6119 -0.7123
vn -0.3576 0.6764 -0.6439
vn -0.3760 0.6466 -0.6638
vn -0.3956 0.6206 -0.6770
vn -0.3194 0.7499 -0.5793
vn -0.3279 0.7420 -0.5847
vn -0.3078 0.7614 -0.5706
vn -0.1950 0.8480 -0.4929
vn -0.1878 0.8518 -0.4890
vn -0.1805 0.8557 -0.4849
vn 0.0071 0.9152 -0.4029
vn 0.0412 0.9229 -0.3828
vn -0.0314 0.9061 -0.4219
vn 0.1236 0.9015 0.4147
vn 0.1917 0.9057 0.3781
vn 0.1309 0.8251 0.5496
vn 0.0664 0.7976 0.5995
vn 0.2561 0.9089 0.3292
vn 0.1929 0.8559 0.4798
vn 0.1988 0.7844 0.5875
vn 0.1039 0.7555 0.6469
vn 0.0763 0.7453 0.6624
vn -0.1570 0.9089 -0.3864
vn -0.2316 0.9057 -0.3551
vn -0.4105 0.8251 -0.3882
vn -0.3191 0.8559 -0.4070
vn -0.2974 0.9015 -0.3144
vn -0.4860 0.7976 -0.3572
vn -0.5355 0.7453 -0.3973
vn -0.5083 0.7555 -0.4134
vn -0.4094 0.7844 -0.4660
vn 0.3027 0.5747 -0.7603
vn 0.3186 0.5118 -0.7978
vn 0.3507 0.5645 -0.7472
vn 0.3438 0.6119 -0.7123
vn 0.3255 0.4810 -0.8141
vn 0.3676 0.5219 -0.7697
vn 0.3956 0.6206 -0.6770
vn 0.3760 0.6466 -0.6637
vn 0.3576 0.6764 -0.6439
vn 0.3194 0.7499 -0.5793
vn 0.3078 0.7614 -0.5706
vn 0.3279 0.7420 -0.5847
vn 0.1805 0.8557 -0.4849
vn 0.1878 0.8518 -0.4890
vn 0.1950 0.8480 -0.4929
vn -0.0071 0.9152 -0.4029
vn 0.0314 0.9061 -0.4219
vn -0.0412 0.9229 -0.3828
vn 0.8678 0.4810 0.1251
vn 0.8502 0.5118 0.1230
vn 0.8225 0.5645 0.0699
vn 0.8504 0.5219 0.0665
vn 0.8098 0.5747 0.1180
vn 0.7888 0.6119 0.0584
vn 0.7364 0.6764 0.0122
vn 0.7628 0.6466 0.0063
vn 0.7841 0.6206 -0.0041
vn 0.6614 0.7499 0.0130
vn 0.6703 0.7420 0.0084
vn 0.6480 0.7614 0.0187
vn 0.5244 0.8480 0.0776
vn 0.5174 0.8518 0.0818
vn 0.5102 0.8557 0.0861
vn 0.3454 0.9152 0.2076
vn 0.3109 0.9229 0.2271
vn 0.3811 0.9061 0.1838
vt 0.442433 0.381608
vt 0.374289 0.592206
vt 0.374289 0.674376
vt 0.442433 0.467640
vt 0.306145 0.795639
vt 0.306145 0.880396
vt 0.306145 0.965152
vt 0.374289 0.759412
vt 0.442433 0.553671
vt 0.374289 0.592206
vt 0.374289 0.674376
vt 0.374289 0.759412
vt 0.306146 0.287099
vt 0.374289 0.153648
vt 0.374289 0.226144
vt 0.306146 0.371856
vt 0.442433 0.020197
vt 0.442433 0.080432
vt 0.442433 0.140668
vt 0.374289 0.298640
vt 0.306145 0.456613
vt 0.374289 0.371136
vt 0.306146 0.541369
vt 0.442433 0.200903
vt 0.442433 0.261138
vt 0.374289 0.443632
vt 0.306145 0.626126
vt 0.374289 0.516486
vt 0.306145 0.710882
vt 0.442433 0.321373
vt 0.374289 0.153648
vt 0.374289 0.226144
vt 0.374289 0.298640
vt 0.374289 0.371136
vt 0.374289 0.443632
vt 0.374289 0.516486
s 1
f 15/1/1 67/2/2 112/3/3 52/4/4
f 67/2/2 12/5/5 48/6/6 112/3/3
f 112/3/3 48/6/6 4/7/7 51/8/8
f 52/4/4 112/3/3 51/8/8 6/9/9
f 7/5/10 64/10/11 113/11/12 53/6/13
f 64/10/11 15/1/14 52/4/15 113/11/12
f 113/11/12 52/4/15 6/9/16 49/12/17
f 53/6/13 113/11/12 49/12/17 3/7/18
f 1/13/19 50/14/20 114/15/21 46/16/22
f 50/14/20 5/17/23 59/18/24 114/15/21
f 114/15/21 59/18/24 13/19/25 62/20/26
f 46/16/22 114/15/21 62/20/26 9/21/27
f 9/21/27 62/20/26 115/22/28 55/23/29
f 62/20/26 13/19/25 60/24/30 115/22/28
f 115/22/28 60/24/30 14/25/31 63/26/32
f 55/23/29 115/22/28 63/26/32 8/27/33
f 8/27/33 63/26/32 116/28/34 54/29/35
f 63/26/32 14/25/31 61/30/36 116/28/34
f 116/28/34 61/30/36 15/1/14 64/10/11
f 54/29/35 116/28/34 64/10/11 7/5/10
f 5/17/37 47/31/38 117/32/39 59/18/40
f 47/31/38 2/13/41 56/16/42 117/32/39
f 117/32/39 56/16/42 10/21/43 65/33/44
f 59/18/40 117/32/39 65/33/44 13/19/45
f 13/19/45 65/33/44 118/34/46 60/24/47
f 65/33/44 10/21/43 57/23/48 118/34/46
f 118/34/46 57/23/48 11/27/49 66/35/50
f 60/24/47 118/34/46 66/35/50 14/25/51
f 14/25/51 66/35/50 119/36/52 61/30/53
f 66/35/50 11/27/49 58/29/54 119/36/52
f 119/36/52 58/29/54 12/5/5 67/2/2
f 61/30/53 119/36/52 67/2/2 15/1/1
f 30/1/55 89/2/56 120/3/57 74/4/58
f 89/2/56 27/5/59 70/6/60 120/3/57
f 120/3/57 70/6/60 19/7/61 73/8/62
f 74/4/58 120/3/57 73/8/62 21/9/63
f 22/5/64 86/10/65 121/11/66 75/6/67
f 86/10/65 30/1/68 74/4/69 121/11/66
f 121/11/66 74/4/69 21/9/70 71/12/71
f 75/6/67 121/11/66 71/12/71 18/7/72
f 16/13/73 72/14/74 122/15/75 68/16/76
f 72/14/74 20/17/77 81/18/78 122/15/75
f 122/15/75 81/18/78 28/19/79 84/20/80
f 68/16/76 122/15/75 84/20/80 24/21/81
f 24/21/81 84/20/80 123/22/82 77/23/83
f 84/20/80 28/19/79 82/24/84 123/22/82
f 123/22/82 82/24/84 29/25/85 85/26/86
f 77/23/83 123/22/82 85/26/86 23/27/87
f 23/27/87 85/26/86 124/28/88 76/29/89
f 85/26/86 29/25/85 83/30/90 124/28/88
f 124/28/88 83/30/90 30/1/68 86/10/65
f 76/29/89 124/28/88 86/10/65 22/5/64
f 20/17/91 69/31/92 125/32/93 81/18/94
f 69/31/92 17/13/95 78/16/96 125/32/93
f 125/32/93 78/16/96 25/21/97 87/33/98
f 81/18/94 125/32/93 87/33/98 28/19/99
f 28/19/99 87/33/98 126/34/100 82/24/101
f 87/33/98 25/21/97 79/23/102 126/34/100
f 126/34/100 79/23/102 26/27/103 88/35/104
f 82/24/101 126/34/100 88/35/104 29/25/105
f 29/25/105 88/35/104 127/36/106 83/30/107
f 88/35/104 26/27/103 80/29/108 127/36/106
f 127/36/106 80/29/108 27/5/59 89/2/56
f 83/30/107 127/36/106 89/2/56 30/1/55
f 45/1/109 111/2/110 128/3/111 96/4/112
f 111/2/110 42/5/113 92/6/114 128/3/111
f 128/3/111 92/6/114 34/7/115 95/8/116
f 96/4/112 128/3/111 95/8/116 36/9/117
f 37/5/118 108/10/119 129/11/120 97/6/121
f 108/10/119 45/1/122 96/4/123 129/11/120
f 129/11/120 96/4/123 36/9/124 93/12/125
f 97/6/121 129/11/120 93/12/125 33/7/126
f 31/13/127 94/14/128 130/15/129 90/16/130
f 94/14/128 35/17/131 103/18/132 130/15/129
f 130/15/129 103/18/132 43/19/133 106/20/134
f 90/16/130 130/15/129 106/20/134 39/21/135
f 39/21/135 106/20/134 131/22/136 99/23/137
f 106/20/134 43/19/133 104/24/138 131/22/136
f 131/22/136 104/24/138 44/25/139 107/26/140
f 99/23/137 131/22/136 107/26/140 38/27/141
f 38/27/141 107/26/140 132/28/142 98/29/143
f 107/26/140 44/25/139 105/30/144 132/28/142
f 132/28/142 105/30/144 45/1/122 108/10/119
f 98/29/143 132/28/142 108/10/119 37/5/118
f 35/17/145 91/31/146 133/32/147 103/18/148
f 91/31/146 32/13/149 100/16/150 133/32/147
f 133/32/147 100/16/150 40/21/151 109/33/152
f 103/18/148 133/32/147 109/33/152 43/19/153
f 43/19/153 109/33/152 134/34/154 104/24/155
f 109/33/152 40/21/151 101/23/156 134/34/154
f 134/34/154 101/23/156 41/27/157 110/35/158
f 104/24/155 134/34/154 110/35/158 44/25/159
f 44/25/159 110/35/158 135/36/160 105/30/161
f 110/35/158 41/27/157 102/29/162 135/36/160
f 135/36/160 102/29/162 42/5/113 111/2/110
f 105/30/161 135/36/160 111/2/110 45/1/109
