# Blender 4.2.1 LTS
# www.blender.org
o crystal
v 0.000000 -0.200000 -0.125000
v 0.000000 0.355000 -0.175000
v 0.108253 -0.200000 -0.062500
v 0.151554 0.355000 -0.087500
v 0.108253 -0.200000 0.062500
v 0.151554 0.355000 0.087500
v 0.000000 -0.200000 0.125000
v 0.000000 0.355000 0.175000
v -0.108253 -0.200000 0.062500
v -0.151554 0.355000 0.087500
v -0.108253 -0.200000 -0.062500
v -0.151554 0.355000 -0.087500
v -0.000008 0.467495 0.000005
vn 0.4985 -0.0778 -0.8634
vn 0.9970 -0.0778 -0.0000
vn 0.4985 -0.0778 0.8634
vn -0.4985 -0.0778 0.8634
vn 0.5960 0.8030 -0.0000
vn -0.9970 -0.0778 -0.0000
vn -0.4985 -0.0778 -0.8634
vn -0.0000 -1.0000 -0.0000
vn 0.2980 0.8030 0.5162
vn -0.2980 0.8030 0.5162
vn -0.5960 0.8030 -0.0000
vn -0.2980 0.8030 -0.5162
vn 0.2980 0.8030 -0.5162
vt 0.931845 0.050453
vt 0.954137 0.778507
vt 0.915126 0.778507
vt 0.903980 0.050453
vt 0.837105 0.778507
vt 0.848251 0.050453
vt 0.798094 0.778507
vt 0.820386 0.050453
vt 0.876113 0.926078
s 0
f 1/1/1 2/2/1 4/3/1 3/4/1
f 3/4/2 4/3/2 6/5/2 5/6/2
f 5/6/3 6/5/3 8/7/3 7/8/3
f 7/8/4 8/7/4 10/5/4 9/6/4
f 4/3/5 13/9/5 6/5/5
f 9/6/6 10/5/6 12/3/6 11/4/6
f 11/4/7 12/3/7 2/2/7 1/1/7
f 1/1/8 3/4/8 5/6/8 7/8/8 9/6/8 11/4/8
f 6/5/9 13/9/9 8/7/9
f 8/7/10 13/9/10 10/5/10
f 10/5/11 13/9/11 12/3/11
f 12/3/12 13/9/12 2/2/12
f 2/2/13 13/9/13 4/3/13
