# Blender 4.2.1 LTS
# www.blender.org
o flat_rock_doublet
v 0.000000 -0.050000 -0.233928
v 0.000000 0.050000 -0.212662
v 0.202587 -0.050000 -0.116964
v 0.184170 0.050000 -0.106331
v 0.202587 -0.050000 0.116964
v 0.184170 0.050000 0.106331
v 0.000000 -0.050000 0.233928
v 0.000000 0.050000 0.212662
v -0.202587 -0.050000 0.116964
v -0.184170 0.050000 0.106331
v -0.202587 -0.050000 -0.116964
v -0.184170 0.050000 -0.106331
v 0.178910 -0.050000 -0.271813
v 0.178910 0.023893 -0.257145
v 0.318649 -0.050000 -0.191135
v 0.305946 0.023893 -0.183801
v 0.318649 -0.050000 -0.029778
v 0.305946 0.023893 -0.037112
v 0.178910 -0.050000 0.050901
v 0.178910 0.023893 0.036232
v 0.039171 -0.050000 -0.029778
v 0.051874 0.023893 -0.037112
v 0.039171 -0.050000 -0.191135
v 0.051874 0.023893 -0.183801
vn 0.4917 0.1811 -0.8517
vn 0.9835 0.1811 -0.0000
vn 0.4917 0.1811 0.8517
vn -0.4917 0.1811 0.8517
vn -0.0000 1.0000 -0.0000
vn -0.9835 0.1811 -0.0000
vn -0.4917 0.1811 -0.8517
vn -0.0000 -1.0000 -0.0000
vn 0.4928 0.1694 -0.8535
vn 0.9855 0.1694 -0.0000
vn 0.4928 0.1694 0.8535
vn -0.4928 0.1694 0.8535
vn -0.9855 0.1694 -0.0000
vn -0.4928 0.1694 -0.8535
vt 0.986025 0.024100
vt 0.984475 0.634748
vt 0.928745 0.634748
vt 0.930295 0.024100
vt 0.817285 0.634748
vt 0.818835 0.024100
vt 0.761555 0.634748
vt 0.763106 0.024100
s 0
f 1/1/1 2/2/1 4/3/1 3/4/1
f 3/4/2 4/3/2 6/5/2 5/6/2
f 5/6/3 6/5/3 8/7/3 7/8/3
f 7/8/4 8/7/4 10/5/4 9/6/4
f 4/3/5 2/2/5 12/3/5 10/5/5 8/7/5 6/5/5
f 9/6/6 10/5/6 12/3/6 11/4/6
f 11/4/7 12/3/7 2/2/7 1/1/7
f 1/1/8 3/4/8 5/6/8 7/8/8 9/6/8 11/4/8
f 13/1/9 14/2/9 16/3/9 15/4/9
f 15/4/10 16/3/10 18/5/10 17/6/10
f 17/6/11 18/5/11 20/7/11 19/8/11
f 19/8/12 20/7/12 22/5/12 21/6/12
f 16/3/5 14/2/5 24/3/5 22/5/5 20/7/5 18/5/5
f 21/6/13 22/5/13 24/3/13 23/4/13
f 23/4/14 24/3/14 14/2/14 13/1/14
f 13/1/8 15/4/8 17/6/8 19/8/8 21/6/8 23/4/8
