# Blender 4.2.1 LTS
# www.blender.org
o trench_metal_blocks_alt
v -0.175000 -0.325000 0.298524
v -0.175000 0.425000 0.298524
v -0.175000 -0.325000 -0.051477
v -0.175000 0.425000 -0.051477
v 0.175000 -0.325000 0.298524
v 0.175000 0.425000 0.298524
v 0.175000 -0.325000 -0.051477
v 0.175000 0.425000 -0.051477
v -0.309622 -0.226223 -0.010937
v -0.309622 0.523777 -0.010937
v -0.309622 -0.226223 -0.360937
v -0.309622 0.523777 -0.360937
v 0.040378 -0.226223 -0.010937
v 0.040378 0.523777 -0.010937
v 0.040378 -0.226223 -0.360937
v 0.040378 0.523777 -0.360937
v -0.037499 -0.454382 0.039201
v -0.037499 0.295618 0.039201
v -0.037499 -0.454382 -0.310799
v -0.037499 0.295618 -0.310799
v 0.312501 -0.454382 0.039201
v 0.312501 0.295618 0.039201
v 0.312501 -0.454382 -0.310799
v 0.312501 0.295618 -0.310799
vn -1.0000 -0.0000 -0.0000
vn -0.0000 -0.0000 -1.0000
vn 1.0000 -0.0000 -0.0000
vn -0.0000 -0.0000 1.0000
vn -0.0000 -1.0000 -0.0000
vn -0.0000 1.0000 -0.0000
vt 0.273956 0.050855
vt 0.273956 0.953704
vt 0.474975 0.953704
vt 0.474975 0.050855
s 0
f 1/1/1 2/2/1 4/3/1 3/4/1
f 3/4/2 4/3/2 8/3/2 7/4/2
f 7/4/3 8/3/3 6/2/3 5/1/3
f 5/1/4 6/2/4 2/2/4 1/1/4
f 3/4/5 7/4/5 5/1/5 1/1/5
f 8/3/6 4/3/6 2/2/6 6/2/6
f 9/1/1 10/2/1 12/3/1 11/4/1
f 11/4/2 12/3/2 16/3/2 15/4/2
f 15/4/3 16/3/3 14/2/3 13/1/3
f 13/1/4 14/2/4 10/2/4 9/1/4
f 11/4/5 15/4/5 13/1/5 9/1/5
f 16/3/6 12/3/6 10/2/6 14/2/6
f 17/1/1 18/2/1 20/3/1 19/4/1
f 19/4/2 20/3/2 24/3/2 23/4/2
f 23/4/3 24/3/3 22/2/3 21/1/3
f 21/1/4 22/2/4 18/2/4 17/1/4
f 19/4/5 23/4/5 21/1/5 17/1/5
f 24/3/6 20/3/6 18/2/6 22/2/6
