# Blender 4.2.1 LTS
# www.blender.org
o trench_metal_shard
v -0.056295 -0.356100 0.363253
v -0.429380 0.136264 -0.007297
v -0.233933 -0.140860 -0.388719
v 0.329572 0.125392 0.339755
v 0.023565 0.442832 -0.038681
v 0.488144 -0.206871 -0.061024
v 0.180238 0.165708 -0.484534
v 0.329572 -0.298988 0.339755
v 0.180238 -0.258673 -0.484534
v 0.488144 -0.631251 -0.061024
v -0.233933 -0.565241 -0.388719
v -0.429380 -0.288117 -0.007297
v -0.056295 -0.780480 0.363253
v 0.090592 -1.057604 -0.019452
vn 0.8088 -0.0000 -0.5880
vn 0.0608 -0.0000 0.9982
vn 0.8059 0.5803 -0.1176
vn -0.3667 0.4471 0.8159
vn -0.7047 -0.0000 0.7095
vn -0.5124 0.5965 -0.6177
vn 0.9299 -0.0000 0.3679
vn 0.3185 -0.5033 -0.8032
vn -0.8278 -0.5599 0.0353
vn -0.8900 -0.0000 -0.4560
vn -0.2254 -0.0000 -0.9743
vn 0.6160 -0.4872 0.6191
vt 0.232336 0.790414
vt 0.142767 0.561454
vt 0.142767 0.300660
vt 0.232336 0.529620
vt 0.042409 0.765639
vt 0.036479 0.469748
vt 0.036479 0.208954
vt 0.042409 0.504845
vt 0.136475 0.960714
vt 0.129727 0.772319
vt 0.129727 0.511526
vt 0.225588 0.602019
vt 0.132340 0.038654
vt 0.225588 0.341225
s 0
f 7/1/1 6/2/1 10/3/1 9/4/1
f 4/5/2 1/6/2 13/7/2 8/8/2
f 6/2/3 7/1/3 5/9/3 4/5/3
f 4/5/4 5/9/4 2/10/4 1/6/4
f 1/6/5 2/10/5 12/11/5 13/7/5
f 7/1/6 3/12/6 2/10/6 5/9/6
f 6/2/7 4/5/7 8/8/7 10/3/7
f 14/13/8 11/14/8 9/4/8 10/3/8
f 13/7/9 12/11/9 11/14/9 14/13/9
f 2/10/10 3/12/10 11/14/10 12/11/10
f 3/12/11 7/1/11 9/4/11 11/14/11
f 14/13/12 10/3/12 8/8/12 13/7/12
